<svg width="962" height="962" viewBox="0 0 962 962" fill="none" xmlns="http://www.w3.org/2000/svg">
<mask id="mask0_76_512" style="mask-type:alpha" maskUnits="userSpaceOnUse" x="0" y="0" width="962" height="962">
<rect width="962" height="962" rx="142" fill="#D9D9D9"/>
</mask>
<g mask="url(#mask0_76_512)">
<rect x="-30.5" y="-31" width="1024" height="1024" fill="white"/>
<path d="M-110 589.5L307 172.5L605.5 205L689 480.5L622.5 650.5L797.5 839.5L581 1056L-110 994.5V589.5Z" fill="#EBEBEB"/>
<path d="M721.42 244.32C701.24 202.584 677.14 180.183 639.608 157.71C602.076 135.237 557.589 124 505.916 124C454.243 124 409.755 135.237 372.299 157.71C334.768 180.183 305.95 212.288 285.77 254.023C265.59 295.759 255.5 345.292 255.5 402.698V492.438C255.5 549.844 265.59 599.377 285.77 641.113C305.95 682.849 334.768 714.953 372.299 737.426C409.755 759.9 454.319 771.136 505.916 771.136C557.512 771.136 602.076 759.9 639.532 737.426C677.064 714.953 705.881 682.849 726.061 641.113C746.241 599.377 756.331 549.844 756.331 492.438V402.698C756.331 345.292 746.241 295.759 726.061 254.023L721.42 244.32ZM673.089 492.82C673.089 535.626 666.362 572.394 652.832 603.046C639.302 633.698 620.116 657.242 595.197 673.6C570.278 689.958 540.237 698.366 505.916 698.672C471.594 698.366 441.554 690.034 416.634 673.6C391.715 657.242 372.529 633.698 358.999 603.046C345.469 572.394 338.743 535.626 338.743 492.82V402.698C338.743 360.198 345.469 323.66 358.999 292.931C372.529 262.279 391.792 238.812 416.864 222.607C441.936 206.402 471.594 198.223 505.916 198.223C540.237 198.223 569.895 206.325 594.968 222.607C620.04 238.812 639.302 262.279 652.832 292.931C666.362 323.583 673.089 360.198 673.089 402.698V492.82Z" fill="black"/>
<path d="M721.42 244.32L750.288 230.512L750.259 230.451L750.229 230.39L721.42 244.32ZM372.299 157.71L388.739 185.164L388.751 185.157L388.763 185.15L372.299 157.71ZM372.299 737.426L388.763 709.987L388.751 709.979L388.739 709.972L372.299 737.426ZM639.532 737.426L623.093 709.972L623.08 709.979L623.068 709.987L639.532 737.426ZM726.061 254.023L697.193 267.831L697.223 267.892L697.252 267.953L726.061 254.023ZM416.634 673.6L434.252 646.886L434.224 646.867L434.195 646.848L416.634 673.6ZM358.999 292.931L329.724 280.009L329.718 280.023L329.712 280.036L358.999 292.931ZM594.968 222.607L577.539 249.445L577.568 249.463L577.597 249.482L594.968 222.607ZM750.229 230.39C726.778 181.889 697.723 155.21 656.047 130.255L623.169 185.164C656.557 205.156 675.702 223.279 692.611 258.25L750.229 230.39ZM656.047 130.255C612.723 104.313 562.334 92 505.916 92V156C552.843 156 591.43 166.16 623.169 185.164L656.047 130.255ZM505.916 92C449.504 92 399.101 104.311 355.836 130.27L388.763 185.15C420.408 166.163 458.981 156 505.916 156V92ZM355.86 130.255C312.636 156.137 279.68 193.106 256.961 240.094L314.579 267.953C332.22 231.469 356.899 204.229 388.739 185.164L355.86 130.255ZM256.961 240.094C234.242 287.08 223.5 341.588 223.5 402.698H287.5C287.5 348.996 296.938 304.439 314.579 267.953L256.961 240.094ZM223.5 402.698V492.438H287.5V402.698H223.5ZM223.5 492.438C223.5 553.548 234.242 608.056 256.961 655.042L314.579 627.183C296.938 590.697 287.5 546.14 287.5 492.438H223.5ZM256.961 655.042C279.68 702.03 312.636 738.999 355.86 764.881L388.739 709.972C356.899 690.907 332.22 663.667 314.579 627.183L256.961 655.042ZM355.836 764.866C399.105 790.828 449.585 803.136 505.916 803.136V739.136C459.053 739.136 420.405 728.971 388.763 709.987L355.836 764.866ZM505.916 803.136C562.246 803.136 612.726 790.828 655.996 764.866L623.068 709.987C591.427 728.971 552.778 739.136 505.916 739.136V803.136ZM655.971 764.881C699.195 738.999 732.151 702.03 754.87 655.042L697.252 627.183C679.611 663.667 654.932 690.907 623.093 709.972L655.971 764.881ZM754.87 655.042C777.589 608.056 788.331 553.548 788.331 492.438H724.331C724.331 546.14 714.893 590.697 697.252 627.183L754.87 655.042ZM788.331 492.438V402.698H724.331V492.438H788.331ZM788.331 402.698C788.331 341.588 777.589 287.08 754.87 240.094L697.252 267.953C714.893 304.439 724.331 348.996 724.331 402.698H788.331ZM754.929 240.216L750.288 230.512L692.552 258.128L697.193 267.831L754.929 240.216ZM641.089 492.82C641.089 532.394 634.856 564.526 623.557 590.124L682.107 615.968C697.868 580.261 705.089 538.858 705.089 492.82H641.089ZM623.557 590.124C612.182 615.894 596.746 634.304 577.636 646.848L612.757 700.351C643.486 680.179 666.422 651.502 682.107 615.968L623.557 590.124ZM577.636 646.848C558.617 659.333 534.793 666.413 505.631 666.673L506.201 730.67C545.681 730.319 581.938 720.582 612.757 700.351L577.636 646.848ZM505.916 666.672C505.915 666.672 505.915 666.672 505.915 666.672C505.914 666.672 505.914 666.672 505.914 666.672C505.914 666.672 505.913 666.672 505.913 666.672C505.913 666.672 505.912 666.672 505.912 666.672C505.912 666.672 505.911 666.672 505.911 666.672C505.911 666.672 505.911 666.672 505.91 666.672C505.91 666.672 505.91 666.672 505.91 666.672C505.909 666.672 505.909 666.672 505.909 666.672C505.908 666.672 505.908 666.672 505.908 666.672C505.908 666.672 505.907 666.672 505.907 666.672C505.907 666.672 505.907 666.672 505.906 666.672C505.906 666.672 505.906 666.672 505.906 666.672C505.905 666.672 505.905 666.672 505.905 666.672C505.905 666.672 505.904 666.672 505.904 666.672C505.904 666.672 505.904 666.672 505.903 666.672C505.903 666.672 505.903 666.672 505.903 666.672C505.902 666.672 505.902 666.672 505.902 666.672C505.902 666.672 505.901 666.672 505.901 666.672C505.901 666.672 505.901 666.672 505.9 666.672C505.9 666.672 505.9 666.672 505.9 666.672C505.899 666.672 505.899 666.672 505.899 666.672C505.899 666.672 505.899 666.672 505.898 666.672C505.898 666.672 505.898 666.672 505.898 666.672C505.897 666.672 505.897 666.672 505.897 666.672C505.897 666.672 505.897 666.672 505.896 666.672C505.896 666.672 505.896 666.672 505.896 666.672C505.895 666.672 505.895 666.672 505.895 666.672C505.895 666.672 505.895 666.672 505.894 666.672C505.894 666.672 505.894 666.672 505.894 666.672C505.894 666.672 505.893 666.672 505.893 666.672C505.893 666.672 505.893 666.672 505.893 666.672C505.892 666.672 505.892 666.672 505.892 666.672C505.892 666.672 505.892 666.672 505.891 666.672C505.891 666.672 505.891 666.672 505.891 666.672C505.891 666.672 505.891 666.672 505.89 666.672C505.89 666.672 505.89 666.672 505.89 666.672C505.89 666.672 505.889 666.672 505.889 666.672C505.889 666.672 505.889 666.672 505.889 666.672C505.889 666.672 505.888 666.672 505.888 666.672C505.888 666.672 505.888 666.672 505.888 666.672C505.888 666.672 505.887 666.672 505.887 666.672C505.887 666.672 505.887 666.672 505.887 666.672C505.887 666.672 505.886 666.672 505.886 666.672C505.886 666.672 505.886 666.672 505.886 666.672C505.886 666.672 505.885 666.672 505.885 666.672C505.885 666.672 505.885 666.672 505.885 666.672C505.885 666.672 505.885 666.672 505.884 666.672C505.884 666.672 505.884 666.672 505.884 666.672C505.884 666.672 505.884 666.672 505.883 666.672C505.883 666.672 505.883 666.672 505.883 666.672C505.883 666.672 505.883 666.672 505.883 666.672C505.882 666.672 505.882 666.672 505.882 666.672C505.882 666.672 505.882 666.672 505.882 666.672C505.882 666.672 505.882 666.672 505.881 666.672C505.881 666.672 505.881 666.672 505.881 666.672C505.881 666.672 505.881 666.672 505.881 666.672C505.881 666.672 505.88 666.672 505.88 666.672C505.88 666.672 505.88 666.672 505.88 666.672C505.88 666.672 505.88 666.672 505.88 666.672C505.879 666.672 505.879 666.672 505.879 666.672C505.879 666.672 505.879 666.672 505.879 666.672C505.879 666.672 505.879 666.672 505.879 666.672C505.878 666.672 505.878 666.672 505.878 666.672C505.878 666.672 505.878 666.672 505.878 666.672C505.878 666.672 505.878 666.672 505.878 666.672C505.878 666.672 505.877 666.672 505.877 666.672C505.877 666.672 505.877 666.672 505.877 666.672C505.877 666.672 505.877 666.672 505.877 666.672C505.877 666.672 505.877 666.672 505.877 666.672C505.876 666.672 505.876 666.672 505.876 666.672C505.876 666.672 505.876 666.672 505.876 666.672C505.876 666.672 505.876 666.672 505.876 666.672C505.876 666.672 505.876 666.672 505.875 666.672C505.875 666.672 505.875 666.672 505.875 666.672C505.875 666.672 505.875 666.672 505.875 666.672C505.875 666.672 505.875 666.672 505.875 666.672C505.875 666.672 505.875 666.672 505.875 666.672C505.875 666.672 505.874 666.672 505.874 666.672C505.874 666.672 505.874 666.672 505.874 666.672C505.874 666.672 505.874 666.672 505.874 666.672C505.874 666.672 505.874 666.672 505.874 666.672C505.874 666.672 505.874 666.672 505.874 666.672C505.874 666.672 505.874 666.672 505.873 666.672C505.873 666.672 505.873 666.672 505.873 666.672C505.873 666.672 505.873 666.672 505.873 666.672C505.873 666.672 505.873 666.672 505.873 666.672C505.873 666.672 505.873 666.672 505.873 666.672C505.873 666.672 505.873 666.672 505.873 666.672C505.873 666.672 505.873 666.672 505.873 666.672C505.873 666.672 505.873 666.672 505.872 666.672C505.872 666.672 505.872 666.672 505.872 666.672C505.872 666.672 505.872 666.672 505.872 666.672C505.872 666.672 505.872 666.672 505.872 666.672C505.872 666.672 505.872 666.672 505.872 666.672C505.872 666.672 505.872 666.672 505.872 666.672C505.872 666.672 505.872 666.672 505.872 666.672C505.872 666.672 505.872 666.672 505.872 666.672C505.872 666.672 505.872 666.672 505.872 666.672C505.872 666.672 505.872 666.672 505.872 666.672C505.872 666.672 505.872 666.672 505.872 666.672C505.872 666.672 505.872 666.672 505.872 666.672C505.872 666.672 505.872 666.672 505.872 666.672C505.872 666.672 505.872 666.672 505.872 666.672C505.872 666.672 505.872 666.672 505.871 666.672H505.871C505.871 666.672 505.871 666.672 505.871 666.672C505.871 666.672 505.871 666.672 505.871 666.672C505.871 698.672 505.871 730.672 505.871 730.672C505.871 730.672 505.871 730.672 505.871 730.672C505.871 730.672 505.871 730.672 505.871 730.672H505.872C505.872 730.672 505.872 730.672 505.872 730.672C505.872 730.672 505.872 730.672 505.872 730.672C505.872 730.672 505.872 730.672 505.872 730.672C505.872 730.672 505.872 730.672 505.872 730.672C505.872 730.672 505.872 730.672 505.872 730.672C505.872 730.672 505.872 730.672 505.872 730.672C505.872 730.672 505.872 730.672 505.872 730.672C505.872 730.672 505.872 730.672 505.872 730.672C505.872 730.672 505.872 730.672 505.872 730.672C505.872 730.672 505.872 730.672 505.872 730.672C505.872 730.672 505.872 730.672 505.872 730.672C505.872 730.672 505.872 730.672 505.872 730.672C505.872 730.672 505.872 730.672 505.872 730.672C505.872 730.672 505.872 730.672 505.872 730.672C505.872 730.672 505.873 730.672 505.873 730.672C505.873 730.672 505.873 730.672 505.873 730.672C505.873 730.672 505.873 730.672 505.873 730.672C505.873 730.672 505.873 730.672 505.873 730.672C505.873 730.672 505.873 730.672 505.873 730.672C505.873 730.672 505.873 730.672 505.873 730.672C505.873 730.672 505.873 730.672 505.873 730.672C505.873 730.672 505.873 730.672 505.873 730.672C505.874 730.672 505.874 730.672 505.874 730.672C505.874 730.672 505.874 730.672 505.874 730.672C505.874 730.672 505.874 730.672 505.874 730.672C505.874 730.672 505.874 730.672 505.874 730.672C505.874 730.672 505.874 730.672 505.874 730.672C505.874 730.672 505.874 730.672 505.874 730.672C505.875 730.672 505.875 730.672 505.875 730.672C505.875 730.672 505.875 730.672 505.875 730.672C505.875 730.672 505.875 730.672 505.875 730.672C505.875 730.672 505.875 730.672 505.875 730.672C505.875 730.672 505.875 730.672 505.875 730.672C505.875 730.672 505.876 730.672 505.876 730.672C505.876 730.672 505.876 730.672 505.876 730.672C505.876 730.672 505.876 730.672 505.876 730.672C505.876 730.672 505.876 730.672 505.876 730.672C505.876 730.672 505.876 730.672 505.876 730.672C505.877 730.672 505.877 730.672 505.877 730.672C505.877 730.672 505.877 730.672 505.877 730.672C505.877 730.672 505.877 730.672 505.877 730.672C505.877 730.672 505.877 730.672 505.877 730.672C505.877 730.672 505.878 730.672 505.878 730.672C505.878 730.672 505.878 730.672 505.878 730.672C505.878 730.672 505.878 730.672 505.878 730.672C505.878 730.672 505.878 730.672 505.878 730.672C505.878 730.672 505.879 730.672 505.879 730.672C505.879 730.672 505.879 730.672 505.879 730.672C505.879 730.672 505.879 730.672 505.879 730.672C505.879 730.672 505.879 730.672 505.879 730.672C505.88 730.672 505.88 730.672 505.88 730.672C505.88 730.672 505.88 730.672 505.88 730.672C505.88 730.672 505.88 730.672 505.88 730.672C505.88 730.672 505.88 730.672 505.881 730.672C505.881 730.672 505.881 730.672 505.881 730.672C505.881 730.672 505.881 730.672 505.881 730.672C505.881 730.672 505.881 730.672 505.881 730.672C505.882 730.672 505.882 730.672 505.882 730.672C505.882 730.672 505.882 730.672 505.882 730.672C505.882 730.672 505.882 730.672 505.882 730.672C505.882 730.672 505.883 730.672 505.883 730.672C505.883 730.672 505.883 730.672 505.883 730.672C505.883 730.672 505.883 730.672 505.883 730.672C505.883 730.672 505.883 730.672 505.884 730.672C505.884 730.672 505.884 730.672 505.884 730.672C505.884 730.672 505.884 730.672 505.884 730.672C505.884 730.672 505.884 730.672 505.885 730.672C505.885 730.672 505.885 730.672 505.885 730.672C505.885 730.672 505.885 730.672 505.885 730.672C505.885 730.672 505.885 730.672 505.886 730.672C505.886 730.672 505.886 730.672 505.886 730.672C505.886 730.672 505.886 730.672 505.886 730.672C505.886 730.672 505.886 730.672 505.887 730.672C505.887 730.672 505.887 730.672 505.887 730.672C505.887 730.672 505.887 730.672 505.887 730.672C505.887 730.672 505.887 730.672 505.888 730.672C505.888 730.672 505.888 730.672 505.888 730.672C505.888 730.672 505.888 730.672 505.888 730.672C505.888 730.672 505.889 730.672 505.889 730.672C505.889 730.672 505.889 730.672 505.889 730.672C505.889 730.672 505.889 730.672 505.889 730.672C505.89 730.672 505.89 730.672 505.89 730.672C505.89 730.672 505.89 730.672 505.89 730.672C505.89 730.672 505.89 730.672 505.891 730.672C505.891 730.672 505.891 730.672 505.891 730.672C505.891 730.672 505.891 730.672 505.891 730.672C505.891 730.672 505.892 730.672 505.892 730.672C505.892 730.672 505.892 730.672 505.892 730.672C505.892 730.672 505.892 730.672 505.892 730.672C505.893 730.672 505.893 730.672 505.893 730.672C505.893 730.672 505.893 730.672 505.893 730.672C505.893 730.672 505.894 730.672 505.894 730.672C505.894 730.672 505.894 730.672 505.894 730.672C505.894 730.672 505.894 730.672 505.894 730.672C505.895 730.672 505.895 730.672 505.895 730.672C505.895 730.672 505.895 730.672 505.895 730.672C505.895 730.672 505.896 730.672 505.896 730.672C505.896 730.672 505.896 730.672 505.896 730.672C505.896 730.672 505.896 730.672 505.896 730.672C505.897 730.672 505.897 730.672 505.897 730.672C505.897 730.672 505.897 730.672 505.897 730.672C505.897 730.672 505.898 730.672 505.898 730.672C505.898 730.672 505.898 730.672 505.898 730.672C505.898 730.672 505.898 730.672 505.899 730.672C505.899 730.672 505.899 730.672 505.899 730.672C505.899 730.672 505.899 730.672 505.899 730.672C505.899 730.672 505.9 730.672 505.9 730.672C505.9 730.672 505.9 730.672 505.9 730.672C505.9 730.672 505.9 730.672 505.901 730.672C505.901 730.672 505.901 730.672 505.901 730.672C505.901 730.672 505.901 730.672 505.901 730.672C505.902 730.672 505.902 730.672 505.902 730.672C505.902 730.672 505.902 730.672 505.902 730.672C505.902 730.672 505.903 730.672 505.903 730.672C505.903 730.672 505.903 730.672 505.903 730.672C505.903 730.672 505.903 730.672 505.904 730.672C505.904 730.672 505.904 730.672 505.904 730.672C505.904 730.672 505.904 730.672 505.904 730.672C505.905 730.672 505.905 730.672 505.905 730.672C505.905 730.672 505.905 730.672 505.905 730.672C505.906 730.672 505.906 730.672 505.906 730.672C505.906 730.672 505.906 730.672 505.906 730.672C505.906 730.672 505.907 730.672 505.907 730.672C505.907 730.672 505.907 730.672 505.907 730.672C505.907 730.672 505.907 730.672 505.908 730.672C505.908 730.672 505.908 730.672 505.908 730.672C505.908 730.672 505.908 730.672 505.908 730.672C505.909 730.672 505.909 730.672 505.909 730.672C505.909 730.672 505.909 730.672 505.909 730.672C505.909 730.672 505.91 730.672 505.91 730.672C505.91 730.672 505.91 730.672 505.91 730.672C505.91 730.672 505.911 730.672 505.911 730.672C505.911 730.672 505.911 730.672 505.911 730.672C505.911 730.672 505.911 730.672 505.912 730.672C505.912 730.672 505.912 730.672 505.912 730.672C505.912 730.672 505.912 730.672 505.912 730.672C505.913 730.672 505.913 730.672 505.913 730.672C505.913 730.672 505.913 730.672 505.913 730.672C505.913 730.672 505.914 730.672 505.914 730.672C505.914 730.672 505.914 730.672 505.914 730.672C505.914 730.672 505.915 730.672 505.915 730.672C505.915 730.672 505.915 730.672 505.915 730.672C505.915 730.672 505.915 730.672 505.916 730.672C505.916 730.672 505.916 730.672 505.916 730.672C505.916 730.672 505.916 730.672 505.916 730.672C505.917 730.672 505.917 730.672 505.917 730.672C505.917 730.672 505.917 730.672 505.917 730.672C505.918 730.672 505.918 730.672 505.918 730.672C505.918 730.672 505.918 730.672 505.918 730.672C505.918 730.672 505.919 730.672 505.919 730.672C505.919 730.672 505.919 730.672 505.919 730.672C505.919 730.672 505.919 730.672 505.92 730.672C505.92 730.672 505.92 730.672 505.92 730.672C505.92 730.672 505.92 730.672 505.92 730.672C505.921 730.672 505.921 730.672 505.921 730.672C505.921 730.672 505.921 730.672 505.921 730.672C505.922 730.672 505.922 730.672 505.922 730.672C505.922 730.672 505.922 730.672 505.922 730.672C505.922 730.672 505.923 730.672 505.923 730.672C505.923 730.672 505.923 730.672 505.923 730.672C505.923 730.672 505.923 730.672 505.924 730.672C505.924 730.672 505.924 730.672 505.924 730.672C505.924 730.672 505.924 730.672 505.924 730.672C505.925 730.672 505.925 730.672 505.925 730.672C505.925 730.672 505.925 730.672 505.925 730.672C505.926 730.672 505.926 730.672 505.926 730.672C505.926 730.672 505.926 730.672 505.926 730.672C505.926 730.672 505.927 730.672 505.927 730.672C505.927 730.672 505.927 730.672 505.927 730.672C505.927 730.672 505.927 730.672 505.928 730.672C505.928 730.672 505.928 730.672 505.928 730.672C505.928 730.672 505.928 730.672 505.928 730.672C505.929 730.672 505.929 730.672 505.929 730.672C505.929 730.672 505.929 730.672 505.929 730.672C505.929 730.672 505.93 730.672 505.93 730.672C505.93 730.672 505.93 730.672 505.93 730.672C505.93 730.672 505.93 730.672 505.931 730.672C505.931 730.672 505.931 730.672 505.931 730.672C505.931 730.672 505.931 730.672 505.931 730.672C505.932 730.672 505.932 730.672 505.932 730.672C505.932 730.672 505.932 730.672 505.932 730.672C505.932 730.672 505.932 730.672 505.933 730.672C505.933 730.672 505.933 730.672 505.933 730.672C505.933 730.672 505.933 730.672 505.933 730.672C505.934 730.672 505.934 730.672 505.934 730.672C505.934 730.672 505.934 730.672 505.934 730.672C505.934 730.672 505.935 730.672 505.935 730.672C505.935 730.672 505.935 730.672 505.935 730.672C505.935 730.672 505.935 730.672 505.936 730.672C505.936 730.672 505.936 730.672 505.936 730.672C505.936 730.672 505.936 730.672 505.936 730.672C505.936 730.672 505.937 730.672 505.937 730.672C505.937 730.672 505.937 730.672 505.937 730.672C505.937 730.672 505.937 730.672 505.938 730.672C505.938 730.672 505.938 730.672 505.938 730.672C505.938 730.672 505.938 730.672 505.938 730.672C505.938 730.672 505.939 730.672 505.939 730.672C505.939 730.672 505.939 730.672 505.939 730.672C505.939 730.672 505.939 730.672 505.939 730.672C505.94 730.672 505.94 730.672 505.94 730.672C505.94 730.672 505.94 730.672 505.94 730.672C505.94 730.672 505.94 730.672 505.941 730.672C505.941 730.672 505.941 730.672 505.941 730.672C505.941 730.672 505.941 730.672 505.941 730.672C505.941 730.672 505.942 730.672 505.942 730.672C505.942 730.672 505.942 730.672 505.942 730.672C505.942 730.672 505.942 730.672 505.942 730.672C505.943 730.672 505.943 730.672 505.943 730.672C505.943 730.672 505.943 730.672 505.943 730.672C505.943 730.672 505.943 730.672 505.944 730.672C505.944 730.672 505.944 730.672 505.944 730.672C505.944 730.672 505.944 730.672 505.944 730.672C505.944 730.672 505.944 730.672 505.945 730.672C505.945 730.672 505.945 730.672 505.945 730.672C505.945 730.672 505.945 730.672 505.945 730.672C505.945 730.672 505.945 730.672 505.946 730.672C505.946 730.672 505.946 730.672 505.946 730.672C505.946 730.672 505.946 730.672 505.946 730.672C505.946 730.672 505.947 730.672 505.947 730.672C505.947 730.672 505.947 730.672 505.947 730.672C505.947 730.672 505.947 730.672 505.947 730.672C505.947 730.672 505.947 730.672 505.948 730.672C505.948 730.672 505.948 730.672 505.948 730.672C505.948 730.672 505.948 730.672 505.948 730.672C505.948 730.672 505.948 730.672 505.949 730.672C505.949 730.672 505.949 730.672 505.949 730.672C505.949 730.672 505.949 730.672 505.949 730.672C505.949 730.672 505.949 730.672 505.949 730.672C505.95 730.672 505.95 730.672 505.95 730.672C505.95 730.672 505.95 730.672 505.95 730.672C505.95 730.672 505.95 730.672 505.95 730.672C505.95 730.672 505.951 730.672 505.951 730.672C505.951 730.672 505.951 730.672 505.951 730.672C505.951 730.672 505.951 730.672 505.951 730.672C505.951 730.672 505.951 730.672 505.951 730.672C505.952 730.672 505.952 730.672 505.952 730.672C505.952 730.672 505.952 730.672 505.952 730.672C505.952 730.672 505.952 730.672 505.952 730.672C505.952 730.672 505.952 730.672 505.953 730.672C505.953 730.672 505.953 730.672 505.953 730.672C505.953 730.672 505.953 730.672 505.953 730.672C505.953 730.672 505.953 730.672 505.953 730.672C505.953 730.672 505.953 730.672 505.954 730.672C505.954 730.672 505.954 730.672 505.954 730.672C505.954 730.672 505.954 730.672 505.954 730.672C505.954 730.672 505.954 730.672 505.954 730.672C505.954 730.672 505.954 730.672 505.954 730.672C505.955 730.672 505.955 730.672 505.955 730.672C505.955 730.672 505.955 730.672 505.955 730.672C505.955 730.672 505.955 730.672 505.955 730.672C505.955 730.672 505.955 730.672 505.955 730.672C505.955 730.672 505.955 730.672 505.956 730.672C505.956 730.672 505.956 730.672 505.956 730.672C505.956 730.672 505.956 730.672 505.956 730.672C505.956 730.672 505.956 730.672 505.956 730.672C505.956 730.672 505.956 730.672 505.956 730.672C505.956 730.672 505.956 730.672 505.957 730.672C505.957 730.672 505.957 730.672 505.957 730.672C505.957 730.672 505.957 730.672 505.957 730.672C505.957 730.672 505.957 730.672 505.957 730.672C505.957 730.672 505.957 730.672 505.957 730.672C505.957 730.672 505.957 730.672 505.957 730.672C505.957 730.672 505.957 730.672 505.958 730.672C505.958 730.672 505.958 730.672 505.958 730.672C505.958 730.672 505.958 730.672 505.958 730.672C505.958 730.672 505.958 730.672 505.958 730.672C505.958 730.672 505.958 730.672 505.958 730.672C505.958 730.672 505.958 730.672 505.958 730.672C505.958 730.672 505.958 730.672 505.958 730.672C505.958 730.672 505.958 730.672 505.958 730.672C505.958 730.672 505.959 730.672 505.959 730.672C505.959 730.672 505.959 730.672 505.959 730.672C505.959 730.672 505.959 730.672 505.959 730.672C505.959 730.672 505.959 730.672 505.959 730.672C505.959 730.672 505.959 730.672 505.959 730.672C505.959 730.672 505.959 730.672 505.959 730.672C505.959 730.672 505.959 730.672 505.959 730.672C505.959 730.672 505.959 730.672 505.959 730.672C505.959 730.672 505.959 730.672 505.959 730.672C505.959 730.672 505.959 730.672 505.959 730.672C505.959 730.672 505.959 730.672 505.959 730.672C505.959 730.672 505.959 730.672 505.959 730.672C505.959 730.672 505.96 730.672 505.96 730.672C505.96 730.672 505.96 730.672 505.96 730.672C505.96 730.672 505.96 730.672 505.96 730.672C505.96 730.672 505.96 730.672 505.96 730.672H505.96C505.96 730.672 505.96 730.672 505.96 730.672C505.96 730.672 505.96 730.672 505.96 730.672C505.96 730.672 505.96 698.672 505.96 666.672C505.96 666.672 505.96 666.672 505.96 666.672C505.96 666.672 505.96 666.672 505.96 666.672H505.96C505.96 666.672 505.96 666.672 505.96 666.672C505.96 666.672 505.96 666.672 505.96 666.672C505.96 666.672 505.96 666.672 505.96 666.672C505.96 666.672 505.96 666.672 505.96 666.672C505.959 666.672 505.959 666.672 505.959 666.672C505.959 666.672 505.959 666.672 505.959 666.672C505.959 666.672 505.959 666.672 505.959 666.672C505.959 666.672 505.959 666.672 505.959 666.672C505.959 666.672 505.959 666.672 505.959 666.672C505.959 666.672 505.959 666.672 505.959 666.672C505.959 666.672 505.959 666.672 505.959 666.672C505.959 666.672 505.959 666.672 505.959 666.672C505.959 666.672 505.959 666.672 505.959 666.672C505.959 666.672 505.959 666.672 505.959 666.672C505.959 666.672 505.959 666.672 505.959 666.672C505.958 666.672 505.958 666.672 505.958 666.672C505.958 666.672 505.958 666.672 505.958 666.672C505.958 666.672 505.958 666.672 505.958 666.672C505.958 666.672 505.958 666.672 505.958 666.672C505.958 666.672 505.958 666.672 505.958 666.672C505.958 666.672 505.958 666.672 505.958 666.672C505.958 666.672 505.958 666.672 505.958 666.672C505.957 666.672 505.957 666.672 505.957 666.672C505.957 666.672 505.957 666.672 505.957 666.672C505.957 666.672 505.957 666.672 505.957 666.672C505.957 666.672 505.957 666.672 505.957 666.672C505.957 666.672 505.957 666.672 505.957 666.672C505.956 666.672 505.956 666.672 505.956 666.672C505.956 666.672 505.956 666.672 505.956 666.672C505.956 666.672 505.956 666.672 505.956 666.672C505.956 666.672 505.956 666.672 505.956 666.672C505.956 666.672 505.955 666.672 505.955 666.672C505.955 666.672 505.955 666.672 505.955 666.672C505.955 666.672 505.955 666.672 505.955 666.672C505.955 666.672 505.955 666.672 505.955 666.672C505.955 666.672 505.954 666.672 505.954 666.672C505.954 666.672 505.954 666.672 505.954 666.672C505.954 666.672 505.954 666.672 505.954 666.672C505.954 666.672 505.954 666.672 505.954 666.672C505.953 666.672 505.953 666.672 505.953 666.672C505.953 666.672 505.953 666.672 505.953 666.672C505.953 666.672 505.953 666.672 505.953 666.672C505.952 666.672 505.952 666.672 505.952 666.672C505.952 666.672 505.952 666.672 505.952 666.672C505.952 666.672 505.952 666.672 505.952 666.672C505.951 666.672 505.951 666.672 505.951 666.672C505.951 666.672 505.951 666.672 505.951 666.672C505.951 666.672 505.951 666.672 505.95 666.672C505.95 666.672 505.95 666.672 505.95 666.672C505.95 666.672 505.95 666.672 505.95 666.672C505.95 666.672 505.949 666.672 505.949 666.672C505.949 666.672 505.949 666.672 505.949 666.672C505.949 666.672 505.949 666.672 505.949 666.672C505.948 666.672 505.948 666.672 505.948 666.672C505.948 666.672 505.948 666.672 505.948 666.672C505.948 666.672 505.947 666.672 505.947 666.672C505.947 666.672 505.947 666.672 505.947 666.672C505.947 666.672 505.946 666.672 505.946 666.672C505.946 666.672 505.946 666.672 505.946 666.672C505.946 666.672 505.946 666.672 505.945 666.672C505.945 666.672 505.945 666.672 505.945 666.672C505.945 666.672 505.945 666.672 505.944 666.672C505.944 666.672 505.944 666.672 505.944 666.672C505.944 666.672 505.944 666.672 505.943 666.672C505.943 666.672 505.943 666.672 505.943 666.672C505.943 666.672 505.943 666.672 505.942 666.672C505.942 666.672 505.942 666.672 505.942 666.672C505.942 666.672 505.942 666.672 505.941 666.672C505.941 666.672 505.941 666.672 505.941 666.672C505.941 666.672 505.94 666.672 505.94 666.672C505.94 666.672 505.94 666.672 505.94 666.672C505.939 666.672 505.939 666.672 505.939 666.672C505.939 666.672 505.939 666.672 505.939 666.672C505.938 666.672 505.938 666.672 505.938 666.672C505.938 666.672 505.938 666.672 505.937 666.672C505.937 666.672 505.937 666.672 505.937 666.672C505.936 666.672 505.936 666.672 505.936 666.672C505.936 666.672 505.936 666.672 505.935 666.672C505.935 666.672 505.935 666.672 505.935 666.672C505.935 666.672 505.934 666.672 505.934 666.672C505.934 666.672 505.934 666.672 505.933 666.672C505.933 666.672 505.933 666.672 505.933 666.672C505.933 666.672 505.932 666.672 505.932 666.672C505.932 666.672 505.932 666.672 505.931 666.672C505.931 666.672 505.931 666.672 505.931 666.672C505.931 666.672 505.93 666.672 505.93 666.672C505.93 666.672 505.93 666.672 505.929 666.672C505.929 666.672 505.929 666.672 505.929 666.672C505.928 666.672 505.928 666.672 505.928 666.672C505.928 666.672 505.927 666.672 505.927 666.672C505.927 666.672 505.927 666.672 505.926 666.672C505.926 666.672 505.926 666.672 505.926 666.672C505.925 666.672 505.925 666.672 505.925 666.672C505.925 666.672 505.924 666.672 505.924 666.672C505.924 666.672 505.923 666.672 505.923 666.672C505.923 666.672 505.923 666.672 505.922 666.672C505.922 666.672 505.922 666.672 505.922 666.672C505.921 666.672 505.921 666.672 505.921 666.672C505.92 666.672 505.92 666.672 505.92 666.672C505.92 666.672 505.919 666.672 505.919 666.672C505.919 666.672 505.919 666.672 505.918 666.672C505.918 666.672 505.918 666.672 505.917 666.672C505.917 666.672 505.917 666.672 505.916 666.672C505.916 666.672 505.916 666.672 505.916 666.672V730.672C505.916 730.672 505.916 730.672 505.916 730.672C505.917 730.672 505.917 730.672 505.917 730.672C505.918 730.672 505.918 730.672 505.918 730.672C505.919 730.672 505.919 730.672 505.919 730.672C505.919 730.672 505.92 730.672 505.92 730.672C505.92 730.672 505.92 730.672 505.921 730.672C505.921 730.672 505.921 730.672 505.922 730.672C505.922 730.672 505.922 730.672 505.922 730.672C505.923 730.672 505.923 730.672 505.923 730.672C505.923 730.672 505.924 730.672 505.924 730.672C505.924 730.672 505.925 730.672 505.925 730.672C505.925 730.672 505.925 730.672 505.926 730.672C505.926 730.672 505.926 730.672 505.926 730.672C505.927 730.672 505.927 730.672 505.927 730.672C505.927 730.672 505.928 730.672 505.928 730.672C505.928 730.672 505.928 730.672 505.929 730.672C505.929 730.672 505.929 730.672 505.929 730.672C505.93 730.672 505.93 730.672 505.93 730.672C505.93 730.672 505.931 730.672 505.931 730.672C505.931 730.672 505.931 730.672 505.931 730.672C505.932 730.672 505.932 730.672 505.932 730.672C505.932 730.672 505.933 730.672 505.933 730.672C505.933 730.672 505.933 730.672 505.933 730.672C505.934 730.672 505.934 730.672 505.934 730.672C505.934 730.672 505.935 730.672 505.935 730.672C505.935 730.672 505.935 730.672 505.935 730.672C505.936 730.672 505.936 730.672 505.936 730.672C505.936 730.672 505.936 730.672 505.937 730.672C505.937 730.672 505.937 730.672 505.937 730.672C505.938 730.672 505.938 730.672 505.938 730.672C505.938 730.672 505.938 730.672 505.939 730.672C505.939 730.672 505.939 730.672 505.939 730.672C505.939 730.672 505.939 730.672 505.94 730.672C505.94 730.672 505.94 730.672 505.94 730.672C505.94 730.672 505.941 730.672 505.941 730.672C505.941 730.672 505.941 730.672 505.941 730.672C505.942 730.672 505.942 730.672 505.942 730.672C505.942 730.672 505.942 730.672 505.942 730.672C505.943 730.672 505.943 730.672 505.943 730.672C505.943 730.672 505.943 730.672 505.943 730.672C505.944 730.672 505.944 730.672 505.944 730.672C505.944 730.672 505.944 730.672 505.944 730.672C505.945 730.672 505.945 730.672 505.945 730.672C505.945 730.672 505.945 730.672 505.945 730.672C505.946 730.672 505.946 730.672 505.946 730.672C505.946 730.672 505.946 730.672 505.946 730.672C505.946 730.672 505.947 730.672 505.947 730.672C505.947 730.672 505.947 730.672 505.947 730.672C505.947 730.672 505.948 730.672 505.948 730.672C505.948 730.672 505.948 730.672 505.948 730.672C505.948 730.672 505.948 730.672 505.949 730.672C505.949 730.672 505.949 730.672 505.949 730.672C505.949 730.672 505.949 730.672 505.949 730.672C505.949 730.672 505.95 730.672 505.95 730.672C505.95 730.672 505.95 730.672 505.95 730.672C505.95 730.672 505.95 730.672 505.95 730.672C505.951 730.672 505.951 730.672 505.951 730.672C505.951 730.672 505.951 730.672 505.951 730.672C505.951 730.672 505.951 730.672 505.952 730.672C505.952 730.672 505.952 730.672 505.952 730.672C505.952 730.672 505.952 730.672 505.952 730.672C505.952 730.672 505.952 730.672 505.953 730.672C505.953 730.672 505.953 730.672 505.953 730.672C505.953 730.672 505.953 730.672 505.953 730.672C505.953 730.672 505.953 730.672 505.954 730.672C505.954 730.672 505.954 730.672 505.954 730.672C505.954 730.672 505.954 730.672 505.954 730.672C505.954 730.672 505.954 730.672 505.954 730.672C505.954 730.672 505.955 730.672 505.955 730.672C505.955 730.672 505.955 730.672 505.955 730.672C505.955 730.672 505.955 730.672 505.955 730.672C505.955 730.672 505.955 730.672 505.955 730.672C505.955 730.672 505.956 730.672 505.956 730.672C505.956 730.672 505.956 730.672 505.956 730.672C505.956 730.672 505.956 730.672 505.956 730.672C505.956 730.672 505.956 730.672 505.956 730.672C505.956 730.672 505.956 730.672 505.957 730.672C505.957 730.672 505.957 730.672 505.957 730.672C505.957 730.672 505.957 730.672 505.957 730.672C505.957 730.672 505.957 730.672 505.957 730.672C505.957 730.672 505.957 730.672 505.957 730.672C505.957 730.672 505.957 730.672 505.958 730.672C505.958 730.672 505.958 730.672 505.958 730.672C505.958 730.672 505.958 730.672 505.958 730.672C505.958 730.672 505.958 730.672 505.958 730.672C505.958 730.672 505.958 730.672 505.958 730.672C505.958 730.672 505.958 730.672 505.958 730.672C505.958 730.672 505.958 730.672 505.958 730.672C505.958 730.672 505.958 730.672 505.959 730.672C505.959 730.672 505.959 730.672 505.959 730.672C505.959 730.672 505.959 730.672 505.959 730.672C505.959 730.672 505.959 730.672 505.959 730.672C505.959 730.672 505.959 730.672 505.959 730.672C505.959 730.672 505.959 730.672 505.959 730.672C505.959 730.672 505.959 730.672 505.959 730.672C505.959 730.672 505.959 730.672 505.959 730.672C505.959 730.672 505.959 730.672 505.959 730.672C505.959 730.672 505.959 730.672 505.959 730.672C505.959 730.672 505.959 730.672 505.959 730.672C505.959 730.672 505.959 730.672 505.96 730.672C505.96 730.672 505.96 730.672 505.96 730.672C505.96 730.672 505.96 730.672 505.96 730.672C505.96 730.672 505.96 730.672 505.96 730.672C505.96 730.672 505.96 730.672 505.96 730.672H505.96C505.96 730.672 505.96 730.672 505.96 730.672C505.96 730.672 505.96 730.672 505.96 730.672C505.96 698.672 505.96 666.672 505.96 666.672C505.96 666.672 505.96 666.672 505.96 666.672C505.96 666.672 505.96 666.672 505.96 666.672H505.96C505.96 666.672 505.96 666.672 505.96 666.672C505.96 666.672 505.96 666.672 505.96 666.672C505.96 666.672 505.96 666.672 505.96 666.672C505.96 666.672 505.959 666.672 505.959 666.672C505.959 666.672 505.959 666.672 505.959 666.672C505.959 666.672 505.959 666.672 505.959 666.672C505.959 666.672 505.959 666.672 505.959 666.672C505.959 666.672 505.959 666.672 505.959 666.672C505.959 666.672 505.959 666.672 505.959 666.672C505.959 666.672 505.959 666.672 505.959 666.672C505.959 666.672 505.959 666.672 505.959 666.672C505.959 666.672 505.959 666.672 505.959 666.672C505.959 666.672 505.959 666.672 505.959 666.672C505.959 666.672 505.959 666.672 505.959 666.672C505.959 666.672 505.959 666.672 505.959 666.672C505.959 666.672 505.958 666.672 505.958 666.672C505.958 666.672 505.958 666.672 505.958 666.672C505.958 666.672 505.958 666.672 505.958 666.672C505.958 666.672 505.958 666.672 505.958 666.672C505.958 666.672 505.958 666.672 505.958 666.672C505.958 666.672 505.958 666.672 505.958 666.672C505.958 666.672 505.958 666.672 505.958 666.672C505.958 666.672 505.958 666.672 505.958 666.672C505.957 666.672 505.957 666.672 505.957 666.672C505.957 666.672 505.957 666.672 505.957 666.672C505.957 666.672 505.957 666.672 505.957 666.672C505.957 666.672 505.957 666.672 505.957 666.672C505.957 666.672 505.957 666.672 505.957 666.672C505.957 666.672 505.957 666.672 505.957 666.672C505.956 666.672 505.956 666.672 505.956 666.672C505.956 666.672 505.956 666.672 505.956 666.672C505.956 666.672 505.956 666.672 505.956 666.672C505.956 666.672 505.956 666.672 505.956 666.672C505.956 666.672 505.956 666.672 505.956 666.672C505.955 666.672 505.955 666.672 505.955 666.672C505.955 666.672 505.955 666.672 505.955 666.672C505.955 666.672 505.955 666.672 505.955 666.672C505.955 666.672 505.955 666.672 505.955 666.672C505.955 666.672 505.955 666.672 505.954 666.672C505.954 666.672 505.954 666.672 505.954 666.672C505.954 666.672 505.954 666.672 505.954 666.672C505.954 666.672 505.954 666.672 505.954 666.672C505.954 666.672 505.954 666.672 505.954 666.672C505.953 666.672 505.953 666.672 505.953 666.672C505.953 666.672 505.953 666.672 505.953 666.672C505.953 666.672 505.953 666.672 505.953 666.672C505.953 666.672 505.953 666.672 505.953 666.672C505.952 666.672 505.952 666.672 505.952 666.672C505.952 666.672 505.952 666.672 505.952 666.672C505.952 666.672 505.952 666.672 505.952 666.672C505.952 666.672 505.952 666.672 505.951 666.672C505.951 666.672 505.951 666.672 505.951 666.672C505.951 666.672 505.951 666.672 505.951 666.672C505.951 666.672 505.951 666.672 505.951 666.672C505.951 666.672 505.95 666.672 505.95 666.672C505.95 666.672 505.95 666.672 505.95 666.672C505.95 666.672 505.95 666.672 505.95 666.672C505.95 666.672 505.95 666.672 505.949 666.672C505.949 666.672 505.949 666.672 505.949 666.672C505.949 666.672 505.949 666.672 505.949 666.672C505.949 666.672 505.949 666.672 505.949 666.672C505.948 666.672 505.948 666.672 505.948 666.672C505.948 666.672 505.948 666.672 505.948 666.672C505.948 666.672 505.948 666.672 505.948 666.672C505.947 666.672 505.947 666.672 505.947 666.672C505.947 666.672 505.947 666.672 505.947 666.672C505.947 666.672 505.947 666.672 505.947 666.672C505.947 666.672 505.946 666.672 505.946 666.672C505.946 666.672 505.946 666.672 505.946 666.672C505.946 666.672 505.946 666.672 505.946 666.672C505.945 666.672 505.945 666.672 505.945 666.672C505.945 666.672 505.945 666.672 505.945 666.672C505.945 666.672 505.945 666.672 505.945 666.672C505.944 666.672 505.944 666.672 505.944 666.672C505.944 666.672 505.944 666.672 505.944 666.672C505.944 666.672 505.944 666.672 505.944 666.672C505.943 666.672 505.943 666.672 505.943 666.672C505.943 666.672 505.943 666.672 505.943 666.672C505.943 666.672 505.943 666.672 505.942 666.672C505.942 666.672 505.942 666.672 505.942 666.672C505.942 666.672 505.942 666.672 505.942 666.672C505.942 666.672 505.941 666.672 505.941 666.672C505.941 666.672 505.941 666.672 505.941 666.672C505.941 666.672 505.941 666.672 505.941 666.672C505.94 666.672 505.94 666.672 505.94 666.672C505.94 666.672 505.94 666.672 505.94 666.672C505.94 666.672 505.94 666.672 505.939 666.672C505.939 666.672 505.939 666.672 505.939 666.672C505.939 666.672 505.939 666.672 505.939 666.672C505.939 666.672 505.938 666.672 505.938 666.672C505.938 666.672 505.938 666.672 505.938 666.672C505.938 666.672 505.938 666.672 505.938 666.672C505.937 666.672 505.937 666.672 505.937 666.672C505.937 666.672 505.937 666.672 505.937 666.672C505.937 666.672 505.936 666.672 505.936 666.672C505.936 666.672 505.936 666.672 505.936 666.672C505.936 666.672 505.936 666.672 505.936 666.672C505.935 666.672 505.935 666.672 505.935 666.672C505.935 666.672 505.935 666.672 505.935 666.672C505.935 666.672 505.934 666.672 505.934 666.672C505.934 666.672 505.934 666.672 505.934 666.672C505.934 666.672 505.934 666.672 505.933 666.672C505.933 666.672 505.933 666.672 505.933 666.672C505.933 666.672 505.933 666.672 505.933 666.672C505.932 666.672 505.932 666.672 505.932 666.672C505.932 666.672 505.932 666.672 505.932 666.672C505.932 666.672 505.932 666.672 505.931 666.672C505.931 666.672 505.931 666.672 505.931 666.672C505.931 666.672 505.931 666.672 505.931 666.672C505.93 666.672 505.93 666.672 505.93 666.672C505.93 666.672 505.93 666.672 505.93 666.672C505.93 666.672 505.929 666.672 505.929 666.672C505.929 666.672 505.929 666.672 505.929 666.672C505.929 666.672 505.929 666.672 505.928 666.672C505.928 666.672 505.928 666.672 505.928 666.672C505.928 666.672 505.928 666.672 505.928 666.672C505.927 666.672 505.927 666.672 505.927 666.672C505.927 666.672 505.927 666.672 505.927 666.672C505.927 666.672 505.926 666.672 505.926 666.672C505.926 666.672 505.926 666.672 505.926 666.672C505.926 666.672 505.926 666.672 505.925 666.672C505.925 666.672 505.925 666.672 505.925 666.672C505.925 666.672 505.925 666.672 505.924 666.672C505.924 666.672 505.924 666.672 505.924 666.672C505.924 666.672 505.924 666.672 505.924 666.672C505.923 666.672 505.923 666.672 505.923 666.672C505.923 666.672 505.923 666.672 505.923 666.672C505.923 666.672 505.922 666.672 505.922 666.672C505.922 666.672 505.922 666.672 505.922 666.672C505.922 666.672 505.922 666.672 505.921 666.672C505.921 666.672 505.921 666.672 505.921 666.672C505.921 666.672 505.921 666.672 505.92 666.672C505.92 666.672 505.92 666.672 505.92 666.672C505.92 666.672 505.92 666.672 505.92 666.672C505.919 666.672 505.919 666.672 505.919 666.672C505.919 666.672 505.919 666.672 505.919 666.672C505.919 666.672 505.918 666.672 505.918 666.672C505.918 666.672 505.918 666.672 505.918 666.672C505.918 666.672 505.918 666.672 505.917 666.672C505.917 666.672 505.917 666.672 505.917 666.672C505.917 666.672 505.917 666.672 505.916 666.672C505.916 666.672 505.916 666.672 505.916 666.672C505.916 666.672 505.916 666.672 505.916 666.672C505.915 666.672 505.915 666.672 505.915 666.672C505.915 666.672 505.915 666.672 505.915 666.672C505.915 666.672 505.914 666.672 505.914 666.672C505.914 666.672 505.914 666.672 505.914 666.672C505.914 666.672 505.913 666.672 505.913 666.672C505.913 666.672 505.913 666.672 505.913 666.672C505.913 666.672 505.913 666.672 505.912 666.672C505.912 666.672 505.912 666.672 505.912 666.672C505.912 666.672 505.912 666.672 505.912 666.672C505.911 666.672 505.911 666.672 505.911 666.672C505.911 666.672 505.911 666.672 505.911 666.672C505.911 666.672 505.91 666.672 505.91 666.672C505.91 666.672 505.91 666.672 505.91 666.672C505.91 666.672 505.909 666.672 505.909 666.672C505.909 666.672 505.909 666.672 505.909 666.672C505.909 666.672 505.909 666.672 505.908 666.672C505.908 666.672 505.908 666.672 505.908 666.672C505.908 666.672 505.908 666.672 505.908 666.672C505.907 666.672 505.907 666.672 505.907 666.672C505.907 666.672 505.907 666.672 505.907 666.672C505.907 666.672 505.906 666.672 505.906 666.672C505.906 666.672 505.906 666.672 505.906 666.672C505.906 666.672 505.906 666.672 505.905 666.672C505.905 666.672 505.905 666.672 505.905 666.672C505.905 666.672 505.905 666.672 505.904 666.672C505.904 666.672 505.904 666.672 505.904 666.672C505.904 666.672 505.904 666.672 505.904 666.672C505.903 666.672 505.903 666.672 505.903 666.672C505.903 666.672 505.903 666.672 505.903 666.672C505.903 666.672 505.902 666.672 505.902 666.672C505.902 666.672 505.902 666.672 505.902 666.672C505.902 666.672 505.902 666.672 505.901 666.672C505.901 666.672 505.901 666.672 505.901 666.672C505.901 666.672 505.901 666.672 505.901 666.672C505.9 666.672 505.9 666.672 505.9 666.672C505.9 666.672 505.9 666.672 505.9 666.672C505.9 666.672 505.899 666.672 505.899 666.672C505.899 666.672 505.899 666.672 505.899 666.672C505.899 666.672 505.899 666.672 505.899 666.672C505.898 666.672 505.898 666.672 505.898 666.672C505.898 666.672 505.898 666.672 505.898 666.672C505.898 666.672 505.897 666.672 505.897 666.672C505.897 666.672 505.897 666.672 505.897 666.672C505.897 666.672 505.897 666.672 505.896 666.672C505.896 666.672 505.896 666.672 505.896 666.672C505.896 666.672 505.896 666.672 505.896 666.672C505.896 666.672 505.895 666.672 505.895 666.672C505.895 666.672 505.895 666.672 505.895 666.672C505.895 666.672 505.895 666.672 505.894 666.672C505.894 666.672 505.894 666.672 505.894 666.672C505.894 666.672 505.894 666.672 505.894 666.672C505.894 666.672 505.893 666.672 505.893 666.672C505.893 666.672 505.893 666.672 505.893 666.672C505.893 666.672 505.893 666.672 505.892 666.672C505.892 666.672 505.892 666.672 505.892 666.672C505.892 666.672 505.892 666.672 505.892 666.672C505.892 666.672 505.891 666.672 505.891 666.672C505.891 666.672 505.891 666.672 505.891 666.672C505.891 666.672 505.891 666.672 505.891 666.672C505.89 666.672 505.89 666.672 505.89 666.672C505.89 666.672 505.89 666.672 505.89 666.672C505.89 666.672 505.89 666.672 505.889 666.672C505.889 666.672 505.889 666.672 505.889 666.672C505.889 666.672 505.889 666.672 505.889 666.672C505.889 666.672 505.888 666.672 505.888 666.672C505.888 666.672 505.888 666.672 505.888 666.672C505.888 666.672 505.888 666.672 505.888 666.672C505.887 666.672 505.887 666.672 505.887 666.672C505.887 666.672 505.887 666.672 505.887 666.672C505.887 666.672 505.887 666.672 505.887 666.672C505.886 666.672 505.886 666.672 505.886 666.672C505.886 666.672 505.886 666.672 505.886 666.672C505.886 666.672 505.886 666.672 505.886 666.672C505.885 666.672 505.885 666.672 505.885 666.672C505.885 666.672 505.885 666.672 505.885 666.672C505.885 666.672 505.885 666.672 505.885 666.672C505.884 666.672 505.884 666.672 505.884 666.672C505.884 666.672 505.884 666.672 505.884 666.672C505.884 666.672 505.884 666.672 505.884 666.672C505.883 666.672 505.883 666.672 505.883 666.672C505.883 666.672 505.883 666.672 505.883 666.672C505.883 666.672 505.883 666.672 505.883 666.672C505.883 666.672 505.882 666.672 505.882 666.672C505.882 666.672 505.882 666.672 505.882 666.672C505.882 666.672 505.882 666.672 505.882 666.672C505.882 666.672 505.882 666.672 505.881 666.672C505.881 666.672 505.881 666.672 505.881 666.672C505.881 666.672 505.881 666.672 505.881 666.672C505.881 666.672 505.881 666.672 505.881 666.672C505.88 666.672 505.88 666.672 505.88 666.672C505.88 666.672 505.88 666.672 505.88 666.672C505.88 666.672 505.88 666.672 505.88 666.672C505.88 666.672 505.88 666.672 505.879 666.672C505.879 666.672 505.879 666.672 505.879 666.672C505.879 666.672 505.879 666.672 505.879 666.672C505.879 666.672 505.879 666.672 505.879 666.672C505.879 666.672 505.878 666.672 505.878 666.672C505.878 666.672 505.878 666.672 505.878 666.672C505.878 666.672 505.878 666.672 505.878 666.672C505.878 666.672 505.878 666.672 505.878 666.672C505.878 666.672 505.877 666.672 505.877 666.672C505.877 666.672 505.877 666.672 505.877 666.672C505.877 666.672 505.877 666.672 505.877 666.672C505.877 666.672 505.877 666.672 505.877 666.672C505.877 666.672 505.877 666.672 505.876 666.672C505.876 666.672 505.876 666.672 505.876 666.672C505.876 666.672 505.876 666.672 505.876 666.672C505.876 666.672 505.876 666.672 505.876 666.672C505.876 666.672 505.876 666.672 505.876 666.672C505.876 666.672 505.875 666.672 505.875 666.672C505.875 666.672 505.875 666.672 505.875 666.672C505.875 666.672 505.875 666.672 505.875 666.672C505.875 666.672 505.875 666.672 505.875 666.672C505.875 666.672 505.875 666.672 505.875 666.672C505.875 666.672 505.875 666.672 505.874 666.672C505.874 666.672 505.874 666.672 505.874 666.672C505.874 666.672 505.874 666.672 505.874 666.672C505.874 666.672 505.874 666.672 505.874 666.672C505.874 666.672 505.874 666.672 505.874 666.672C505.874 666.672 505.874 666.672 505.874 666.672C505.874 666.672 505.874 666.672 505.873 666.672C505.873 666.672 505.873 666.672 505.873 666.672C505.873 666.672 505.873 666.672 505.873 666.672C505.873 666.672 505.873 666.672 505.873 666.672C505.873 666.672 505.873 666.672 505.873 666.672C505.873 666.672 505.873 666.672 505.873 666.672C505.873 666.672 505.873 666.672 505.873 666.672C505.873 666.672 505.873 666.672 505.873 666.672C505.873 666.672 505.872 666.672 505.872 666.672C505.872 666.672 505.872 666.672 505.872 666.672C505.872 666.672 505.872 666.672 505.872 666.672C505.872 666.672 505.872 666.672 505.872 666.672C505.872 666.672 505.872 666.672 505.872 666.672C505.872 666.672 505.872 666.672 505.872 666.672C505.872 666.672 505.872 666.672 505.872 666.672C505.872 666.672 505.872 666.672 505.872 666.672C505.872 666.672 505.872 666.672 505.872 666.672C505.872 666.672 505.872 666.672 505.872 666.672C505.872 666.672 505.872 666.672 505.872 666.672C505.872 666.672 505.872 666.672 505.872 666.672C505.872 666.672 505.872 666.672 505.872 666.672C505.872 666.672 505.872 666.672 505.872 666.672C505.872 666.672 505.872 666.672 505.872 666.672H505.871C505.871 666.672 505.871 666.672 505.871 666.672C505.871 666.672 505.871 666.672 505.871 666.672C505.871 666.672 505.871 698.672 505.871 730.672C505.871 730.672 505.871 730.672 505.871 730.672C505.871 730.672 505.871 730.672 505.871 730.672H505.871C505.872 730.672 505.872 730.672 505.872 730.672C505.872 730.672 505.872 730.672 505.872 730.672C505.872 730.672 505.872 730.672 505.872 730.672C505.872 730.672 505.872 730.672 505.872 730.672C505.872 730.672 505.872 730.672 505.872 730.672C505.872 730.672 505.872 730.672 505.872 730.672C505.872 730.672 505.872 730.672 505.872 730.672C505.872 730.672 505.872 730.672 505.872 730.672C505.872 730.672 505.872 730.672 505.872 730.672C505.872 730.672 505.872 730.672 505.872 730.672C505.872 730.672 505.872 730.672 505.872 730.672C505.872 730.672 505.872 730.672 505.872 730.672C505.872 730.672 505.872 730.672 505.872 730.672C505.872 730.672 505.872 730.672 505.872 730.672C505.873 730.672 505.873 730.672 505.873 730.672C505.873 730.672 505.873 730.672 505.873 730.672C505.873 730.672 505.873 730.672 505.873 730.672C505.873 730.672 505.873 730.672 505.873 730.672C505.873 730.672 505.873 730.672 505.873 730.672C505.873 730.672 505.873 730.672 505.873 730.672C505.873 730.672 505.873 730.672 505.873 730.672C505.874 730.672 505.874 730.672 505.874 730.672C505.874 730.672 505.874 730.672 505.874 730.672C505.874 730.672 505.874 730.672 505.874 730.672C505.874 730.672 505.874 730.672 505.874 730.672C505.874 730.672 505.874 730.672 505.874 730.672C505.874 730.672 505.875 730.672 505.875 730.672C505.875 730.672 505.875 730.672 505.875 730.672C505.875 730.672 505.875 730.672 505.875 730.672C505.875 730.672 505.875 730.672 505.875 730.672C505.875 730.672 505.875 730.672 505.875 730.672C505.876 730.672 505.876 730.672 505.876 730.672C505.876 730.672 505.876 730.672 505.876 730.672C505.876 730.672 505.876 730.672 505.876 730.672C505.876 730.672 505.876 730.672 505.877 730.672C505.877 730.672 505.877 730.672 505.877 730.672C505.877 730.672 505.877 730.672 505.877 730.672C505.877 730.672 505.877 730.672 505.877 730.672C505.877 730.672 505.878 730.672 505.878 730.672C505.878 730.672 505.878 730.672 505.878 730.672C505.878 730.672 505.878 730.672 505.878 730.672C505.878 730.672 505.878 730.672 505.879 730.672C505.879 730.672 505.879 730.672 505.879 730.672C505.879 730.672 505.879 730.672 505.879 730.672C505.879 730.672 505.879 730.672 505.88 730.672C505.88 730.672 505.88 730.672 505.88 730.672C505.88 730.672 505.88 730.672 505.88 730.672C505.88 730.672 505.881 730.672 505.881 730.672C505.881 730.672 505.881 730.672 505.881 730.672C505.881 730.672 505.881 730.672 505.881 730.672C505.882 730.672 505.882 730.672 505.882 730.672C505.882 730.672 505.882 730.672 505.882 730.672C505.882 730.672 505.882 730.672 505.883 730.672C505.883 730.672 505.883 730.672 505.883 730.672C505.883 730.672 505.883 730.672 505.883 730.672C505.884 730.672 505.884 730.672 505.884 730.672C505.884 730.672 505.884 730.672 505.884 730.672C505.885 730.672 505.885 730.672 505.885 730.672C505.885 730.672 505.885 730.672 505.885 730.672C505.885 730.672 505.886 730.672 505.886 730.672C505.886 730.672 505.886 730.672 505.886 730.672C505.886 730.672 505.887 730.672 505.887 730.672C505.887 730.672 505.887 730.672 505.887 730.672C505.887 730.672 505.888 730.672 505.888 730.672C505.888 730.672 505.888 730.672 505.888 730.672C505.888 730.672 505.889 730.672 505.889 730.672C505.889 730.672 505.889 730.672 505.889 730.672C505.889 730.672 505.89 730.672 505.89 730.672C505.89 730.672 505.89 730.672 505.89 730.672C505.891 730.672 505.891 730.672 505.891 730.672C505.891 730.672 505.891 730.672 505.891 730.672C505.892 730.672 505.892 730.672 505.892 730.672C505.892 730.672 505.892 730.672 505.893 730.672C505.893 730.672 505.893 730.672 505.893 730.672C505.893 730.672 505.894 730.672 505.894 730.672C505.894 730.672 505.894 730.672 505.894 730.672C505.895 730.672 505.895 730.672 505.895 730.672C505.895 730.672 505.895 730.672 505.896 730.672C505.896 730.672 505.896 730.672 505.896 730.672C505.897 730.672 505.897 730.672 505.897 730.672C505.897 730.672 505.897 730.672 505.898 730.672C505.898 730.672 505.898 730.672 505.898 730.672C505.899 730.672 505.899 730.672 505.899 730.672C505.899 730.672 505.899 730.672 505.9 730.672C505.9 730.672 505.9 730.672 505.9 730.672C505.901 730.672 505.901 730.672 505.901 730.672C505.901 730.672 505.902 730.672 505.902 730.672C505.902 730.672 505.902 730.672 505.903 730.672C505.903 730.672 505.903 730.672 505.903 730.672C505.904 730.672 505.904 730.672 505.904 730.672C505.904 730.672 505.905 730.672 505.905 730.672C505.905 730.672 505.905 730.672 505.906 730.672C505.906 730.672 505.906 730.672 505.906 730.672C505.907 730.672 505.907 730.672 505.907 730.672C505.907 730.672 505.908 730.672 505.908 730.672C505.908 730.672 505.908 730.672 505.909 730.672C505.909 730.672 505.909 730.672 505.91 730.672C505.91 730.672 505.91 730.672 505.91 730.672C505.911 730.672 505.911 730.672 505.911 730.672C505.911 730.672 505.912 730.672 505.912 730.672C505.912 730.672 505.913 730.672 505.913 730.672C505.913 730.672 505.914 730.672 505.914 730.672C505.914 730.672 505.914 730.672 505.915 730.672C505.915 730.672 505.915 730.672 505.916 730.672V666.672ZM506.201 666.673C476.982 666.413 453.203 659.384 434.252 646.886L399.017 700.313C429.905 720.684 466.206 730.319 505.631 730.67L506.201 666.673ZM434.195 646.848C415.085 634.304 399.649 615.894 388.274 590.124L329.724 615.968C345.409 651.502 368.345 680.179 399.074 700.351L434.195 646.848ZM388.274 590.124C376.975 564.526 370.743 532.394 370.743 492.82H306.743C306.743 538.858 313.963 580.261 329.724 615.968L388.274 590.124ZM370.743 492.82V402.698H306.743V492.82H370.743ZM370.743 402.698C370.743 363.483 376.958 331.553 388.286 305.826L329.712 280.036C313.98 315.767 306.743 356.912 306.743 402.698H370.743ZM388.274 305.853C399.618 280.153 415.064 261.872 434.234 249.482L399.493 195.732C368.519 215.752 345.44 244.405 329.724 280.009L388.274 305.853ZM434.234 249.482C453.437 237.07 476.876 230.223 505.916 230.223V166.223C466.312 166.223 430.434 175.733 399.493 195.732L434.234 249.482ZM505.916 230.223C535.011 230.223 558.406 237.02 577.539 249.445L612.396 195.769C581.385 175.631 545.463 166.223 505.916 166.223V230.223ZM577.597 249.482C596.767 261.872 612.213 280.153 623.557 305.853L682.107 280.009C666.392 244.405 643.312 215.752 612.338 195.732L577.597 249.482ZM623.557 305.853C634.867 331.477 641.089 363.466 641.089 402.698H705.089C705.089 356.929 697.856 315.69 682.107 280.009L623.557 305.853ZM641.089 402.698V492.82H705.089V402.698H641.089Z" fill="black"/>
<path d="M469.529 578.815H603.298L798.218 838.709H664.449L469.529 578.815Z" fill="black"/>
</g>
</svg>
