<svg width="962" height="962" viewBox="0 0 962 962" fill="none" xmlns="http://www.w3.org/2000/svg">
<mask id="mask0_76_522" style="mask-type:alpha" maskUnits="userSpaceOnUse" x="0" y="0" width="962" height="962">
<rect width="962" height="962" rx="142" fill="#D9D9D9"/>
</mask>
<g mask="url(#mask0_76_522)">
<rect x="-30.5" y="-31" width="1024" height="1024" fill="white"/>
<path d="M675.92 244.32C655.74 202.584 631.64 180.183 594.108 157.71C556.576 135.237 512.089 124 460.416 124C408.743 124 364.255 135.237 326.799 157.71C289.268 180.183 260.45 212.288 240.27 254.023C220.09 295.759 210 345.292 210 402.698V492.438C210 549.844 220.09 599.377 240.27 641.113C260.45 682.849 289.268 714.953 326.799 737.426C364.255 759.9 408.819 771.136 460.416 771.136C512.012 771.136 556.576 759.9 594.032 737.426C631.564 714.953 660.381 682.849 680.561 641.113C700.741 599.377 710.831 549.844 710.831 492.438V402.698C710.831 345.292 700.741 295.759 680.561 254.023L675.92 244.32ZM627.589 492.82C627.589 535.626 620.862 572.394 607.332 603.046C593.802 633.698 574.616 657.242 549.697 673.6C524.778 689.958 494.737 698.366 460.416 698.672C426.094 698.366 396.054 690.034 371.134 673.6C346.215 657.242 327.029 633.698 313.499 603.046C299.969 572.394 293.243 535.626 293.243 492.82V402.698C293.243 360.198 299.969 323.66 313.499 292.931C327.029 262.279 346.292 238.812 371.364 222.607C396.436 206.402 426.094 198.223 460.416 198.223C494.737 198.223 524.395 206.325 549.468 222.607C574.54 238.812 593.802 262.279 607.332 292.931C620.862 323.583 627.589 360.198 627.589 402.698V492.82Z" fill="#325BFF"/>
<path d="M675.92 244.32L704.788 230.512L704.759 230.451L704.729 230.39L675.92 244.32ZM326.799 157.71L343.239 185.164L343.251 185.157L343.263 185.15L326.799 157.71ZM326.799 737.426L343.263 709.987L343.251 709.979L343.239 709.972L326.799 737.426ZM594.032 737.426L577.593 709.972L577.58 709.979L577.568 709.987L594.032 737.426ZM680.561 254.023L651.693 267.831L651.723 267.892L651.752 267.953L680.561 254.023ZM371.134 673.6L388.752 646.886L388.724 646.867L388.695 646.848L371.134 673.6ZM313.499 292.931L284.224 280.009L284.218 280.023L284.212 280.036L313.499 292.931ZM549.468 222.607L532.039 249.445L532.068 249.463L532.097 249.482L549.468 222.607ZM704.729 230.39C681.278 181.889 652.223 155.21 610.547 130.255L577.669 185.164C611.057 205.156 630.202 223.279 647.111 258.25L704.729 230.39ZM610.547 130.255C567.223 104.313 516.834 92 460.416 92V156C507.343 156 545.93 166.16 577.669 185.164L610.547 130.255ZM460.416 92C404.004 92 353.601 104.311 310.336 130.27L343.263 185.15C374.908 166.163 413.481 156 460.416 156V92ZM310.36 130.255C267.136 156.137 234.18 193.106 211.461 240.094L269.079 267.953C286.72 231.469 311.399 204.229 343.239 185.164L310.36 130.255ZM211.461 240.094C188.742 287.08 178 341.588 178 402.698H242C242 348.996 251.438 304.439 269.079 267.953L211.461 240.094ZM178 402.698V492.438H242V402.698H178ZM178 492.438C178 553.548 188.742 608.056 211.461 655.042L269.079 627.183C251.438 590.697 242 546.14 242 492.438H178ZM211.461 655.042C234.18 702.03 267.136 738.999 310.36 764.881L343.239 709.972C311.399 690.907 286.72 663.667 269.079 627.183L211.461 655.042ZM310.336 764.866C353.605 790.828 404.085 803.136 460.416 803.136V739.136C413.553 739.136 374.905 728.971 343.263 709.987L310.336 764.866ZM460.416 803.136C516.746 803.136 567.226 790.828 610.496 764.866L577.568 709.987C545.927 728.971 507.278 739.136 460.416 739.136V803.136ZM610.471 764.881C653.695 738.999 686.651 702.03 709.37 655.042L651.752 627.183C634.111 663.667 609.432 690.907 577.593 709.972L610.471 764.881ZM709.37 655.042C732.089 608.056 742.831 553.548 742.831 492.438H678.831C678.831 546.14 669.393 590.697 651.752 627.183L709.37 655.042ZM742.831 492.438V402.698H678.831V492.438H742.831ZM742.831 402.698C742.831 341.588 732.089 287.08 709.37 240.094L651.752 267.953C669.393 304.439 678.831 348.996 678.831 402.698H742.831ZM709.429 240.216L704.788 230.512L647.052 258.128L651.693 267.831L709.429 240.216ZM595.589 492.82C595.589 532.394 589.356 564.526 578.057 590.124L636.607 615.968C652.368 580.261 659.589 538.858 659.589 492.82H595.589ZM578.057 590.124C566.682 615.894 551.246 634.304 532.136 646.848L567.257 700.351C597.986 680.179 620.922 651.502 636.607 615.968L578.057 590.124ZM532.136 646.848C513.117 659.333 489.293 666.413 460.131 666.673L460.701 730.67C500.181 730.319 536.438 720.582 567.257 700.351L532.136 646.848ZM460.416 666.672C460.415 666.672 460.415 666.672 460.415 666.672C460.414 666.672 460.414 666.672 460.414 666.672C460.414 666.672 460.413 666.672 460.413 666.672C460.413 666.672 460.412 666.672 460.412 666.672C460.412 666.672 460.411 666.672 460.411 666.672C460.411 666.672 460.411 666.672 460.41 666.672C460.41 666.672 460.41 666.672 460.41 666.672C460.409 666.672 460.409 666.672 460.409 666.672C460.408 666.672 460.408 666.672 460.408 666.672C460.408 666.672 460.407 666.672 460.407 666.672C460.407 666.672 460.407 666.672 460.406 666.672C460.406 666.672 460.406 666.672 460.406 666.672C460.405 666.672 460.405 666.672 460.405 666.672C460.405 666.672 460.404 666.672 460.404 666.672C460.404 666.672 460.404 666.672 460.403 666.672C460.403 666.672 460.403 666.672 460.403 666.672C460.402 666.672 460.402 666.672 460.402 666.672C460.402 666.672 460.401 666.672 460.401 666.672C460.401 666.672 460.401 666.672 460.4 666.672C460.4 666.672 460.4 666.672 460.4 666.672C460.399 666.672 460.399 666.672 460.399 666.672C460.399 666.672 460.399 666.672 460.398 666.672C460.398 666.672 460.398 666.672 460.398 666.672C460.397 666.672 460.397 666.672 460.397 666.672C460.397 666.672 460.397 666.672 460.396 666.672C460.396 666.672 460.396 666.672 460.396 666.672C460.395 666.672 460.395 666.672 460.395 666.672C460.395 666.672 460.395 666.672 460.394 666.672C460.394 666.672 460.394 666.672 460.394 666.672C460.394 666.672 460.393 666.672 460.393 666.672C460.393 666.672 460.393 666.672 460.393 666.672C460.392 666.672 460.392 666.672 460.392 666.672C460.392 666.672 460.392 666.672 460.391 666.672C460.391 666.672 460.391 666.672 460.391 666.672C460.391 666.672 460.391 666.672 460.39 666.672C460.39 666.672 460.39 666.672 460.39 666.672C460.39 666.672 460.389 666.672 460.389 666.672C460.389 666.672 460.389 666.672 460.389 666.672C460.389 666.672 460.388 666.672 460.388 666.672C460.388 666.672 460.388 666.672 460.388 666.672C460.388 666.672 460.387 666.672 460.387 666.672C460.387 666.672 460.387 666.672 460.387 666.672C460.387 666.672 460.386 666.672 460.386 666.672C460.386 666.672 460.386 666.672 460.386 666.672C460.386 666.672 460.385 666.672 460.385 666.672C460.385 666.672 460.385 666.672 460.385 666.672C460.385 666.672 460.385 666.672 460.384 666.672C460.384 666.672 460.384 666.672 460.384 666.672C460.384 666.672 460.384 666.672 460.383 666.672C460.383 666.672 460.383 666.672 460.383 666.672C460.383 666.672 460.383 666.672 460.383 666.672C460.382 666.672 460.382 666.672 460.382 666.672C460.382 666.672 460.382 666.672 460.382 666.672C460.382 666.672 460.382 666.672 460.381 666.672C460.381 666.672 460.381 666.672 460.381 666.672C460.381 666.672 460.381 666.672 460.381 666.672C460.381 666.672 460.38 666.672 460.38 666.672C460.38 666.672 460.38 666.672 460.38 666.672C460.38 666.672 460.38 666.672 460.38 666.672C460.379 666.672 460.379 666.672 460.379 666.672C460.379 666.672 460.379 666.672 460.379 666.672C460.379 666.672 460.379 666.672 460.379 666.672C460.378 666.672 460.378 666.672 460.378 666.672C460.378 666.672 460.378 666.672 460.378 666.672C460.378 666.672 460.378 666.672 460.378 666.672C460.378 666.672 460.377 666.672 460.377 666.672C460.377 666.672 460.377 666.672 460.377 666.672C460.377 666.672 460.377 666.672 460.377 666.672C460.377 666.672 460.377 666.672 460.377 666.672C460.376 666.672 460.376 666.672 460.376 666.672C460.376 666.672 460.376 666.672 460.376 666.672C460.376 666.672 460.376 666.672 460.376 666.672C460.376 666.672 460.376 666.672 460.375 666.672C460.375 666.672 460.375 666.672 460.375 666.672C460.375 666.672 460.375 666.672 460.375 666.672C460.375 666.672 460.375 666.672 460.375 666.672C460.375 666.672 460.375 666.672 460.375 666.672C460.375 666.672 460.374 666.672 460.374 666.672C460.374 666.672 460.374 666.672 460.374 666.672C460.374 666.672 460.374 666.672 460.374 666.672C460.374 666.672 460.374 666.672 460.374 666.672C460.374 666.672 460.374 666.672 460.374 666.672C460.374 666.672 460.374 666.672 460.373 666.672C460.373 666.672 460.373 666.672 460.373 666.672C460.373 666.672 460.373 666.672 460.373 666.672C460.373 666.672 460.373 666.672 460.373 666.672C460.373 666.672 460.373 666.672 460.373 666.672C460.373 666.672 460.373 666.672 460.373 666.672C460.373 666.672 460.373 666.672 460.373 666.672C460.373 666.672 460.373 666.672 460.372 666.672C460.372 666.672 460.372 666.672 460.372 666.672C460.372 666.672 460.372 666.672 460.372 666.672C460.372 666.672 460.372 666.672 460.372 666.672C460.372 666.672 460.372 666.672 460.372 666.672C460.372 666.672 460.372 666.672 460.372 666.672C460.372 666.672 460.372 666.672 460.372 666.672C460.372 666.672 460.372 666.672 460.372 666.672C460.372 666.672 460.372 666.672 460.372 666.672C460.372 666.672 460.372 666.672 460.372 666.672C460.372 666.672 460.372 666.672 460.372 666.672C460.372 666.672 460.372 666.672 460.372 666.672C460.372 666.672 460.372 666.672 460.372 666.672C460.372 666.672 460.372 666.672 460.372 666.672C460.372 666.672 460.372 666.672 460.371 666.672H460.371C460.371 666.672 460.371 666.672 460.371 666.672C460.371 666.672 460.371 666.672 460.371 666.672C460.371 698.672 460.371 730.672 460.371 730.672C460.371 730.672 460.371 730.672 460.371 730.672C460.371 730.672 460.371 730.672 460.371 730.672H460.372C460.372 730.672 460.372 730.672 460.372 730.672C460.372 730.672 460.372 730.672 460.372 730.672C460.372 730.672 460.372 730.672 460.372 730.672C460.372 730.672 460.372 730.672 460.372 730.672C460.372 730.672 460.372 730.672 460.372 730.672C460.372 730.672 460.372 730.672 460.372 730.672C460.372 730.672 460.372 730.672 460.372 730.672C460.372 730.672 460.372 730.672 460.372 730.672C460.372 730.672 460.372 730.672 460.372 730.672C460.372 730.672 460.372 730.672 460.372 730.672C460.372 730.672 460.372 730.672 460.372 730.672C460.372 730.672 460.372 730.672 460.372 730.672C460.372 730.672 460.372 730.672 460.372 730.672C460.372 730.672 460.372 730.672 460.372 730.672C460.372 730.672 460.373 730.672 460.373 730.672C460.373 730.672 460.373 730.672 460.373 730.672C460.373 730.672 460.373 730.672 460.373 730.672C460.373 730.672 460.373 730.672 460.373 730.672C460.373 730.672 460.373 730.672 460.373 730.672C460.373 730.672 460.373 730.672 460.373 730.672C460.373 730.672 460.373 730.672 460.373 730.672C460.373 730.672 460.373 730.672 460.373 730.672C460.374 730.672 460.374 730.672 460.374 730.672C460.374 730.672 460.374 730.672 460.374 730.672C460.374 730.672 460.374 730.672 460.374 730.672C460.374 730.672 460.374 730.672 460.374 730.672C460.374 730.672 460.374 730.672 460.374 730.672C460.374 730.672 460.374 730.672 460.374 730.672C460.375 730.672 460.375 730.672 460.375 730.672C460.375 730.672 460.375 730.672 460.375 730.672C460.375 730.672 460.375 730.672 460.375 730.672C460.375 730.672 460.375 730.672 460.375 730.672C460.375 730.672 460.375 730.672 460.375 730.672C460.375 730.672 460.376 730.672 460.376 730.672C460.376 730.672 460.376 730.672 460.376 730.672C460.376 730.672 460.376 730.672 460.376 730.672C460.376 730.672 460.376 730.672 460.376 730.672C460.376 730.672 460.376 730.672 460.376 730.672C460.377 730.672 460.377 730.672 460.377 730.672C460.377 730.672 460.377 730.672 460.377 730.672C460.377 730.672 460.377 730.672 460.377 730.672C460.377 730.672 460.377 730.672 460.377 730.672C460.377 730.672 460.378 730.672 460.378 730.672C460.378 730.672 460.378 730.672 460.378 730.672C460.378 730.672 460.378 730.672 460.378 730.672C460.378 730.672 460.378 730.672 460.378 730.672C460.378 730.672 460.379 730.672 460.379 730.672C460.379 730.672 460.379 730.672 460.379 730.672C460.379 730.672 460.379 730.672 460.379 730.672C460.379 730.672 460.379 730.672 460.379 730.672C460.38 730.672 460.38 730.672 460.38 730.672C460.38 730.672 460.38 730.672 460.38 730.672C460.38 730.672 460.38 730.672 460.38 730.672C460.38 730.672 460.38 730.672 460.381 730.672C460.381 730.672 460.381 730.672 460.381 730.672C460.381 730.672 460.381 730.672 460.381 730.672C460.381 730.672 460.381 730.672 460.381 730.672C460.382 730.672 460.382 730.672 460.382 730.672C460.382 730.672 460.382 730.672 460.382 730.672C460.382 730.672 460.382 730.672 460.382 730.672C460.382 730.672 460.383 730.672 460.383 730.672C460.383 730.672 460.383 730.672 460.383 730.672C460.383 730.672 460.383 730.672 460.383 730.672C460.383 730.672 460.383 730.672 460.384 730.672C460.384 730.672 460.384 730.672 460.384 730.672C460.384 730.672 460.384 730.672 460.384 730.672C460.384 730.672 460.384 730.672 460.385 730.672C460.385 730.672 460.385 730.672 460.385 730.672C460.385 730.672 460.385 730.672 460.385 730.672C460.385 730.672 460.385 730.672 460.386 730.672C460.386 730.672 460.386 730.672 460.386 730.672C460.386 730.672 460.386 730.672 460.386 730.672C460.386 730.672 460.386 730.672 460.387 730.672C460.387 730.672 460.387 730.672 460.387 730.672C460.387 730.672 460.387 730.672 460.387 730.672C460.387 730.672 460.387 730.672 460.388 730.672C460.388 730.672 460.388 730.672 460.388 730.672C460.388 730.672 460.388 730.672 460.388 730.672C460.388 730.672 460.389 730.672 460.389 730.672C460.389 730.672 460.389 730.672 460.389 730.672C460.389 730.672 460.389 730.672 460.389 730.672C460.39 730.672 460.39 730.672 460.39 730.672C460.39 730.672 460.39 730.672 460.39 730.672C460.39 730.672 460.39 730.672 460.391 730.672C460.391 730.672 460.391 730.672 460.391 730.672C460.391 730.672 460.391 730.672 460.391 730.672C460.391 730.672 460.392 730.672 460.392 730.672C460.392 730.672 460.392 730.672 460.392 730.672C460.392 730.672 460.392 730.672 460.392 730.672C460.393 730.672 460.393 730.672 460.393 730.672C460.393 730.672 460.393 730.672 460.393 730.672C460.393 730.672 460.394 730.672 460.394 730.672C460.394 730.672 460.394 730.672 460.394 730.672C460.394 730.672 460.394 730.672 460.394 730.672C460.395 730.672 460.395 730.672 460.395 730.672C460.395 730.672 460.395 730.672 460.395 730.672C460.395 730.672 460.396 730.672 460.396 730.672C460.396 730.672 460.396 730.672 460.396 730.672C460.396 730.672 460.396 730.672 460.396 730.672C460.397 730.672 460.397 730.672 460.397 730.672C460.397 730.672 460.397 730.672 460.397 730.672C460.397 730.672 460.398 730.672 460.398 730.672C460.398 730.672 460.398 730.672 460.398 730.672C460.398 730.672 460.398 730.672 460.399 730.672C460.399 730.672 460.399 730.672 460.399 730.672C460.399 730.672 460.399 730.672 460.399 730.672C460.399 730.672 460.4 730.672 460.4 730.672C460.4 730.672 460.4 730.672 460.4 730.672C460.4 730.672 460.4 730.672 460.401 730.672C460.401 730.672 460.401 730.672 460.401 730.672C460.401 730.672 460.401 730.672 460.401 730.672C460.402 730.672 460.402 730.672 460.402 730.672C460.402 730.672 460.402 730.672 460.402 730.672C460.402 730.672 460.403 730.672 460.403 730.672C460.403 730.672 460.403 730.672 460.403 730.672C460.403 730.672 460.403 730.672 460.404 730.672C460.404 730.672 460.404 730.672 460.404 730.672C460.404 730.672 460.404 730.672 460.404 730.672C460.405 730.672 460.405 730.672 460.405 730.672C460.405 730.672 460.405 730.672 460.405 730.672C460.406 730.672 460.406 730.672 460.406 730.672C460.406 730.672 460.406 730.672 460.406 730.672C460.406 730.672 460.407 730.672 460.407 730.672C460.407 730.672 460.407 730.672 460.407 730.672C460.407 730.672 460.407 730.672 460.408 730.672C460.408 730.672 460.408 730.672 460.408 730.672C460.408 730.672 460.408 730.672 460.408 730.672C460.409 730.672 460.409 730.672 460.409 730.672C460.409 730.672 460.409 730.672 460.409 730.672C460.409 730.672 460.41 730.672 460.41 730.672C460.41 730.672 460.41 730.672 460.41 730.672C460.41 730.672 460.411 730.672 460.411 730.672C460.411 730.672 460.411 730.672 460.411 730.672C460.411 730.672 460.411 730.672 460.412 730.672C460.412 730.672 460.412 730.672 460.412 730.672C460.412 730.672 460.412 730.672 460.412 730.672C460.413 730.672 460.413 730.672 460.413 730.672C460.413 730.672 460.413 730.672 460.413 730.672C460.413 730.672 460.414 730.672 460.414 730.672C460.414 730.672 460.414 730.672 460.414 730.672C460.414 730.672 460.415 730.672 460.415 730.672C460.415 730.672 460.415 730.672 460.415 730.672C460.415 730.672 460.415 730.672 460.416 730.672C460.416 730.672 460.416 730.672 460.416 730.672C460.416 730.672 460.416 730.672 460.416 730.672C460.417 730.672 460.417 730.672 460.417 730.672C460.417 730.672 460.417 730.672 460.417 730.672C460.418 730.672 460.418 730.672 460.418 730.672C460.418 730.672 460.418 730.672 460.418 730.672C460.418 730.672 460.419 730.672 460.419 730.672C460.419 730.672 460.419 730.672 460.419 730.672C460.419 730.672 460.419 730.672 460.42 730.672C460.42 730.672 460.42 730.672 460.42 730.672C460.42 730.672 460.42 730.672 460.42 730.672C460.421 730.672 460.421 730.672 460.421 730.672C460.421 730.672 460.421 730.672 460.421 730.672C460.422 730.672 460.422 730.672 460.422 730.672C460.422 730.672 460.422 730.672 460.422 730.672C460.422 730.672 460.423 730.672 460.423 730.672C460.423 730.672 460.423 730.672 460.423 730.672C460.423 730.672 460.423 730.672 460.424 730.672C460.424 730.672 460.424 730.672 460.424 730.672C460.424 730.672 460.424 730.672 460.424 730.672C460.425 730.672 460.425 730.672 460.425 730.672C460.425 730.672 460.425 730.672 460.425 730.672C460.426 730.672 460.426 730.672 460.426 730.672C460.426 730.672 460.426 730.672 460.426 730.672C460.426 730.672 460.427 730.672 460.427 730.672C460.427 730.672 460.427 730.672 460.427 730.672C460.427 730.672 460.427 730.672 460.428 730.672C460.428 730.672 460.428 730.672 460.428 730.672C460.428 730.672 460.428 730.672 460.428 730.672C460.429 730.672 460.429 730.672 460.429 730.672C460.429 730.672 460.429 730.672 460.429 730.672C460.429 730.672 460.43 730.672 460.43 730.672C460.43 730.672 460.43 730.672 460.43 730.672C460.43 730.672 460.43 730.672 460.431 730.672C460.431 730.672 460.431 730.672 460.431 730.672C460.431 730.672 460.431 730.672 460.431 730.672C460.432 730.672 460.432 730.672 460.432 730.672C460.432 730.672 460.432 730.672 460.432 730.672C460.432 730.672 460.432 730.672 460.433 730.672C460.433 730.672 460.433 730.672 460.433 730.672C460.433 730.672 460.433 730.672 460.433 730.672C460.434 730.672 460.434 730.672 460.434 730.672C460.434 730.672 460.434 730.672 460.434 730.672C460.434 730.672 460.435 730.672 460.435 730.672C460.435 730.672 460.435 730.672 460.435 730.672C460.435 730.672 460.435 730.672 460.436 730.672C460.436 730.672 460.436 730.672 460.436 730.672C460.436 730.672 460.436 730.672 460.436 730.672C460.436 730.672 460.437 730.672 460.437 730.672C460.437 730.672 460.437 730.672 460.437 730.672C460.437 730.672 460.437 730.672 460.438 730.672C460.438 730.672 460.438 730.672 460.438 730.672C460.438 730.672 460.438 730.672 460.438 730.672C460.438 730.672 460.439 730.672 460.439 730.672C460.439 730.672 460.439 730.672 460.439 730.672C460.439 730.672 460.439 730.672 460.439 730.672C460.44 730.672 460.44 730.672 460.44 730.672C460.44 730.672 460.44 730.672 460.44 730.672C460.44 730.672 460.44 730.672 460.441 730.672C460.441 730.672 460.441 730.672 460.441 730.672C460.441 730.672 460.441 730.672 460.441 730.672C460.441 730.672 460.442 730.672 460.442 730.672C460.442 730.672 460.442 730.672 460.442 730.672C460.442 730.672 460.442 730.672 460.442 730.672C460.443 730.672 460.443 730.672 460.443 730.672C460.443 730.672 460.443 730.672 460.443 730.672C460.443 730.672 460.443 730.672 460.444 730.672C460.444 730.672 460.444 730.672 460.444 730.672C460.444 730.672 460.444 730.672 460.444 730.672C460.444 730.672 460.444 730.672 460.445 730.672C460.445 730.672 460.445 730.672 460.445 730.672C460.445 730.672 460.445 730.672 460.445 730.672C460.445 730.672 460.445 730.672 460.446 730.672C460.446 730.672 460.446 730.672 460.446 730.672C460.446 730.672 460.446 730.672 460.446 730.672C460.446 730.672 460.447 730.672 460.447 730.672C460.447 730.672 460.447 730.672 460.447 730.672C460.447 730.672 460.447 730.672 460.447 730.672C460.447 730.672 460.447 730.672 460.448 730.672C460.448 730.672 460.448 730.672 460.448 730.672C460.448 730.672 460.448 730.672 460.448 730.672C460.448 730.672 460.448 730.672 460.449 730.672C460.449 730.672 460.449 730.672 460.449 730.672C460.449 730.672 460.449 730.672 460.449 730.672C460.449 730.672 460.449 730.672 460.449 730.672C460.45 730.672 460.45 730.672 460.45 730.672C460.45 730.672 460.45 730.672 460.45 730.672C460.45 730.672 460.45 730.672 460.45 730.672C460.45 730.672 460.451 730.672 460.451 730.672C460.451 730.672 460.451 730.672 460.451 730.672C460.451 730.672 460.451 730.672 460.451 730.672C460.451 730.672 460.451 730.672 460.451 730.672C460.452 730.672 460.452 730.672 460.452 730.672C460.452 730.672 460.452 730.672 460.452 730.672C460.452 730.672 460.452 730.672 460.452 730.672C460.452 730.672 460.452 730.672 460.453 730.672C460.453 730.672 460.453 730.672 460.453 730.672C460.453 730.672 460.453 730.672 460.453 730.672C460.453 730.672 460.453 730.672 460.453 730.672C460.453 730.672 460.453 730.672 460.454 730.672C460.454 730.672 460.454 730.672 460.454 730.672C460.454 730.672 460.454 730.672 460.454 730.672C460.454 730.672 460.454 730.672 460.454 730.672C460.454 730.672 460.454 730.672 460.454 730.672C460.455 730.672 460.455 730.672 460.455 730.672C460.455 730.672 460.455 730.672 460.455 730.672C460.455 730.672 460.455 730.672 460.455 730.672C460.455 730.672 460.455 730.672 460.455 730.672C460.455 730.672 460.455 730.672 460.456 730.672C460.456 730.672 460.456 730.672 460.456 730.672C460.456 730.672 460.456 730.672 460.456 730.672C460.456 730.672 460.456 730.672 460.456 730.672C460.456 730.672 460.456 730.672 460.456 730.672C460.456 730.672 460.456 730.672 460.457 730.672C460.457 730.672 460.457 730.672 460.457 730.672C460.457 730.672 460.457 730.672 460.457 730.672C460.457 730.672 460.457 730.672 460.457 730.672C460.457 730.672 460.457 730.672 460.457 730.672C460.457 730.672 460.457 730.672 460.457 730.672C460.457 730.672 460.457 730.672 460.458 730.672C460.458 730.672 460.458 730.672 460.458 730.672C460.458 730.672 460.458 730.672 460.458 730.672C460.458 730.672 460.458 730.672 460.458 730.672C460.458 730.672 460.458 730.672 460.458 730.672C460.458 730.672 460.458 730.672 460.458 730.672C460.458 730.672 460.458 730.672 460.458 730.672C460.458 730.672 460.458 730.672 460.458 730.672C460.458 730.672 460.459 730.672 460.459 730.672C460.459 730.672 460.459 730.672 460.459 730.672C460.459 730.672 460.459 730.672 460.459 730.672C460.459 730.672 460.459 730.672 460.459 730.672C460.459 730.672 460.459 730.672 460.459 730.672C460.459 730.672 460.459 730.672 460.459 730.672C460.459 730.672 460.459 730.672 460.459 730.672C460.459 730.672 460.459 730.672 460.459 730.672C460.459 730.672 460.459 730.672 460.459 730.672C460.459 730.672 460.459 730.672 460.459 730.672C460.459 730.672 460.459 730.672 460.459 730.672C460.459 730.672 460.459 730.672 460.459 730.672C460.459 730.672 460.46 730.672 460.46 730.672C460.46 730.672 460.46 730.672 460.46 730.672C460.46 730.672 460.46 730.672 460.46 730.672C460.46 730.672 460.46 730.672 460.46 730.672H460.46C460.46 730.672 460.46 730.672 460.46 730.672C460.46 730.672 460.46 730.672 460.46 730.672C460.46 730.672 460.46 698.672 460.46 666.672C460.46 666.672 460.46 666.672 460.46 666.672C460.46 666.672 460.46 666.672 460.46 666.672H460.46C460.46 666.672 460.46 666.672 460.46 666.672C460.46 666.672 460.46 666.672 460.46 666.672C460.46 666.672 460.46 666.672 460.46 666.672C460.46 666.672 460.46 666.672 460.46 666.672C460.459 666.672 460.459 666.672 460.459 666.672C460.459 666.672 460.459 666.672 460.459 666.672C460.459 666.672 460.459 666.672 460.459 666.672C460.459 666.672 460.459 666.672 460.459 666.672C460.459 666.672 460.459 666.672 460.459 666.672C460.459 666.672 460.459 666.672 460.459 666.672C460.459 666.672 460.459 666.672 460.459 666.672C460.459 666.672 460.459 666.672 460.459 666.672C460.459 666.672 460.459 666.672 460.459 666.672C460.459 666.672 460.459 666.672 460.459 666.672C460.459 666.672 460.459 666.672 460.459 666.672C460.458 666.672 460.458 666.672 460.458 666.672C460.458 666.672 460.458 666.672 460.458 666.672C460.458 666.672 460.458 666.672 460.458 666.672C460.458 666.672 460.458 666.672 460.458 666.672C460.458 666.672 460.458 666.672 460.458 666.672C460.458 666.672 460.458 666.672 460.458 666.672C460.458 666.672 460.458 666.672 460.458 666.672C460.457 666.672 460.457 666.672 460.457 666.672C460.457 666.672 460.457 666.672 460.457 666.672C460.457 666.672 460.457 666.672 460.457 666.672C460.457 666.672 460.457 666.672 460.457 666.672C460.457 666.672 460.457 666.672 460.457 666.672C460.456 666.672 460.456 666.672 460.456 666.672C460.456 666.672 460.456 666.672 460.456 666.672C460.456 666.672 460.456 666.672 460.456 666.672C460.456 666.672 460.456 666.672 460.456 666.672C460.456 666.672 460.455 666.672 460.455 666.672C460.455 666.672 460.455 666.672 460.455 666.672C460.455 666.672 460.455 666.672 460.455 666.672C460.455 666.672 460.455 666.672 460.455 666.672C460.455 666.672 460.454 666.672 460.454 666.672C460.454 666.672 460.454 666.672 460.454 666.672C460.454 666.672 460.454 666.672 460.454 666.672C460.454 666.672 460.454 666.672 460.454 666.672C460.453 666.672 460.453 666.672 460.453 666.672C460.453 666.672 460.453 666.672 460.453 666.672C460.453 666.672 460.453 666.672 460.453 666.672C460.452 666.672 460.452 666.672 460.452 666.672C460.452 666.672 460.452 666.672 460.452 666.672C460.452 666.672 460.452 666.672 460.452 666.672C460.451 666.672 460.451 666.672 460.451 666.672C460.451 666.672 460.451 666.672 460.451 666.672C460.451 666.672 460.451 666.672 460.45 666.672C460.45 666.672 460.45 666.672 460.45 666.672C460.45 666.672 460.45 666.672 460.45 666.672C460.45 666.672 460.449 666.672 460.449 666.672C460.449 666.672 460.449 666.672 460.449 666.672C460.449 666.672 460.449 666.672 460.449 666.672C460.448 666.672 460.448 666.672 460.448 666.672C460.448 666.672 460.448 666.672 460.448 666.672C460.448 666.672 460.447 666.672 460.447 666.672C460.447 666.672 460.447 666.672 460.447 666.672C460.447 666.672 460.446 666.672 460.446 666.672C460.446 666.672 460.446 666.672 460.446 666.672C460.446 666.672 460.446 666.672 460.445 666.672C460.445 666.672 460.445 666.672 460.445 666.672C460.445 666.672 460.445 666.672 460.444 666.672C460.444 666.672 460.444 666.672 460.444 666.672C460.444 666.672 460.444 666.672 460.443 666.672C460.443 666.672 460.443 666.672 460.443 666.672C460.443 666.672 460.443 666.672 460.442 666.672C460.442 666.672 460.442 666.672 460.442 666.672C460.442 666.672 460.442 666.672 460.441 666.672C460.441 666.672 460.441 666.672 460.441 666.672C460.441 666.672 460.44 666.672 460.44 666.672C460.44 666.672 460.44 666.672 460.44 666.672C460.439 666.672 460.439 666.672 460.439 666.672C460.439 666.672 460.439 666.672 460.439 666.672C460.438 666.672 460.438 666.672 460.438 666.672C460.438 666.672 460.438 666.672 460.437 666.672C460.437 666.672 460.437 666.672 460.437 666.672C460.436 666.672 460.436 666.672 460.436 666.672C460.436 666.672 460.436 666.672 460.435 666.672C460.435 666.672 460.435 666.672 460.435 666.672C460.435 666.672 460.434 666.672 460.434 666.672C460.434 666.672 460.434 666.672 460.433 666.672C460.433 666.672 460.433 666.672 460.433 666.672C460.433 666.672 460.432 666.672 460.432 666.672C460.432 666.672 460.432 666.672 460.431 666.672C460.431 666.672 460.431 666.672 460.431 666.672C460.431 666.672 460.43 666.672 460.43 666.672C460.43 666.672 460.43 666.672 460.429 666.672C460.429 666.672 460.429 666.672 460.429 666.672C460.428 666.672 460.428 666.672 460.428 666.672C460.428 666.672 460.427 666.672 460.427 666.672C460.427 666.672 460.427 666.672 460.426 666.672C460.426 666.672 460.426 666.672 460.426 666.672C460.425 666.672 460.425 666.672 460.425 666.672C460.425 666.672 460.424 666.672 460.424 666.672C460.424 666.672 460.423 666.672 460.423 666.672C460.423 666.672 460.423 666.672 460.422 666.672C460.422 666.672 460.422 666.672 460.422 666.672C460.421 666.672 460.421 666.672 460.421 666.672C460.42 666.672 460.42 666.672 460.42 666.672C460.42 666.672 460.419 666.672 460.419 666.672C460.419 666.672 460.419 666.672 460.418 666.672C460.418 666.672 460.418 666.672 460.417 666.672C460.417 666.672 460.417 666.672 460.416 666.672C460.416 666.672 460.416 666.672 460.416 666.672V730.672C460.416 730.672 460.416 730.672 460.416 730.672C460.417 730.672 460.417 730.672 460.417 730.672C460.418 730.672 460.418 730.672 460.418 730.672C460.419 730.672 460.419 730.672 460.419 730.672C460.419 730.672 460.42 730.672 460.42 730.672C460.42 730.672 460.42 730.672 460.421 730.672C460.421 730.672 460.421 730.672 460.422 730.672C460.422 730.672 460.422 730.672 460.422 730.672C460.423 730.672 460.423 730.672 460.423 730.672C460.423 730.672 460.424 730.672 460.424 730.672C460.424 730.672 460.425 730.672 460.425 730.672C460.425 730.672 460.425 730.672 460.426 730.672C460.426 730.672 460.426 730.672 460.426 730.672C460.427 730.672 460.427 730.672 460.427 730.672C460.427 730.672 460.428 730.672 460.428 730.672C460.428 730.672 460.428 730.672 460.429 730.672C460.429 730.672 460.429 730.672 460.429 730.672C460.43 730.672 460.43 730.672 460.43 730.672C460.43 730.672 460.431 730.672 460.431 730.672C460.431 730.672 460.431 730.672 460.431 730.672C460.432 730.672 460.432 730.672 460.432 730.672C460.432 730.672 460.433 730.672 460.433 730.672C460.433 730.672 460.433 730.672 460.433 730.672C460.434 730.672 460.434 730.672 460.434 730.672C460.434 730.672 460.435 730.672 460.435 730.672C460.435 730.672 460.435 730.672 460.435 730.672C460.436 730.672 460.436 730.672 460.436 730.672C460.436 730.672 460.436 730.672 460.437 730.672C460.437 730.672 460.437 730.672 460.437 730.672C460.438 730.672 460.438 730.672 460.438 730.672C460.438 730.672 460.438 730.672 460.439 730.672C460.439 730.672 460.439 730.672 460.439 730.672C460.439 730.672 460.439 730.672 460.44 730.672C460.44 730.672 460.44 730.672 460.44 730.672C460.44 730.672 460.441 730.672 460.441 730.672C460.441 730.672 460.441 730.672 460.441 730.672C460.442 730.672 460.442 730.672 460.442 730.672C460.442 730.672 460.442 730.672 460.442 730.672C460.443 730.672 460.443 730.672 460.443 730.672C460.443 730.672 460.443 730.672 460.443 730.672C460.444 730.672 460.444 730.672 460.444 730.672C460.444 730.672 460.444 730.672 460.444 730.672C460.445 730.672 460.445 730.672 460.445 730.672C460.445 730.672 460.445 730.672 460.445 730.672C460.446 730.672 460.446 730.672 460.446 730.672C460.446 730.672 460.446 730.672 460.446 730.672C460.446 730.672 460.447 730.672 460.447 730.672C460.447 730.672 460.447 730.672 460.447 730.672C460.447 730.672 460.448 730.672 460.448 730.672C460.448 730.672 460.448 730.672 460.448 730.672C460.448 730.672 460.448 730.672 460.449 730.672C460.449 730.672 460.449 730.672 460.449 730.672C460.449 730.672 460.449 730.672 460.449 730.672C460.449 730.672 460.45 730.672 460.45 730.672C460.45 730.672 460.45 730.672 460.45 730.672C460.45 730.672 460.45 730.672 460.45 730.672C460.451 730.672 460.451 730.672 460.451 730.672C460.451 730.672 460.451 730.672 460.451 730.672C460.451 730.672 460.451 730.672 460.452 730.672C460.452 730.672 460.452 730.672 460.452 730.672C460.452 730.672 460.452 730.672 460.452 730.672C460.452 730.672 460.452 730.672 460.453 730.672C460.453 730.672 460.453 730.672 460.453 730.672C460.453 730.672 460.453 730.672 460.453 730.672C460.453 730.672 460.453 730.672 460.454 730.672C460.454 730.672 460.454 730.672 460.454 730.672C460.454 730.672 460.454 730.672 460.454 730.672C460.454 730.672 460.454 730.672 460.454 730.672C460.454 730.672 460.455 730.672 460.455 730.672C460.455 730.672 460.455 730.672 460.455 730.672C460.455 730.672 460.455 730.672 460.455 730.672C460.455 730.672 460.455 730.672 460.455 730.672C460.455 730.672 460.456 730.672 460.456 730.672C460.456 730.672 460.456 730.672 460.456 730.672C460.456 730.672 460.456 730.672 460.456 730.672C460.456 730.672 460.456 730.672 460.456 730.672C460.456 730.672 460.456 730.672 460.457 730.672C460.457 730.672 460.457 730.672 460.457 730.672C460.457 730.672 460.457 730.672 460.457 730.672C460.457 730.672 460.457 730.672 460.457 730.672C460.457 730.672 460.457 730.672 460.457 730.672C460.457 730.672 460.457 730.672 460.458 730.672C460.458 730.672 460.458 730.672 460.458 730.672C460.458 730.672 460.458 730.672 460.458 730.672C460.458 730.672 460.458 730.672 460.458 730.672C460.458 730.672 460.458 730.672 460.458 730.672C460.458 730.672 460.458 730.672 460.458 730.672C460.458 730.672 460.458 730.672 460.458 730.672C460.458 730.672 460.458 730.672 460.459 730.672C460.459 730.672 460.459 730.672 460.459 730.672C460.459 730.672 460.459 730.672 460.459 730.672C460.459 730.672 460.459 730.672 460.459 730.672C460.459 730.672 460.459 730.672 460.459 730.672C460.459 730.672 460.459 730.672 460.459 730.672C460.459 730.672 460.459 730.672 460.459 730.672C460.459 730.672 460.459 730.672 460.459 730.672C460.459 730.672 460.459 730.672 460.459 730.672C460.459 730.672 460.459 730.672 460.459 730.672C460.459 730.672 460.459 730.672 460.459 730.672C460.459 730.672 460.459 730.672 460.46 730.672C460.46 730.672 460.46 730.672 460.46 730.672C460.46 730.672 460.46 730.672 460.46 730.672C460.46 730.672 460.46 730.672 460.46 730.672C460.46 730.672 460.46 730.672 460.46 730.672H460.46C460.46 730.672 460.46 730.672 460.46 730.672C460.46 730.672 460.46 730.672 460.46 730.672C460.46 698.672 460.46 666.672 460.46 666.672C460.46 666.672 460.46 666.672 460.46 666.672C460.46 666.672 460.46 666.672 460.46 666.672H460.46C460.46 666.672 460.46 666.672 460.46 666.672C460.46 666.672 460.46 666.672 460.46 666.672C460.46 666.672 460.46 666.672 460.46 666.672C460.46 666.672 460.459 666.672 460.459 666.672C460.459 666.672 460.459 666.672 460.459 666.672C460.459 666.672 460.459 666.672 460.459 666.672C460.459 666.672 460.459 666.672 460.459 666.672C460.459 666.672 460.459 666.672 460.459 666.672C460.459 666.672 460.459 666.672 460.459 666.672C460.459 666.672 460.459 666.672 460.459 666.672C460.459 666.672 460.459 666.672 460.459 666.672C460.459 666.672 460.459 666.672 460.459 666.672C460.459 666.672 460.459 666.672 460.459 666.672C460.459 666.672 460.459 666.672 460.459 666.672C460.459 666.672 460.459 666.672 460.459 666.672C460.459 666.672 460.458 666.672 460.458 666.672C460.458 666.672 460.458 666.672 460.458 666.672C460.458 666.672 460.458 666.672 460.458 666.672C460.458 666.672 460.458 666.672 460.458 666.672C460.458 666.672 460.458 666.672 460.458 666.672C460.458 666.672 460.458 666.672 460.458 666.672C460.458 666.672 460.458 666.672 460.458 666.672C460.458 666.672 460.458 666.672 460.458 666.672C460.457 666.672 460.457 666.672 460.457 666.672C460.457 666.672 460.457 666.672 460.457 666.672C460.457 666.672 460.457 666.672 460.457 666.672C460.457 666.672 460.457 666.672 460.457 666.672C460.457 666.672 460.457 666.672 460.457 666.672C460.457 666.672 460.457 666.672 460.457 666.672C460.456 666.672 460.456 666.672 460.456 666.672C460.456 666.672 460.456 666.672 460.456 666.672C460.456 666.672 460.456 666.672 460.456 666.672C460.456 666.672 460.456 666.672 460.456 666.672C460.456 666.672 460.456 666.672 460.456 666.672C460.455 666.672 460.455 666.672 460.455 666.672C460.455 666.672 460.455 666.672 460.455 666.672C460.455 666.672 460.455 666.672 460.455 666.672C460.455 666.672 460.455 666.672 460.455 666.672C460.455 666.672 460.455 666.672 460.454 666.672C460.454 666.672 460.454 666.672 460.454 666.672C460.454 666.672 460.454 666.672 460.454 666.672C460.454 666.672 460.454 666.672 460.454 666.672C460.454 666.672 460.454 666.672 460.454 666.672C460.453 666.672 460.453 666.672 460.453 666.672C460.453 666.672 460.453 666.672 460.453 666.672C460.453 666.672 460.453 666.672 460.453 666.672C460.453 666.672 460.453 666.672 460.453 666.672C460.452 666.672 460.452 666.672 460.452 666.672C460.452 666.672 460.452 666.672 460.452 666.672C460.452 666.672 460.452 666.672 460.452 666.672C460.452 666.672 460.452 666.672 460.451 666.672C460.451 666.672 460.451 666.672 460.451 666.672C460.451 666.672 460.451 666.672 460.451 666.672C460.451 666.672 460.451 666.672 460.451 666.672C460.451 666.672 460.45 666.672 460.45 666.672C460.45 666.672 460.45 666.672 460.45 666.672C460.45 666.672 460.45 666.672 460.45 666.672C460.45 666.672 460.45 666.672 460.449 666.672C460.449 666.672 460.449 666.672 460.449 666.672C460.449 666.672 460.449 666.672 460.449 666.672C460.449 666.672 460.449 666.672 460.449 666.672C460.448 666.672 460.448 666.672 460.448 666.672C460.448 666.672 460.448 666.672 460.448 666.672C460.448 666.672 460.448 666.672 460.448 666.672C460.447 666.672 460.447 666.672 460.447 666.672C460.447 666.672 460.447 666.672 460.447 666.672C460.447 666.672 460.447 666.672 460.447 666.672C460.447 666.672 460.446 666.672 460.446 666.672C460.446 666.672 460.446 666.672 460.446 666.672C460.446 666.672 460.446 666.672 460.446 666.672C460.445 666.672 460.445 666.672 460.445 666.672C460.445 666.672 460.445 666.672 460.445 666.672C460.445 666.672 460.445 666.672 460.445 666.672C460.444 666.672 460.444 666.672 460.444 666.672C460.444 666.672 460.444 666.672 460.444 666.672C460.444 666.672 460.444 666.672 460.444 666.672C460.443 666.672 460.443 666.672 460.443 666.672C460.443 666.672 460.443 666.672 460.443 666.672C460.443 666.672 460.443 666.672 460.442 666.672C460.442 666.672 460.442 666.672 460.442 666.672C460.442 666.672 460.442 666.672 460.442 666.672C460.442 666.672 460.441 666.672 460.441 666.672C460.441 666.672 460.441 666.672 460.441 666.672C460.441 666.672 460.441 666.672 460.441 666.672C460.44 666.672 460.44 666.672 460.44 666.672C460.44 666.672 460.44 666.672 460.44 666.672C460.44 666.672 460.44 666.672 460.439 666.672C460.439 666.672 460.439 666.672 460.439 666.672C460.439 666.672 460.439 666.672 460.439 666.672C460.439 666.672 460.438 666.672 460.438 666.672C460.438 666.672 460.438 666.672 460.438 666.672C460.438 666.672 460.438 666.672 460.438 666.672C460.437 666.672 460.437 666.672 460.437 666.672C460.437 666.672 460.437 666.672 460.437 666.672C460.437 666.672 460.436 666.672 460.436 666.672C460.436 666.672 460.436 666.672 460.436 666.672C460.436 666.672 460.436 666.672 460.436 666.672C460.435 666.672 460.435 666.672 460.435 666.672C460.435 666.672 460.435 666.672 460.435 666.672C460.435 666.672 460.434 666.672 460.434 666.672C460.434 666.672 460.434 666.672 460.434 666.672C460.434 666.672 460.434 666.672 460.433 666.672C460.433 666.672 460.433 666.672 460.433 666.672C460.433 666.672 460.433 666.672 460.433 666.672C460.432 666.672 460.432 666.672 460.432 666.672C460.432 666.672 460.432 666.672 460.432 666.672C460.432 666.672 460.432 666.672 460.431 666.672C460.431 666.672 460.431 666.672 460.431 666.672C460.431 666.672 460.431 666.672 460.431 666.672C460.43 666.672 460.43 666.672 460.43 666.672C460.43 666.672 460.43 666.672 460.43 666.672C460.43 666.672 460.429 666.672 460.429 666.672C460.429 666.672 460.429 666.672 460.429 666.672C460.429 666.672 460.429 666.672 460.428 666.672C460.428 666.672 460.428 666.672 460.428 666.672C460.428 666.672 460.428 666.672 460.428 666.672C460.427 666.672 460.427 666.672 460.427 666.672C460.427 666.672 460.427 666.672 460.427 666.672C460.427 666.672 460.426 666.672 460.426 666.672C460.426 666.672 460.426 666.672 460.426 666.672C460.426 666.672 460.426 666.672 460.425 666.672C460.425 666.672 460.425 666.672 460.425 666.672C460.425 666.672 460.425 666.672 460.424 666.672C460.424 666.672 460.424 666.672 460.424 666.672C460.424 666.672 460.424 666.672 460.424 666.672C460.423 666.672 460.423 666.672 460.423 666.672C460.423 666.672 460.423 666.672 460.423 666.672C460.423 666.672 460.422 666.672 460.422 666.672C460.422 666.672 460.422 666.672 460.422 666.672C460.422 666.672 460.422 666.672 460.421 666.672C460.421 666.672 460.421 666.672 460.421 666.672C460.421 666.672 460.421 666.672 460.42 666.672C460.42 666.672 460.42 666.672 460.42 666.672C460.42 666.672 460.42 666.672 460.42 666.672C460.419 666.672 460.419 666.672 460.419 666.672C460.419 666.672 460.419 666.672 460.419 666.672C460.419 666.672 460.418 666.672 460.418 666.672C460.418 666.672 460.418 666.672 460.418 666.672C460.418 666.672 460.418 666.672 460.417 666.672C460.417 666.672 460.417 666.672 460.417 666.672C460.417 666.672 460.417 666.672 460.416 666.672C460.416 666.672 460.416 666.672 460.416 666.672C460.416 666.672 460.416 666.672 460.416 666.672C460.415 666.672 460.415 666.672 460.415 666.672C460.415 666.672 460.415 666.672 460.415 666.672C460.415 666.672 460.414 666.672 460.414 666.672C460.414 666.672 460.414 666.672 460.414 666.672C460.414 666.672 460.413 666.672 460.413 666.672C460.413 666.672 460.413 666.672 460.413 666.672C460.413 666.672 460.413 666.672 460.412 666.672C460.412 666.672 460.412 666.672 460.412 666.672C460.412 666.672 460.412 666.672 460.412 666.672C460.411 666.672 460.411 666.672 460.411 666.672C460.411 666.672 460.411 666.672 460.411 666.672C460.411 666.672 460.41 666.672 460.41 666.672C460.41 666.672 460.41 666.672 460.41 666.672C460.41 666.672 460.409 666.672 460.409 666.672C460.409 666.672 460.409 666.672 460.409 666.672C460.409 666.672 460.409 666.672 460.408 666.672C460.408 666.672 460.408 666.672 460.408 666.672C460.408 666.672 460.408 666.672 460.408 666.672C460.407 666.672 460.407 666.672 460.407 666.672C460.407 666.672 460.407 666.672 460.407 666.672C460.407 666.672 460.406 666.672 460.406 666.672C460.406 666.672 460.406 666.672 460.406 666.672C460.406 666.672 460.406 666.672 460.405 666.672C460.405 666.672 460.405 666.672 460.405 666.672C460.405 666.672 460.405 666.672 460.404 666.672C460.404 666.672 460.404 666.672 460.404 666.672C460.404 666.672 460.404 666.672 460.404 666.672C460.403 666.672 460.403 666.672 460.403 666.672C460.403 666.672 460.403 666.672 460.403 666.672C460.403 666.672 460.402 666.672 460.402 666.672C460.402 666.672 460.402 666.672 460.402 666.672C460.402 666.672 460.402 666.672 460.401 666.672C460.401 666.672 460.401 666.672 460.401 666.672C460.401 666.672 460.401 666.672 460.401 666.672C460.4 666.672 460.4 666.672 460.4 666.672C460.4 666.672 460.4 666.672 460.4 666.672C460.4 666.672 460.399 666.672 460.399 666.672C460.399 666.672 460.399 666.672 460.399 666.672C460.399 666.672 460.399 666.672 460.399 666.672C460.398 666.672 460.398 666.672 460.398 666.672C460.398 666.672 460.398 666.672 460.398 666.672C460.398 666.672 460.397 666.672 460.397 666.672C460.397 666.672 460.397 666.672 460.397 666.672C460.397 666.672 460.397 666.672 460.396 666.672C460.396 666.672 460.396 666.672 460.396 666.672C460.396 666.672 460.396 666.672 460.396 666.672C460.396 666.672 460.395 666.672 460.395 666.672C460.395 666.672 460.395 666.672 460.395 666.672C460.395 666.672 460.395 666.672 460.394 666.672C460.394 666.672 460.394 666.672 460.394 666.672C460.394 666.672 460.394 666.672 460.394 666.672C460.394 666.672 460.393 666.672 460.393 666.672C460.393 666.672 460.393 666.672 460.393 666.672C460.393 666.672 460.393 666.672 460.392 666.672C460.392 666.672 460.392 666.672 460.392 666.672C460.392 666.672 460.392 666.672 460.392 666.672C460.392 666.672 460.391 666.672 460.391 666.672C460.391 666.672 460.391 666.672 460.391 666.672C460.391 666.672 460.391 666.672 460.391 666.672C460.39 666.672 460.39 666.672 460.39 666.672C460.39 666.672 460.39 666.672 460.39 666.672C460.39 666.672 460.39 666.672 460.389 666.672C460.389 666.672 460.389 666.672 460.389 666.672C460.389 666.672 460.389 666.672 460.389 666.672C460.389 666.672 460.388 666.672 460.388 666.672C460.388 666.672 460.388 666.672 460.388 666.672C460.388 666.672 460.388 666.672 460.388 666.672C460.387 666.672 460.387 666.672 460.387 666.672C460.387 666.672 460.387 666.672 460.387 666.672C460.387 666.672 460.387 666.672 460.387 666.672C460.386 666.672 460.386 666.672 460.386 666.672C460.386 666.672 460.386 666.672 460.386 666.672C460.386 666.672 460.386 666.672 460.386 666.672C460.385 666.672 460.385 666.672 460.385 666.672C460.385 666.672 460.385 666.672 460.385 666.672C460.385 666.672 460.385 666.672 460.385 666.672C460.384 666.672 460.384 666.672 460.384 666.672C460.384 666.672 460.384 666.672 460.384 666.672C460.384 666.672 460.384 666.672 460.384 666.672C460.383 666.672 460.383 666.672 460.383 666.672C460.383 666.672 460.383 666.672 460.383 666.672C460.383 666.672 460.383 666.672 460.383 666.672C460.383 666.672 460.382 666.672 460.382 666.672C460.382 666.672 460.382 666.672 460.382 666.672C460.382 666.672 460.382 666.672 460.382 666.672C460.382 666.672 460.382 666.672 460.381 666.672C460.381 666.672 460.381 666.672 460.381 666.672C460.381 666.672 460.381 666.672 460.381 666.672C460.381 666.672 460.381 666.672 460.381 666.672C460.38 666.672 460.38 666.672 460.38 666.672C460.38 666.672 460.38 666.672 460.38 666.672C460.38 666.672 460.38 666.672 460.38 666.672C460.38 666.672 460.38 666.672 460.379 666.672C460.379 666.672 460.379 666.672 460.379 666.672C460.379 666.672 460.379 666.672 460.379 666.672C460.379 666.672 460.379 666.672 460.379 666.672C460.379 666.672 460.378 666.672 460.378 666.672C460.378 666.672 460.378 666.672 460.378 666.672C460.378 666.672 460.378 666.672 460.378 666.672C460.378 666.672 460.378 666.672 460.378 666.672C460.378 666.672 460.377 666.672 460.377 666.672C460.377 666.672 460.377 666.672 460.377 666.672C460.377 666.672 460.377 666.672 460.377 666.672C460.377 666.672 460.377 666.672 460.377 666.672C460.377 666.672 460.377 666.672 460.376 666.672C460.376 666.672 460.376 666.672 460.376 666.672C460.376 666.672 460.376 666.672 460.376 666.672C460.376 666.672 460.376 666.672 460.376 666.672C460.376 666.672 460.376 666.672 460.376 666.672C460.376 666.672 460.375 666.672 460.375 666.672C460.375 666.672 460.375 666.672 460.375 666.672C460.375 666.672 460.375 666.672 460.375 666.672C460.375 666.672 460.375 666.672 460.375 666.672C460.375 666.672 460.375 666.672 460.375 666.672C460.375 666.672 460.375 666.672 460.374 666.672C460.374 666.672 460.374 666.672 460.374 666.672C460.374 666.672 460.374 666.672 460.374 666.672C460.374 666.672 460.374 666.672 460.374 666.672C460.374 666.672 460.374 666.672 460.374 666.672C460.374 666.672 460.374 666.672 460.374 666.672C460.374 666.672 460.374 666.672 460.373 666.672C460.373 666.672 460.373 666.672 460.373 666.672C460.373 666.672 460.373 666.672 460.373 666.672C460.373 666.672 460.373 666.672 460.373 666.672C460.373 666.672 460.373 666.672 460.373 666.672C460.373 666.672 460.373 666.672 460.373 666.672C460.373 666.672 460.373 666.672 460.373 666.672C460.373 666.672 460.373 666.672 460.373 666.672C460.373 666.672 460.372 666.672 460.372 666.672C460.372 666.672 460.372 666.672 460.372 666.672C460.372 666.672 460.372 666.672 460.372 666.672C460.372 666.672 460.372 666.672 460.372 666.672C460.372 666.672 460.372 666.672 460.372 666.672C460.372 666.672 460.372 666.672 460.372 666.672C460.372 666.672 460.372 666.672 460.372 666.672C460.372 666.672 460.372 666.672 460.372 666.672C460.372 666.672 460.372 666.672 460.372 666.672C460.372 666.672 460.372 666.672 460.372 666.672C460.372 666.672 460.372 666.672 460.372 666.672C460.372 666.672 460.372 666.672 460.372 666.672C460.372 666.672 460.372 666.672 460.372 666.672C460.372 666.672 460.372 666.672 460.372 666.672C460.372 666.672 460.372 666.672 460.372 666.672H460.371C460.371 666.672 460.371 666.672 460.371 666.672C460.371 666.672 460.371 666.672 460.371 666.672C460.371 666.672 460.371 698.672 460.371 730.672C460.371 730.672 460.371 730.672 460.371 730.672C460.371 730.672 460.371 730.672 460.371 730.672H460.371C460.372 730.672 460.372 730.672 460.372 730.672C460.372 730.672 460.372 730.672 460.372 730.672C460.372 730.672 460.372 730.672 460.372 730.672C460.372 730.672 460.372 730.672 460.372 730.672C460.372 730.672 460.372 730.672 460.372 730.672C460.372 730.672 460.372 730.672 460.372 730.672C460.372 730.672 460.372 730.672 460.372 730.672C460.372 730.672 460.372 730.672 460.372 730.672C460.372 730.672 460.372 730.672 460.372 730.672C460.372 730.672 460.372 730.672 460.372 730.672C460.372 730.672 460.372 730.672 460.372 730.672C460.372 730.672 460.372 730.672 460.372 730.672C460.372 730.672 460.372 730.672 460.372 730.672C460.372 730.672 460.372 730.672 460.372 730.672C460.373 730.672 460.373 730.672 460.373 730.672C460.373 730.672 460.373 730.672 460.373 730.672C460.373 730.672 460.373 730.672 460.373 730.672C460.373 730.672 460.373 730.672 460.373 730.672C460.373 730.672 460.373 730.672 460.373 730.672C460.373 730.672 460.373 730.672 460.373 730.672C460.373 730.672 460.373 730.672 460.373 730.672C460.374 730.672 460.374 730.672 460.374 730.672C460.374 730.672 460.374 730.672 460.374 730.672C460.374 730.672 460.374 730.672 460.374 730.672C460.374 730.672 460.374 730.672 460.374 730.672C460.374 730.672 460.374 730.672 460.374 730.672C460.374 730.672 460.375 730.672 460.375 730.672C460.375 730.672 460.375 730.672 460.375 730.672C460.375 730.672 460.375 730.672 460.375 730.672C460.375 730.672 460.375 730.672 460.375 730.672C460.375 730.672 460.375 730.672 460.375 730.672C460.376 730.672 460.376 730.672 460.376 730.672C460.376 730.672 460.376 730.672 460.376 730.672C460.376 730.672 460.376 730.672 460.376 730.672C460.376 730.672 460.376 730.672 460.377 730.672C460.377 730.672 460.377 730.672 460.377 730.672C460.377 730.672 460.377 730.672 460.377 730.672C460.377 730.672 460.377 730.672 460.377 730.672C460.377 730.672 460.378 730.672 460.378 730.672C460.378 730.672 460.378 730.672 460.378 730.672C460.378 730.672 460.378 730.672 460.378 730.672C460.378 730.672 460.378 730.672 460.379 730.672C460.379 730.672 460.379 730.672 460.379 730.672C460.379 730.672 460.379 730.672 460.379 730.672C460.379 730.672 460.379 730.672 460.38 730.672C460.38 730.672 460.38 730.672 460.38 730.672C460.38 730.672 460.38 730.672 460.38 730.672C460.38 730.672 460.381 730.672 460.381 730.672C460.381 730.672 460.381 730.672 460.381 730.672C460.381 730.672 460.381 730.672 460.381 730.672C460.382 730.672 460.382 730.672 460.382 730.672C460.382 730.672 460.382 730.672 460.382 730.672C460.382 730.672 460.382 730.672 460.383 730.672C460.383 730.672 460.383 730.672 460.383 730.672C460.383 730.672 460.383 730.672 460.383 730.672C460.384 730.672 460.384 730.672 460.384 730.672C460.384 730.672 460.384 730.672 460.384 730.672C460.385 730.672 460.385 730.672 460.385 730.672C460.385 730.672 460.385 730.672 460.385 730.672C460.385 730.672 460.386 730.672 460.386 730.672C460.386 730.672 460.386 730.672 460.386 730.672C460.386 730.672 460.387 730.672 460.387 730.672C460.387 730.672 460.387 730.672 460.387 730.672C460.387 730.672 460.388 730.672 460.388 730.672C460.388 730.672 460.388 730.672 460.388 730.672C460.388 730.672 460.389 730.672 460.389 730.672C460.389 730.672 460.389 730.672 460.389 730.672C460.389 730.672 460.39 730.672 460.39 730.672C460.39 730.672 460.39 730.672 460.39 730.672C460.391 730.672 460.391 730.672 460.391 730.672C460.391 730.672 460.391 730.672 460.391 730.672C460.392 730.672 460.392 730.672 460.392 730.672C460.392 730.672 460.392 730.672 460.393 730.672C460.393 730.672 460.393 730.672 460.393 730.672C460.393 730.672 460.394 730.672 460.394 730.672C460.394 730.672 460.394 730.672 460.394 730.672C460.395 730.672 460.395 730.672 460.395 730.672C460.395 730.672 460.395 730.672 460.396 730.672C460.396 730.672 460.396 730.672 460.396 730.672C460.397 730.672 460.397 730.672 460.397 730.672C460.397 730.672 460.397 730.672 460.398 730.672C460.398 730.672 460.398 730.672 460.398 730.672C460.399 730.672 460.399 730.672 460.399 730.672C460.399 730.672 460.399 730.672 460.4 730.672C460.4 730.672 460.4 730.672 460.4 730.672C460.401 730.672 460.401 730.672 460.401 730.672C460.401 730.672 460.402 730.672 460.402 730.672C460.402 730.672 460.402 730.672 460.403 730.672C460.403 730.672 460.403 730.672 460.403 730.672C460.404 730.672 460.404 730.672 460.404 730.672C460.404 730.672 460.405 730.672 460.405 730.672C460.405 730.672 460.405 730.672 460.406 730.672C460.406 730.672 460.406 730.672 460.406 730.672C460.407 730.672 460.407 730.672 460.407 730.672C460.407 730.672 460.408 730.672 460.408 730.672C460.408 730.672 460.408 730.672 460.409 730.672C460.409 730.672 460.409 730.672 460.41 730.672C460.41 730.672 460.41 730.672 460.41 730.672C460.411 730.672 460.411 730.672 460.411 730.672C460.411 730.672 460.412 730.672 460.412 730.672C460.412 730.672 460.413 730.672 460.413 730.672C460.413 730.672 460.414 730.672 460.414 730.672C460.414 730.672 460.414 730.672 460.415 730.672C460.415 730.672 460.415 730.672 460.416 730.672V666.672ZM460.701 666.673C431.482 666.413 407.703 659.384 388.752 646.886L353.517 700.313C384.405 720.684 420.706 730.319 460.131 730.67L460.701 666.673ZM388.695 646.848C369.585 634.304 354.149 615.894 342.774 590.124L284.224 615.968C299.909 651.502 322.845 680.179 353.574 700.351L388.695 646.848ZM342.774 590.124C331.475 564.526 325.243 532.394 325.243 492.82H261.243C261.243 538.858 268.463 580.261 284.224 615.968L342.774 590.124ZM325.243 492.82V402.698H261.243V492.82H325.243ZM325.243 402.698C325.243 363.483 331.458 331.553 342.786 305.826L284.212 280.036C268.48 315.767 261.243 356.912 261.243 402.698H325.243ZM342.774 305.853C354.118 280.153 369.564 261.872 388.734 249.482L353.993 195.732C323.019 215.752 299.94 244.405 284.224 280.009L342.774 305.853ZM388.734 249.482C407.937 237.07 431.376 230.223 460.416 230.223V166.223C420.812 166.223 384.934 175.733 353.993 195.732L388.734 249.482ZM460.416 230.223C489.511 230.223 512.906 237.02 532.039 249.445L566.896 195.769C535.885 175.631 499.963 166.223 460.416 166.223V230.223ZM532.097 249.482C551.267 261.872 566.713 280.153 578.057 305.853L636.607 280.009C620.892 244.405 597.812 215.752 566.838 195.732L532.097 249.482ZM578.057 305.853C589.367 331.477 595.589 363.466 595.589 402.698H659.589C659.589 356.929 652.356 315.69 636.607 280.009L578.057 305.853ZM595.589 402.698V492.82H659.589V402.698H595.589Z" fill="#325BFF"/>
<path d="M424.029 578.815H557.798L752.718 838.709H618.949L424.029 578.815Z" fill="#093D9D"/>
</g>
</svg>
