<svg width="575" height="747" viewBox="0 0 575 747" fill="none" xmlns="http://www.w3.org/2000/svg">
<path d="M497.92 152.32C477.74 110.584 453.64 88.183 416.108 65.7098C378.576 43.2366 334.089 32 282.416 32C230.743 32 186.255 43.2366 148.799 65.7098C111.268 88.183 82.45 120.288 62.27 162.023C42.09 203.759 32 253.292 32 310.698V400.438C32 457.844 42.09 507.377 62.27 549.113C82.45 590.849 111.268 622.953 148.799 645.426C186.255 667.9 230.819 679.136 282.416 679.136C334.012 679.136 378.576 667.9 416.032 645.426C453.564 622.953 482.381 590.849 502.561 549.113C522.741 507.377 532.831 457.844 532.831 400.438V310.698C532.831 253.292 522.741 203.759 502.561 162.023L497.92 152.32ZM449.589 400.82C449.589 443.626 442.862 480.394 429.332 511.046C415.802 541.698 396.616 565.242 371.697 581.6C346.778 597.958 316.737 606.366 282.416 606.672C248.094 606.366 218.054 598.034 193.134 581.6C168.215 565.242 149.029 541.698 135.499 511.046C121.969 480.394 115.243 443.626 115.243 400.82V310.698C115.243 268.198 121.969 231.66 135.499 200.931C149.029 170.279 168.292 146.812 193.364 130.607C218.436 114.402 248.094 106.223 282.416 106.223C316.737 106.223 346.395 114.325 371.468 130.607C396.54 146.812 415.802 170.279 429.332 200.931C442.862 231.583 449.589 268.198 449.589 310.698V400.82Z" fill="#325BFF"/>
<path d="M497.92 152.32L526.788 138.512L526.759 138.451L526.729 138.39L497.92 152.32ZM148.799 65.7098L165.239 93.1644L165.251 93.157L165.263 93.1496L148.799 65.7098ZM148.799 645.426L165.263 617.987L165.251 617.979L165.239 617.972L148.799 645.426ZM416.032 645.426L399.593 617.972L399.58 617.979L399.568 617.987L416.032 645.426ZM502.561 162.023L473.693 175.831L473.723 175.892L473.752 175.953L502.561 162.023ZM193.134 581.6L210.752 554.886L210.724 554.867L210.695 554.848L193.134 581.6ZM135.499 200.931L106.224 188.009L106.218 188.023L106.212 188.036L135.499 200.931ZM371.468 130.607L354.039 157.445L354.068 157.463L354.097 157.482L371.468 130.607ZM526.729 138.39C503.278 89.8887 474.223 63.2097 432.547 38.2552L399.669 93.1644C433.057 113.156 452.202 131.279 469.111 166.25L526.729 138.39ZM432.547 38.2552C389.223 12.3133 338.834 0 282.416 0V64C329.343 64 367.93 74.1599 399.669 93.1644L432.547 38.2552ZM282.416 0C226.004 0 175.601 12.3105 132.336 38.27L165.263 93.1496C196.908 74.1627 235.481 64 282.416 64V0ZM132.36 38.2552C89.1361 64.1369 56.1803 101.106 33.4609 148.094L91.0791 175.953C108.72 139.469 133.399 112.229 165.239 93.1644L132.36 38.2552ZM33.4609 148.094C10.7423 195.08 0 249.588 0 310.698H64C64 256.996 73.4377 212.439 91.0791 175.953L33.4609 148.094ZM0 310.698V400.438H64V310.698H0ZM0 400.438C0 461.548 10.7423 516.056 33.4609 563.042L91.0791 535.183C73.4377 498.697 64 454.14 64 400.438H0ZM33.4609 563.042C56.1803 610.03 89.1361 646.999 132.36 672.881L165.239 617.972C133.399 598.907 108.72 571.667 91.0791 535.183L33.4609 563.042ZM132.336 672.866C175.605 698.828 226.085 711.136 282.416 711.136V647.136C235.553 647.136 196.905 636.971 165.263 617.987L132.336 672.866ZM282.416 711.136C338.746 711.136 389.226 698.828 432.496 672.866L399.568 617.987C367.927 636.971 329.278 647.136 282.416 647.136V711.136ZM432.471 672.881C475.695 646.999 508.651 610.03 531.37 563.042L473.752 535.183C456.111 571.667 431.432 598.907 399.593 617.972L432.471 672.881ZM531.37 563.042C554.089 516.056 564.831 461.548 564.831 400.438H500.831C500.831 454.14 491.393 498.697 473.752 535.183L531.37 563.042ZM564.831 400.438V310.698H500.831V400.438H564.831ZM564.831 310.698C564.831 249.588 554.089 195.08 531.37 148.094L473.752 175.953C491.393 212.439 500.831 256.996 500.831 310.698H564.831ZM531.429 148.216L526.788 138.512L469.052 166.128L473.693 175.831L531.429 148.216ZM417.589 400.82C417.589 440.394 411.356 472.526 400.057 498.124L458.607 523.968C474.368 488.261 481.589 446.858 481.589 400.82H417.589ZM400.057 498.124C388.682 523.894 373.246 542.304 354.136 554.848L389.257 608.351C419.986 588.179 442.922 559.502 458.607 523.968L400.057 498.124ZM354.136 554.848C335.117 567.333 311.293 574.413 282.131 574.673L282.701 638.67C322.181 638.319 358.438 628.582 389.257 608.351L354.136 554.848ZM282.416 574.672C282.415 574.672 282.415 574.672 282.415 574.672C282.414 574.672 282.414 574.672 282.414 574.672C282.414 574.672 282.413 574.672 282.413 574.672C282.413 574.672 282.412 574.672 282.412 574.672C282.412 574.672 282.412 574.672 282.411 574.672C282.411 574.672 282.411 574.672 282.41 574.672C282.41 574.672 282.41 574.672 282.41 574.672C282.409 574.672 282.409 574.672 282.409 574.672C282.408 574.672 282.408 574.672 282.408 574.672C282.408 574.672 282.407 574.672 282.407 574.672C282.407 574.672 282.407 574.672 282.406 574.672C282.406 574.672 282.406 574.672 282.406 574.672C282.405 574.672 282.405 574.672 282.405 574.672C282.405 574.672 282.404 574.672 282.404 574.672C282.404 574.672 282.404 574.672 282.403 574.672C282.403 574.672 282.403 574.672 282.403 574.672C282.402 574.672 282.402 574.672 282.402 574.672C282.402 574.672 282.401 574.672 282.401 574.672C282.401 574.672 282.401 574.672 282.4 574.672C282.4 574.672 282.4 574.672 282.4 574.672C282.399 574.672 282.399 574.672 282.399 574.672C282.399 574.672 282.399 574.672 282.398 574.672C282.398 574.672 282.398 574.672 282.398 574.672C282.397 574.672 282.397 574.672 282.397 574.672C282.397 574.672 282.397 574.672 282.396 574.672C282.396 574.672 282.396 574.672 282.396 574.672C282.395 574.672 282.395 574.672 282.395 574.672C282.395 574.672 282.395 574.672 282.394 574.672C282.394 574.672 282.394 574.672 282.394 574.672C282.394 574.672 282.393 574.672 282.393 574.672C282.393 574.672 282.393 574.672 282.393 574.672C282.392 574.672 282.392 574.672 282.392 574.672C282.392 574.672 282.392 574.672 282.391 574.672C282.391 574.672 282.391 574.672 282.391 574.672C282.391 574.672 282.391 574.672 282.39 574.672C282.39 574.672 282.39 574.672 282.39 574.672C282.39 574.672 282.389 574.672 282.389 574.672C282.389 574.672 282.389 574.672 282.389 574.672C282.389 574.672 282.388 574.672 282.388 574.672C282.388 574.672 282.388 574.672 282.388 574.672C282.388 574.672 282.387 574.672 282.387 574.672C282.387 574.672 282.387 574.672 282.387 574.672C282.387 574.672 282.386 574.672 282.386 574.672C282.386 574.672 282.386 574.672 282.386 574.672C282.386 574.672 282.385 574.672 282.385 574.672C282.385 574.672 282.385 574.672 282.385 574.672C282.385 574.672 282.385 574.672 282.384 574.672C282.384 574.672 282.384 574.672 282.384 574.672C282.384 574.672 282.384 574.672 282.383 574.672C282.383 574.672 282.383 574.672 282.383 574.672C282.383 574.672 282.383 574.672 282.383 574.672C282.382 574.672 282.382 574.672 282.382 574.672C282.382 574.672 282.382 574.672 282.382 574.672C282.382 574.672 282.382 574.672 282.381 574.672C282.381 574.672 282.381 574.672 282.381 574.672C282.381 574.672 282.381 574.672 282.381 574.672C282.381 574.672 282.38 574.672 282.38 574.672C282.38 574.672 282.38 574.672 282.38 574.672C282.38 574.672 282.38 574.672 282.38 574.672C282.379 574.672 282.379 574.672 282.379 574.672C282.379 574.672 282.379 574.672 282.379 574.672C282.379 574.672 282.379 574.672 282.379 574.672C282.378 574.672 282.378 574.672 282.378 574.672C282.378 574.672 282.378 574.672 282.378 574.672C282.378 574.672 282.378 574.672 282.378 574.672C282.378 574.672 282.377 574.672 282.377 574.672C282.377 574.672 282.377 574.672 282.377 574.672C282.377 574.672 282.377 574.672 282.377 574.672C282.377 574.672 282.377 574.672 282.377 574.672C282.376 574.672 282.376 574.672 282.376 574.672C282.376 574.672 282.376 574.672 282.376 574.672C282.376 574.672 282.376 574.672 282.376 574.672C282.376 574.672 282.376 574.672 282.375 574.672C282.375 574.672 282.375 574.672 282.375 574.672C282.375 574.672 282.375 574.672 282.375 574.672C282.375 574.672 282.375 574.672 282.375 574.672C282.375 574.672 282.375 574.672 282.375 574.672C282.375 574.672 282.374 574.672 282.374 574.672C282.374 574.672 282.374 574.672 282.374 574.672C282.374 574.672 282.374 574.672 282.374 574.672C282.374 574.672 282.374 574.672 282.374 574.672C282.374 574.672 282.374 574.672 282.374 574.672C282.374 574.672 282.374 574.672 282.373 574.672C282.373 574.672 282.373 574.672 282.373 574.672C282.373 574.672 282.373 574.672 282.373 574.672C282.373 574.672 282.373 574.672 282.373 574.672C282.373 574.672 282.373 574.672 282.373 574.672C282.373 574.672 282.373 574.672 282.373 574.672C282.373 574.672 282.373 574.672 282.373 574.672C282.373 574.672 282.373 574.672 282.372 574.672C282.372 574.672 282.372 574.672 282.372 574.672C282.372 574.672 282.372 574.672 282.372 574.672C282.372 574.672 282.372 574.672 282.372 574.672C282.372 574.672 282.372 574.672 282.372 574.672C282.372 574.672 282.372 574.672 282.372 574.672C282.372 574.672 282.372 574.672 282.372 574.672C282.372 574.672 282.372 574.672 282.372 574.672C282.372 574.672 282.372 574.672 282.372 574.672C282.372 574.672 282.372 574.672 282.372 574.672C282.372 574.672 282.372 574.672 282.372 574.672C282.372 574.672 282.372 574.672 282.372 574.672C282.372 574.672 282.372 574.672 282.372 574.672C282.372 574.672 282.372 574.672 282.372 574.672C282.372 574.672 282.372 574.672 282.371 574.672C282.371 574.672 282.371 574.672 282.371 574.672C282.371 574.672 282.371 574.672 282.371 574.672C282.371 574.672 282.371 574.672 282.371 574.672C282.371 574.672 282.371 574.672 282.371 574.672C282.371 606.672 282.371 638.672 282.371 638.672C282.371 638.672 282.371 638.672 282.371 638.672C282.371 638.672 282.371 638.672 282.371 638.672C282.371 638.672 282.371 638.672 282.371 638.672C282.371 638.672 282.372 638.672 282.372 638.672C282.372 638.672 282.372 638.672 282.372 638.672C282.372 638.672 282.372 638.672 282.372 638.672C282.372 638.672 282.372 638.672 282.372 638.672C282.372 638.672 282.372 638.672 282.372 638.672C282.372 638.672 282.372 638.672 282.372 638.672C282.372 638.672 282.372 638.672 282.372 638.672C282.372 638.672 282.372 638.672 282.372 638.672C282.372 638.672 282.372 638.672 282.372 638.672C282.372 638.672 282.372 638.672 282.372 638.672C282.372 638.672 282.372 638.672 282.372 638.672C282.372 638.672 282.372 638.672 282.372 638.672C282.372 638.672 282.372 638.672 282.372 638.672C282.372 638.672 282.372 638.672 282.372 638.672C282.372 638.672 282.372 638.672 282.372 638.672C282.373 638.672 282.373 638.672 282.373 638.672C282.373 638.672 282.373 638.672 282.373 638.672C282.373 638.672 282.373 638.672 282.373 638.672C282.373 638.672 282.373 638.672 282.373 638.672C282.373 638.672 282.373 638.672 282.373 638.672C282.373 638.672 282.373 638.672 282.373 638.672C282.373 638.672 282.373 638.672 282.373 638.672C282.373 638.672 282.373 638.672 282.373 638.672C282.374 638.672 282.374 638.672 282.374 638.672C282.374 638.672 282.374 638.672 282.374 638.672C282.374 638.672 282.374 638.672 282.374 638.672C282.374 638.672 282.374 638.672 282.374 638.672C282.374 638.672 282.374 638.672 282.374 638.672C282.374 638.672 282.374 638.672 282.374 638.672C282.375 638.672 282.375 638.672 282.375 638.672C282.375 638.672 282.375 638.672 282.375 638.672C282.375 638.672 282.375 638.672 282.375 638.672C282.375 638.672 282.375 638.672 282.375 638.672C282.375 638.672 282.375 638.672 282.375 638.672C282.375 638.672 282.376 638.672 282.376 638.672C282.376 638.672 282.376 638.672 282.376 638.672C282.376 638.672 282.376 638.672 282.376 638.672C282.376 638.672 282.376 638.672 282.376 638.672C282.376 638.672 282.376 638.672 282.376 638.672C282.377 638.672 282.377 638.672 282.377 638.672C282.377 638.672 282.377 638.672 282.377 638.672C282.377 638.672 282.377 638.672 282.377 638.672C282.377 638.672 282.377 638.672 282.377 638.672C282.377 638.672 282.378 638.672 282.378 638.672C282.378 638.672 282.378 638.672 282.378 638.672C282.378 638.672 282.378 638.672 282.378 638.672C282.378 638.672 282.378 638.672 282.378 638.672C282.378 638.672 282.379 638.672 282.379 638.672C282.379 638.672 282.379 638.672 282.379 638.672C282.379 638.672 282.379 638.672 282.379 638.672C282.379 638.672 282.379 638.672 282.379 638.672C282.38 638.672 282.38 638.672 282.38 638.672C282.38 638.672 282.38 638.672 282.38 638.672C282.38 638.672 282.38 638.672 282.38 638.672C282.38 638.672 282.38 638.672 282.381 638.672C282.381 638.672 282.381 638.672 282.381 638.672C282.381 638.672 282.381 638.672 282.381 638.672C282.381 638.672 282.381 638.672 282.381 638.672C282.382 638.672 282.382 638.672 282.382 638.672C282.382 638.672 282.382 638.672 282.382 638.672C282.382 638.672 282.382 638.672 282.382 638.672C282.382 638.672 282.383 638.672 282.383 638.672C282.383 638.672 282.383 638.672 282.383 638.672C282.383 638.672 282.383 638.672 282.383 638.672C282.383 638.672 282.383 638.672 282.384 638.672C282.384 638.672 282.384 638.672 282.384 638.672C282.384 638.672 282.384 638.672 282.384 638.672C282.384 638.672 282.384 638.672 282.385 638.672C282.385 638.672 282.385 638.672 282.385 638.672C282.385 638.672 282.385 638.672 282.385 638.672C282.385 638.672 282.385 638.672 282.386 638.672C282.386 638.672 282.386 638.672 282.386 638.672C282.386 638.672 282.386 638.672 282.386 638.672C282.386 638.672 282.386 638.672 282.387 638.672C282.387 638.672 282.387 638.672 282.387 638.672C282.387 638.672 282.387 638.672 282.387 638.672C282.387 638.672 282.388 638.672 282.388 638.672C282.388 638.672 282.388 638.672 282.388 638.672C282.388 638.672 282.388 638.672 282.388 638.672C282.388 638.672 282.389 638.672 282.389 638.672C282.389 638.672 282.389 638.672 282.389 638.672C282.389 638.672 282.389 638.672 282.389 638.672C282.39 638.672 282.39 638.672 282.39 638.672C282.39 638.672 282.39 638.672 282.39 638.672C282.39 638.672 282.39 638.672 282.391 638.672C282.391 638.672 282.391 638.672 282.391 638.672C282.391 638.672 282.391 638.672 282.391 638.672C282.391 638.672 282.392 638.672 282.392 638.672C282.392 638.672 282.392 638.672 282.392 638.672C282.392 638.672 282.392 638.672 282.392 638.672C282.393 638.672 282.393 638.672 282.393 638.672C282.393 638.672 282.393 638.672 282.393 638.672C282.393 638.672 282.394 638.672 282.394 638.672C282.394 638.672 282.394 638.672 282.394 638.672C282.394 638.672 282.394 638.672 282.394 638.672C282.395 638.672 282.395 638.672 282.395 638.672C282.395 638.672 282.395 638.672 282.395 638.672C282.395 638.672 282.396 638.672 282.396 638.672C282.396 638.672 282.396 638.672 282.396 638.672C282.396 638.672 282.396 638.672 282.396 638.672C282.397 638.672 282.397 638.672 282.397 638.672C282.397 638.672 282.397 638.672 282.397 638.672C282.397 638.672 282.398 638.672 282.398 638.672C282.398 638.672 282.398 638.672 282.398 638.672C282.398 638.672 282.398 638.672 282.399 638.672C282.399 638.672 282.399 638.672 282.399 638.672C282.399 638.672 282.399 638.672 282.399 638.672C282.399 638.672 282.4 638.672 282.4 638.672C282.4 638.672 282.4 638.672 282.4 638.672C282.4 638.672 282.4 638.672 282.401 638.672C282.401 638.672 282.401 638.672 282.401 638.672C282.401 638.672 282.401 638.672 282.401 638.672C282.402 638.672 282.402 638.672 282.402 638.672C282.402 638.672 282.402 638.672 282.402 638.672C282.402 638.672 282.403 638.672 282.403 638.672C282.403 638.672 282.403 638.672 282.403 638.672C282.403 638.672 282.403 638.672 282.404 638.672C282.404 638.672 282.404 638.672 282.404 638.672C282.404 638.672 282.404 638.672 282.404 638.672C282.405 638.672 282.405 638.672 282.405 638.672C282.405 638.672 282.405 638.672 282.405 638.672C282.406 638.672 282.406 638.672 282.406 638.672C282.406 638.672 282.406 638.672 282.406 638.672C282.406 638.672 282.407 638.672 282.407 638.672C282.407 638.672 282.407 638.672 282.407 638.672C282.407 638.672 282.407 638.672 282.408 638.672C282.408 638.672 282.408 638.672 282.408 638.672C282.408 638.672 282.408 638.672 282.408 638.672C282.409 638.672 282.409 638.672 282.409 638.672C282.409 638.672 282.409 638.672 282.409 638.672C282.409 638.672 282.41 638.672 282.41 638.672C282.41 638.672 282.41 638.672 282.41 638.672C282.41 638.672 282.411 638.672 282.411 638.672C282.411 638.672 282.411 638.672 282.411 638.672C282.411 638.672 282.411 638.672 282.412 638.672C282.412 638.672 282.412 638.672 282.412 638.672C282.412 638.672 282.412 638.672 282.412 638.672C282.413 638.672 282.413 638.672 282.413 638.672C282.413 638.672 282.413 638.672 282.413 638.672C282.413 638.672 282.414 638.672 282.414 638.672C282.414 638.672 282.414 638.672 282.414 638.672C282.414 638.672 282.415 638.672 282.415 638.672C282.415 638.672 282.415 638.672 282.415 638.672C282.415 638.672 282.415 638.672 282.416 638.672C282.416 638.672 282.416 638.672 282.416 638.672C282.416 638.672 282.416 638.672 282.416 638.672C282.417 638.672 282.417 638.672 282.417 638.672C282.417 638.672 282.417 638.672 282.417 638.672C282.418 638.672 282.418 638.672 282.418 638.672C282.418 638.672 282.418 638.672 282.418 638.672C282.418 638.672 282.419 638.672 282.419 638.672C282.419 638.672 282.419 638.672 282.419 638.672C282.419 638.672 282.419 638.672 282.42 638.672C282.42 638.672 282.42 638.672 282.42 638.672C282.42 638.672 282.42 638.672 282.42 638.672C282.421 638.672 282.421 638.672 282.421 638.672C282.421 638.672 282.421 638.672 282.421 638.672C282.422 638.672 282.422 638.672 282.422 638.672C282.422 638.672 282.422 638.672 282.422 638.672C282.422 638.672 282.423 638.672 282.423 638.672C282.423 638.672 282.423 638.672 282.423 638.672C282.423 638.672 282.423 638.672 282.424 638.672C282.424 638.672 282.424 638.672 282.424 638.672C282.424 638.672 282.424 638.672 282.424 638.672C282.425 638.672 282.425 638.672 282.425 638.672C282.425 638.672 282.425 638.672 282.425 638.672C282.425 638.672 282.426 638.672 282.426 638.672C282.426 638.672 282.426 638.672 282.426 638.672C282.426 638.672 282.427 638.672 282.427 638.672C282.427 638.672 282.427 638.672 282.427 638.672C282.427 638.672 282.427 638.672 282.428 638.672C282.428 638.672 282.428 638.672 282.428 638.672C282.428 638.672 282.428 638.672 282.428 638.672C282.429 638.672 282.429 638.672 282.429 638.672C282.429 638.672 282.429 638.672 282.429 638.672C282.429 638.672 282.43 638.672 282.43 638.672C282.43 638.672 282.43 638.672 282.43 638.672C282.43 638.672 282.43 638.672 282.431 638.672C282.431 638.672 282.431 638.672 282.431 638.672C282.431 638.672 282.431 638.672 282.431 638.672C282.432 638.672 282.432 638.672 282.432 638.672C282.432 638.672 282.432 638.672 282.432 638.672C282.432 638.672 282.432 638.672 282.433 638.672C282.433 638.672 282.433 638.672 282.433 638.672C282.433 638.672 282.433 638.672 282.433 638.672C282.434 638.672 282.434 638.672 282.434 638.672C282.434 638.672 282.434 638.672 282.434 638.672C282.434 638.672 282.435 638.672 282.435 638.672C282.435 638.672 282.435 638.672 282.435 638.672C282.435 638.672 282.435 638.672 282.436 638.672C282.436 638.672 282.436 638.672 282.436 638.672C282.436 638.672 282.436 638.672 282.436 638.672C282.436 638.672 282.437 638.672 282.437 638.672C282.437 638.672 282.437 638.672 282.437 638.672C282.437 638.672 282.437 638.672 282.438 638.672C282.438 638.672 282.438 638.672 282.438 638.672C282.438 638.672 282.438 638.672 282.438 638.672C282.438 638.672 282.439 638.672 282.439 638.672C282.439 638.672 282.439 638.672 282.439 638.672C282.439 638.672 282.439 638.672 282.439 638.672C282.44 638.672 282.44 638.672 282.44 638.672C282.44 638.672 282.44 638.672 282.44 638.672C282.44 638.672 282.44 638.672 282.441 638.672C282.441 638.672 282.441 638.672 282.441 638.672C282.441 638.672 282.441 638.672 282.441 638.672C282.441 638.672 282.442 638.672 282.442 638.672C282.442 638.672 282.442 638.672 282.442 638.672C282.442 638.672 282.442 638.672 282.442 638.672C282.443 638.672 282.443 638.672 282.443 638.672C282.443 638.672 282.443 638.672 282.443 638.672C282.443 638.672 282.443 638.672 282.444 638.672C282.444 638.672 282.444 638.672 282.444 638.672C282.444 638.672 282.444 638.672 282.444 638.672C282.444 638.672 282.444 638.672 282.445 638.672C282.445 638.672 282.445 638.672 282.445 638.672C282.445 638.672 282.445 638.672 282.445 638.672C282.445 638.672 282.445 638.672 282.446 638.672C282.446 638.672 282.446 638.672 282.446 638.672C282.446 638.672 282.446 638.672 282.446 638.672C282.446 638.672 282.447 638.672 282.447 638.672C282.447 638.672 282.447 638.672 282.447 638.672C282.447 638.672 282.447 638.672 282.447 638.672C282.447 638.672 282.447 638.672 282.448 638.672C282.448 638.672 282.448 638.672 282.448 638.672C282.448 638.672 282.448 638.672 282.448 638.672C282.448 638.672 282.448 638.672 282.449 638.672C282.449 638.672 282.449 638.672 282.449 638.672C282.449 638.672 282.449 638.672 282.449 638.672C282.449 638.672 282.449 638.672 282.449 638.672C282.45 638.672 282.45 638.672 282.45 638.672C282.45 638.672 282.45 638.672 282.45 638.672C282.45 638.672 282.45 638.672 282.45 638.672C282.45 638.672 282.451 638.672 282.451 638.672C282.451 638.672 282.451 638.672 282.451 638.672C282.451 638.672 282.451 638.672 282.451 638.672C282.451 638.672 282.451 638.672 282.451 638.672C282.452 638.672 282.452 638.672 282.452 638.672C282.452 638.672 282.452 638.672 282.452 638.672C282.452 638.672 282.452 638.672 282.452 638.672C282.452 638.672 282.452 638.672 282.453 638.672C282.453 638.672 282.453 638.672 282.453 638.672C282.453 638.672 282.453 638.672 282.453 638.672C282.453 638.672 282.453 638.672 282.453 638.672C282.453 638.672 282.453 638.672 282.454 638.672C282.454 638.672 282.454 638.672 282.454 638.672C282.454 638.672 282.454 638.672 282.454 638.672C282.454 638.672 282.454 638.672 282.454 638.672C282.454 638.672 282.454 638.672 282.454 638.672C282.455 638.672 282.455 638.672 282.455 638.672C282.455 638.672 282.455 638.672 282.455 638.672C282.455 638.672 282.455 638.672 282.455 638.672C282.455 638.672 282.455 638.672 282.455 638.672C282.455 638.672 282.455 638.672 282.456 638.672C282.456 638.672 282.456 638.672 282.456 638.672C282.456 638.672 282.456 638.672 282.456 638.672C282.456 638.672 282.456 638.672 282.456 638.672C282.456 638.672 282.456 638.672 282.456 638.672C282.456 638.672 282.456 638.672 282.457 638.672C282.457 638.672 282.457 638.672 282.457 638.672C282.457 638.672 282.457 638.672 282.457 638.672C282.457 638.672 282.457 638.672 282.457 638.672C282.457 638.672 282.457 638.672 282.457 638.672C282.457 638.672 282.457 638.672 282.457 638.672C282.457 638.672 282.457 638.672 282.458 638.672C282.458 638.672 282.458 638.672 282.458 638.672C282.458 638.672 282.458 638.672 282.458 638.672C282.458 638.672 282.458 638.672 282.458 638.672C282.458 638.672 282.458 638.672 282.458 638.672C282.458 638.672 282.458 638.672 282.458 638.672C282.458 638.672 282.458 638.672 282.458 638.672C282.458 638.672 282.458 638.672 282.458 638.672C282.458 638.672 282.459 638.672 282.459 638.672C282.459 638.672 282.459 638.672 282.459 638.672C282.459 638.672 282.459 638.672 282.459 638.672C282.459 638.672 282.459 638.672 282.459 638.672C282.459 638.672 282.459 638.672 282.459 638.672C282.459 638.672 282.459 638.672 282.459 638.672C282.459 638.672 282.459 638.672 282.459 638.672C282.459 638.672 282.459 638.672 282.459 638.672C282.459 638.672 282.459 638.672 282.459 638.672C282.459 638.672 282.459 638.672 282.459 638.672C282.459 638.672 282.459 638.672 282.459 638.672C282.459 638.672 282.459 638.672 282.459 638.672C282.459 638.672 282.46 638.672 282.46 638.672C282.46 638.672 282.46 638.672 282.46 638.672C282.46 638.672 282.46 638.672 282.46 638.672C282.46 638.672 282.46 638.672 282.46 638.672C282.46 638.672 282.46 638.672 282.46 638.672C282.46 638.672 282.46 638.672 282.46 638.672C282.46 638.672 282.46 638.672 282.46 638.672C282.46 638.672 282.46 638.672 282.46 638.672C282.46 638.672 282.46 606.672 282.46 574.672C282.46 574.672 282.46 574.672 282.46 574.672C282.46 574.672 282.46 574.672 282.46 574.672C282.46 574.672 282.46 574.672 282.46 574.672C282.46 574.672 282.46 574.672 282.46 574.672C282.46 574.672 282.46 574.672 282.46 574.672C282.46 574.672 282.46 574.672 282.46 574.672C282.46 574.672 282.46 574.672 282.46 574.672C282.46 574.672 282.46 574.672 282.459 574.672C282.459 574.672 282.459 574.672 282.459 574.672C282.459 574.672 282.459 574.672 282.459 574.672C282.459 574.672 282.459 574.672 282.459 574.672C282.459 574.672 282.459 574.672 282.459 574.672C282.459 574.672 282.459 574.672 282.459 574.672C282.459 574.672 282.459 574.672 282.459 574.672C282.459 574.672 282.459 574.672 282.459 574.672C282.459 574.672 282.459 574.672 282.459 574.672C282.459 574.672 282.459 574.672 282.459 574.672C282.459 574.672 282.459 574.672 282.459 574.672C282.459 574.672 282.459 574.672 282.459 574.672C282.458 574.672 282.458 574.672 282.458 574.672C282.458 574.672 282.458 574.672 282.458 574.672C282.458 574.672 282.458 574.672 282.458 574.672C282.458 574.672 282.458 574.672 282.458 574.672C282.458 574.672 282.458 574.672 282.458 574.672C282.458 574.672 282.458 574.672 282.458 574.672C282.458 574.672 282.458 574.672 282.458 574.672C282.457 574.672 282.457 574.672 282.457 574.672C282.457 574.672 282.457 574.672 282.457 574.672C282.457 574.672 282.457 574.672 282.457 574.672C282.457 574.672 282.457 574.672 282.457 574.672C282.457 574.672 282.457 574.672 282.457 574.672C282.456 574.672 282.456 574.672 282.456 574.672C282.456 574.672 282.456 574.672 282.456 574.672C282.456 574.672 282.456 574.672 282.456 574.672C282.456 574.672 282.456 574.672 282.456 574.672C282.456 574.672 282.455 574.672 282.455 574.672C282.455 574.672 282.455 574.672 282.455 574.672C282.455 574.672 282.455 574.672 282.455 574.672C282.455 574.672 282.455 574.672 282.455 574.672C282.455 574.672 282.454 574.672 282.454 574.672C282.454 574.672 282.454 574.672 282.454 574.672C282.454 574.672 282.454 574.672 282.454 574.672C282.454 574.672 282.454 574.672 282.453 574.672C282.453 574.672 282.453 574.672 282.453 574.672C282.453 574.672 282.453 574.672 282.453 574.672C282.453 574.672 282.453 574.672 282.453 574.672C282.452 574.672 282.452 574.672 282.452 574.672C282.452 574.672 282.452 574.672 282.452 574.672C282.452 574.672 282.452 574.672 282.452 574.672C282.451 574.672 282.451 574.672 282.451 574.672C282.451 574.672 282.451 574.672 282.451 574.672C282.451 574.672 282.451 574.672 282.45 574.672C282.45 574.672 282.45 574.672 282.45 574.672C282.45 574.672 282.45 574.672 282.45 574.672C282.45 574.672 282.449 574.672 282.449 574.672C282.449 574.672 282.449 574.672 282.449 574.672C282.449 574.672 282.449 574.672 282.449 574.672C282.448 574.672 282.448 574.672 282.448 574.672C282.448 574.672 282.448 574.672 282.448 574.672C282.448 574.672 282.447 574.672 282.447 574.672C282.447 574.672 282.447 574.672 282.447 574.672C282.447 574.672 282.446 574.672 282.446 574.672C282.446 574.672 282.446 574.672 282.446 574.672C282.446 574.672 282.446 574.672 282.445 574.672C282.445 574.672 282.445 574.672 282.445 574.672C282.445 574.672 282.445 574.672 282.444 574.672C282.444 574.672 282.444 574.672 282.444 574.672C282.444 574.672 282.444 574.672 282.443 574.672C282.443 574.672 282.443 574.672 282.443 574.672C282.443 574.672 282.443 574.672 282.442 574.672C282.442 574.672 282.442 574.672 282.442 574.672C282.442 574.672 282.442 574.672 282.441 574.672C282.441 574.672 282.441 574.672 282.441 574.672C282.441 574.672 282.44 574.672 282.44 574.672C282.44 574.672 282.44 574.672 282.44 574.672C282.439 574.672 282.439 574.672 282.439 574.672C282.439 574.672 282.439 574.672 282.439 574.672C282.438 574.672 282.438 574.672 282.438 574.672C282.438 574.672 282.438 574.672 282.437 574.672C282.437 574.672 282.437 574.672 282.437 574.672C282.436 574.672 282.436 574.672 282.436 574.672C282.436 574.672 282.436 574.672 282.435 574.672C282.435 574.672 282.435 574.672 282.435 574.672C282.435 574.672 282.434 574.672 282.434 574.672C282.434 574.672 282.434 574.672 282.433 574.672C282.433 574.672 282.433 574.672 282.433 574.672C282.433 574.672 282.432 574.672 282.432 574.672C282.432 574.672 282.432 574.672 282.431 574.672C282.431 574.672 282.431 574.672 282.431 574.672C282.431 574.672 282.43 574.672 282.43 574.672C282.43 574.672 282.43 574.672 282.429 574.672C282.429 574.672 282.429 574.672 282.429 574.672C282.428 574.672 282.428 574.672 282.428 574.672C282.428 574.672 282.427 574.672 282.427 574.672C282.427 574.672 282.427 574.672 282.426 574.672C282.426 574.672 282.426 574.672 282.426 574.672C282.425 574.672 282.425 574.672 282.425 574.672C282.425 574.672 282.424 574.672 282.424 574.672C282.424 574.672 282.423 574.672 282.423 574.672C282.423 574.672 282.423 574.672 282.422 574.672C282.422 574.672 282.422 574.672 282.422 574.672C282.421 574.672 282.421 574.672 282.421 574.672C282.42 574.672 282.42 574.672 282.42 574.672C282.42 574.672 282.419 574.672 282.419 574.672C282.419 574.672 282.419 574.672 282.418 574.672C282.418 574.672 282.418 574.672 282.417 574.672C282.417 574.672 282.417 574.672 282.416 574.672C282.416 574.672 282.416 574.672 282.416 574.672V638.672C282.416 638.672 282.416 638.672 282.416 638.672C282.417 638.672 282.417 638.672 282.417 638.672C282.418 638.672 282.418 638.672 282.418 638.672C282.419 638.672 282.419 638.672 282.419 638.672C282.419 638.672 282.42 638.672 282.42 638.672C282.42 638.672 282.42 638.672 282.421 638.672C282.421 638.672 282.421 638.672 282.422 638.672C282.422 638.672 282.422 638.672 282.422 638.672C282.423 638.672 282.423 638.672 282.423 638.672C282.423 638.672 282.424 638.672 282.424 638.672C282.424 638.672 282.425 638.672 282.425 638.672C282.425 638.672 282.425 638.672 282.426 638.672C282.426 638.672 282.426 638.672 282.426 638.672C282.427 638.672 282.427 638.672 282.427 638.672C282.427 638.672 282.428 638.672 282.428 638.672C282.428 638.672 282.428 638.672 282.429 638.672C282.429 638.672 282.429 638.672 282.429 638.672C282.43 638.672 282.43 638.672 282.43 638.672C282.43 638.672 282.431 638.672 282.431 638.672C282.431 638.672 282.431 638.672 282.431 638.672C282.432 638.672 282.432 638.672 282.432 638.672C282.432 638.672 282.433 638.672 282.433 638.672C282.433 638.672 282.433 638.672 282.433 638.672C282.434 638.672 282.434 638.672 282.434 638.672C282.434 638.672 282.435 638.672 282.435 638.672C282.435 638.672 282.435 638.672 282.435 638.672C282.436 638.672 282.436 638.672 282.436 638.672C282.436 638.672 282.436 638.672 282.437 638.672C282.437 638.672 282.437 638.672 282.437 638.672C282.438 638.672 282.438 638.672 282.438 638.672C282.438 638.672 282.438 638.672 282.439 638.672C282.439 638.672 282.439 638.672 282.439 638.672C282.439 638.672 282.439 638.672 282.44 638.672C282.44 638.672 282.44 638.672 282.44 638.672C282.44 638.672 282.441 638.672 282.441 638.672C282.441 638.672 282.441 638.672 282.441 638.672C282.442 638.672 282.442 638.672 282.442 638.672C282.442 638.672 282.442 638.672 282.442 638.672C282.443 638.672 282.443 638.672 282.443 638.672C282.443 638.672 282.443 638.672 282.443 638.672C282.444 638.672 282.444 638.672 282.444 638.672C282.444 638.672 282.444 638.672 282.444 638.672C282.445 638.672 282.445 638.672 282.445 638.672C282.445 638.672 282.445 638.672 282.445 638.672C282.446 638.672 282.446 638.672 282.446 638.672C282.446 638.672 282.446 638.672 282.446 638.672C282.446 638.672 282.447 638.672 282.447 638.672C282.447 638.672 282.447 638.672 282.447 638.672C282.447 638.672 282.448 638.672 282.448 638.672C282.448 638.672 282.448 638.672 282.448 638.672C282.448 638.672 282.448 638.672 282.449 638.672C282.449 638.672 282.449 638.672 282.449 638.672C282.449 638.672 282.449 638.672 282.449 638.672C282.449 638.672 282.45 638.672 282.45 638.672C282.45 638.672 282.45 638.672 282.45 638.672C282.45 638.672 282.45 638.672 282.45 638.672C282.451 638.672 282.451 638.672 282.451 638.672C282.451 638.672 282.451 638.672 282.451 638.672C282.451 638.672 282.451 638.672 282.452 638.672C282.452 638.672 282.452 638.672 282.452 638.672C282.452 638.672 282.452 638.672 282.452 638.672C282.452 638.672 282.452 638.672 282.453 638.672C282.453 638.672 282.453 638.672 282.453 638.672C282.453 638.672 282.453 638.672 282.453 638.672C282.453 638.672 282.453 638.672 282.453 638.672C282.454 638.672 282.454 638.672 282.454 638.672C282.454 638.672 282.454 638.672 282.454 638.672C282.454 638.672 282.454 638.672 282.454 638.672C282.454 638.672 282.455 638.672 282.455 638.672C282.455 638.672 282.455 638.672 282.455 638.672C282.455 638.672 282.455 638.672 282.455 638.672C282.455 638.672 282.455 638.672 282.455 638.672C282.455 638.672 282.456 638.672 282.456 638.672C282.456 638.672 282.456 638.672 282.456 638.672C282.456 638.672 282.456 638.672 282.456 638.672C282.456 638.672 282.456 638.672 282.456 638.672C282.456 638.672 282.456 638.672 282.457 638.672C282.457 638.672 282.457 638.672 282.457 638.672C282.457 638.672 282.457 638.672 282.457 638.672C282.457 638.672 282.457 638.672 282.457 638.672C282.457 638.672 282.457 638.672 282.457 638.672C282.457 638.672 282.457 638.672 282.458 638.672C282.458 638.672 282.458 638.672 282.458 638.672C282.458 638.672 282.458 638.672 282.458 638.672C282.458 638.672 282.458 638.672 282.458 638.672C282.458 638.672 282.458 638.672 282.458 638.672C282.458 638.672 282.458 638.672 282.458 638.672C282.458 638.672 282.458 638.672 282.458 638.672C282.458 638.672 282.458 638.672 282.459 638.672C282.459 638.672 282.459 638.672 282.459 638.672C282.459 638.672 282.459 638.672 282.459 638.672C282.459 638.672 282.459 638.672 282.459 638.672C282.459 638.672 282.459 638.672 282.459 638.672C282.459 638.672 282.459 638.672 282.459 638.672C282.459 638.672 282.459 638.672 282.459 638.672C282.459 638.672 282.459 638.672 282.459 638.672C282.459 638.672 282.459 638.672 282.459 638.672C282.459 638.672 282.459 638.672 282.459 638.672C282.459 638.672 282.459 638.672 282.459 638.672C282.459 638.672 282.459 638.672 282.459 638.672C282.46 638.672 282.46 638.672 282.46 638.672C282.46 638.672 282.46 638.672 282.46 638.672C282.46 638.672 282.46 638.672 282.46 638.672C282.46 638.672 282.46 638.672 282.46 638.672C282.46 638.672 282.46 638.672 282.46 638.672C282.46 638.672 282.46 638.672 282.46 638.672C282.46 638.672 282.46 638.672 282.46 638.672C282.46 638.672 282.46 638.672 282.46 638.672C282.46 606.672 282.46 574.672 282.46 574.672C282.46 574.672 282.46 574.672 282.46 574.672C282.46 574.672 282.46 574.672 282.46 574.672C282.46 574.672 282.46 574.672 282.46 574.672C282.46 574.672 282.46 574.672 282.46 574.672C282.46 574.672 282.46 574.672 282.46 574.672C282.46 574.672 282.46 574.672 282.46 574.672C282.46 574.672 282.46 574.672 282.46 574.672C282.46 574.672 282.459 574.672 282.459 574.672C282.459 574.672 282.459 574.672 282.459 574.672C282.459 574.672 282.459 574.672 282.459 574.672C282.459 574.672 282.459 574.672 282.459 574.672C282.459 574.672 282.459 574.672 282.459 574.672C282.459 574.672 282.459 574.672 282.459 574.672C282.459 574.672 282.459 574.672 282.459 574.672C282.459 574.672 282.459 574.672 282.459 574.672C282.459 574.672 282.459 574.672 282.459 574.672C282.459 574.672 282.459 574.672 282.459 574.672C282.459 574.672 282.459 574.672 282.459 574.672C282.459 574.672 282.459 574.672 282.459 574.672C282.459 574.672 282.458 574.672 282.458 574.672C282.458 574.672 282.458 574.672 282.458 574.672C282.458 574.672 282.458 574.672 282.458 574.672C282.458 574.672 282.458 574.672 282.458 574.672C282.458 574.672 282.458 574.672 282.458 574.672C282.458 574.672 282.458 574.672 282.458 574.672C282.458 574.672 282.458 574.672 282.458 574.672C282.458 574.672 282.458 574.672 282.458 574.672C282.457 574.672 282.457 574.672 282.457 574.672C282.457 574.672 282.457 574.672 282.457 574.672C282.457 574.672 282.457 574.672 282.457 574.672C282.457 574.672 282.457 574.672 282.457 574.672C282.457 574.672 282.457 574.672 282.457 574.672C282.457 574.672 282.457 574.672 282.457 574.672C282.456 574.672 282.456 574.672 282.456 574.672C282.456 574.672 282.456 574.672 282.456 574.672C282.456 574.672 282.456 574.672 282.456 574.672C282.456 574.672 282.456 574.672 282.456 574.672C282.456 574.672 282.456 574.672 282.456 574.672C282.455 574.672 282.455 574.672 282.455 574.672C282.455 574.672 282.455 574.672 282.455 574.672C282.455 574.672 282.455 574.672 282.455 574.672C282.455 574.672 282.455 574.672 282.455 574.672C282.455 574.672 282.455 574.672 282.454 574.672C282.454 574.672 282.454 574.672 282.454 574.672C282.454 574.672 282.454 574.672 282.454 574.672C282.454 574.672 282.454 574.672 282.454 574.672C282.454 574.672 282.454 574.672 282.454 574.672C282.453 574.672 282.453 574.672 282.453 574.672C282.453 574.672 282.453 574.672 282.453 574.672C282.453 574.672 282.453 574.672 282.453 574.672C282.453 574.672 282.453 574.672 282.453 574.672C282.452 574.672 282.452 574.672 282.452 574.672C282.452 574.672 282.452 574.672 282.452 574.672C282.452 574.672 282.452 574.672 282.452 574.672C282.452 574.672 282.452 574.672 282.451 574.672C282.451 574.672 282.451 574.672 282.451 574.672C282.451 574.672 282.451 574.672 282.451 574.672C282.451 574.672 282.451 574.672 282.451 574.672C282.451 574.672 282.45 574.672 282.45 574.672C282.45 574.672 282.45 574.672 282.45 574.672C282.45 574.672 282.45 574.672 282.45 574.672C282.45 574.672 282.45 574.672 282.449 574.672C282.449 574.672 282.449 574.672 282.449 574.672C282.449 574.672 282.449 574.672 282.449 574.672C282.449 574.672 282.449 574.672 282.449 574.672C282.448 574.672 282.448 574.672 282.448 574.672C282.448 574.672 282.448 574.672 282.448 574.672C282.448 574.672 282.448 574.672 282.448 574.672C282.447 574.672 282.447 574.672 282.447 574.672C282.447 574.672 282.447 574.672 282.447 574.672C282.447 574.672 282.447 574.672 282.447 574.672C282.447 574.672 282.446 574.672 282.446 574.672C282.446 574.672 282.446 574.672 282.446 574.672C282.446 574.672 282.446 574.672 282.446 574.672C282.445 574.672 282.445 574.672 282.445 574.672C282.445 574.672 282.445 574.672 282.445 574.672C282.445 574.672 282.445 574.672 282.445 574.672C282.444 574.672 282.444 574.672 282.444 574.672C282.444 574.672 282.444 574.672 282.444 574.672C282.444 574.672 282.444 574.672 282.444 574.672C282.443 574.672 282.443 574.672 282.443 574.672C282.443 574.672 282.443 574.672 282.443 574.672C282.443 574.672 282.443 574.672 282.442 574.672C282.442 574.672 282.442 574.672 282.442 574.672C282.442 574.672 282.442 574.672 282.442 574.672C282.442 574.672 282.441 574.672 282.441 574.672C282.441 574.672 282.441 574.672 282.441 574.672C282.441 574.672 282.441 574.672 282.441 574.672C282.44 574.672 282.44 574.672 282.44 574.672C282.44 574.672 282.44 574.672 282.44 574.672C282.44 574.672 282.44 574.672 282.439 574.672C282.439 574.672 282.439 574.672 282.439 574.672C282.439 574.672 282.439 574.672 282.439 574.672C282.439 574.672 282.438 574.672 282.438 574.672C282.438 574.672 282.438 574.672 282.438 574.672C282.438 574.672 282.438 574.672 282.438 574.672C282.437 574.672 282.437 574.672 282.437 574.672C282.437 574.672 282.437 574.672 282.437 574.672C282.437 574.672 282.436 574.672 282.436 574.672C282.436 574.672 282.436 574.672 282.436 574.672C282.436 574.672 282.436 574.672 282.436 574.672C282.435 574.672 282.435 574.672 282.435 574.672C282.435 574.672 282.435 574.672 282.435 574.672C282.435 574.672 282.434 574.672 282.434 574.672C282.434 574.672 282.434 574.672 282.434 574.672C282.434 574.672 282.434 574.672 282.433 574.672C282.433 574.672 282.433 574.672 282.433 574.672C282.433 574.672 282.433 574.672 282.433 574.672C282.432 574.672 282.432 574.672 282.432 574.672C282.432 574.672 282.432 574.672 282.432 574.672C282.432 574.672 282.432 574.672 282.431 574.672C282.431 574.672 282.431 574.672 282.431 574.672C282.431 574.672 282.431 574.672 282.431 574.672C282.43 574.672 282.43 574.672 282.43 574.672C282.43 574.672 282.43 574.672 282.43 574.672C282.43 574.672 282.429 574.672 282.429 574.672C282.429 574.672 282.429 574.672 282.429 574.672C282.429 574.672 282.429 574.672 282.428 574.672C282.428 574.672 282.428 574.672 282.428 574.672C282.428 574.672 282.428 574.672 282.428 574.672C282.427 574.672 282.427 574.672 282.427 574.672C282.427 574.672 282.427 574.672 282.427 574.672C282.427 574.672 282.426 574.672 282.426 574.672C282.426 574.672 282.426 574.672 282.426 574.672C282.426 574.672 282.425 574.672 282.425 574.672C282.425 574.672 282.425 574.672 282.425 574.672C282.425 574.672 282.425 574.672 282.424 574.672C282.424 574.672 282.424 574.672 282.424 574.672C282.424 574.672 282.424 574.672 282.424 574.672C282.423 574.672 282.423 574.672 282.423 574.672C282.423 574.672 282.423 574.672 282.423 574.672C282.423 574.672 282.422 574.672 282.422 574.672C282.422 574.672 282.422 574.672 282.422 574.672C282.422 574.672 282.422 574.672 282.421 574.672C282.421 574.672 282.421 574.672 282.421 574.672C282.421 574.672 282.421 574.672 282.42 574.672C282.42 574.672 282.42 574.672 282.42 574.672C282.42 574.672 282.42 574.672 282.42 574.672C282.419 574.672 282.419 574.672 282.419 574.672C282.419 574.672 282.419 574.672 282.419 574.672C282.419 574.672 282.418 574.672 282.418 574.672C282.418 574.672 282.418 574.672 282.418 574.672C282.418 574.672 282.418 574.672 282.417 574.672C282.417 574.672 282.417 574.672 282.417 574.672C282.417 574.672 282.417 574.672 282.416 574.672C282.416 574.672 282.416 574.672 282.416 574.672C282.416 574.672 282.416 574.672 282.416 574.672C282.415 574.672 282.415 574.672 282.415 574.672C282.415 574.672 282.415 574.672 282.415 574.672C282.415 574.672 282.414 574.672 282.414 574.672C282.414 574.672 282.414 574.672 282.414 574.672C282.414 574.672 282.413 574.672 282.413 574.672C282.413 574.672 282.413 574.672 282.413 574.672C282.413 574.672 282.413 574.672 282.412 574.672C282.412 574.672 282.412 574.672 282.412 574.672C282.412 574.672 282.412 574.672 282.412 574.672C282.411 574.672 282.411 574.672 282.411 574.672C282.411 574.672 282.411 574.672 282.411 574.672C282.411 574.672 282.41 574.672 282.41 574.672C282.41 574.672 282.41 574.672 282.41 574.672C282.41 574.672 282.409 574.672 282.409 574.672C282.409 574.672 282.409 574.672 282.409 574.672C282.409 574.672 282.409 574.672 282.408 574.672C282.408 574.672 282.408 574.672 282.408 574.672C282.408 574.672 282.408 574.672 282.408 574.672C282.407 574.672 282.407 574.672 282.407 574.672C282.407 574.672 282.407 574.672 282.407 574.672C282.407 574.672 282.406 574.672 282.406 574.672C282.406 574.672 282.406 574.672 282.406 574.672C282.406 574.672 282.406 574.672 282.405 574.672C282.405 574.672 282.405 574.672 282.405 574.672C282.405 574.672 282.405 574.672 282.404 574.672C282.404 574.672 282.404 574.672 282.404 574.672C282.404 574.672 282.404 574.672 282.404 574.672C282.403 574.672 282.403 574.672 282.403 574.672C282.403 574.672 282.403 574.672 282.403 574.672C282.403 574.672 282.402 574.672 282.402 574.672C282.402 574.672 282.402 574.672 282.402 574.672C282.402 574.672 282.402 574.672 282.401 574.672C282.401 574.672 282.401 574.672 282.401 574.672C282.401 574.672 282.401 574.672 282.401 574.672C282.4 574.672 282.4 574.672 282.4 574.672C282.4 574.672 282.4 574.672 282.4 574.672C282.4 574.672 282.399 574.672 282.399 574.672C282.399 574.672 282.399 574.672 282.399 574.672C282.399 574.672 282.399 574.672 282.399 574.672C282.398 574.672 282.398 574.672 282.398 574.672C282.398 574.672 282.398 574.672 282.398 574.672C282.398 574.672 282.397 574.672 282.397 574.672C282.397 574.672 282.397 574.672 282.397 574.672C282.397 574.672 282.397 574.672 282.396 574.672C282.396 574.672 282.396 574.672 282.396 574.672C282.396 574.672 282.396 574.672 282.396 574.672C282.396 574.672 282.395 574.672 282.395 574.672C282.395 574.672 282.395 574.672 282.395 574.672C282.395 574.672 282.395 574.672 282.394 574.672C282.394 574.672 282.394 574.672 282.394 574.672C282.394 574.672 282.394 574.672 282.394 574.672C282.394 574.672 282.393 574.672 282.393 574.672C282.393 574.672 282.393 574.672 282.393 574.672C282.393 574.672 282.393 574.672 282.392 574.672C282.392 574.672 282.392 574.672 282.392 574.672C282.392 574.672 282.392 574.672 282.392 574.672C282.392 574.672 282.391 574.672 282.391 574.672C282.391 574.672 282.391 574.672 282.391 574.672C282.391 574.672 282.391 574.672 282.391 574.672C282.39 574.672 282.39 574.672 282.39 574.672C282.39 574.672 282.39 574.672 282.39 574.672C282.39 574.672 282.39 574.672 282.389 574.672C282.389 574.672 282.389 574.672 282.389 574.672C282.389 574.672 282.389 574.672 282.389 574.672C282.389 574.672 282.388 574.672 282.388 574.672C282.388 574.672 282.388 574.672 282.388 574.672C282.388 574.672 282.388 574.672 282.388 574.672C282.388 574.672 282.387 574.672 282.387 574.672C282.387 574.672 282.387 574.672 282.387 574.672C282.387 574.672 282.387 574.672 282.387 574.672C282.386 574.672 282.386 574.672 282.386 574.672C282.386 574.672 282.386 574.672 282.386 574.672C282.386 574.672 282.386 574.672 282.386 574.672C282.385 574.672 282.385 574.672 282.385 574.672C282.385 574.672 282.385 574.672 282.385 574.672C282.385 574.672 282.385 574.672 282.385 574.672C282.384 574.672 282.384 574.672 282.384 574.672C282.384 574.672 282.384 574.672 282.384 574.672C282.384 574.672 282.384 574.672 282.384 574.672C282.383 574.672 282.383 574.672 282.383 574.672C282.383 574.672 282.383 574.672 282.383 574.672C282.383 574.672 282.383 574.672 282.383 574.672C282.383 574.672 282.382 574.672 282.382 574.672C282.382 574.672 282.382 574.672 282.382 574.672C282.382 574.672 282.382 574.672 282.382 574.672C282.382 574.672 282.382 574.672 282.381 574.672C282.381 574.672 282.381 574.672 282.381 574.672C282.381 574.672 282.381 574.672 282.381 574.672C282.381 574.672 282.381 574.672 282.381 574.672C282.38 574.672 282.38 574.672 282.38 574.672C282.38 574.672 282.38 574.672 282.38 574.672C282.38 574.672 282.38 574.672 282.38 574.672C282.38 574.672 282.38 574.672 282.379 574.672C282.379 574.672 282.379 574.672 282.379 574.672C282.379 574.672 282.379 574.672 282.379 574.672C282.379 574.672 282.379 574.672 282.379 574.672C282.379 574.672 282.378 574.672 282.378 574.672C282.378 574.672 282.378 574.672 282.378 574.672C282.378 574.672 282.378 574.672 282.378 574.672C282.378 574.672 282.378 574.672 282.378 574.672C282.378 574.672 282.377 574.672 282.377 574.672C282.377 574.672 282.377 574.672 282.377 574.672C282.377 574.672 282.377 574.672 282.377 574.672C282.377 574.672 282.377 574.672 282.377 574.672C282.377 574.672 282.377 574.672 282.376 574.672C282.376 574.672 282.376 574.672 282.376 574.672C282.376 574.672 282.376 574.672 282.376 574.672C282.376 574.672 282.376 574.672 282.376 574.672C282.376 574.672 282.376 574.672 282.376 574.672C282.376 574.672 282.375 574.672 282.375 574.672C282.375 574.672 282.375 574.672 282.375 574.672C282.375 574.672 282.375 574.672 282.375 574.672C282.375 574.672 282.375 574.672 282.375 574.672C282.375 574.672 282.375 574.672 282.375 574.672C282.375 574.672 282.375 574.672 282.374 574.672C282.374 574.672 282.374 574.672 282.374 574.672C282.374 574.672 282.374 574.672 282.374 574.672C282.374 574.672 282.374 574.672 282.374 574.672C282.374 574.672 282.374 574.672 282.374 574.672C282.374 574.672 282.374 574.672 282.374 574.672C282.374 574.672 282.374 574.672 282.373 574.672C282.373 574.672 282.373 574.672 282.373 574.672C282.373 574.672 282.373 574.672 282.373 574.672C282.373 574.672 282.373 574.672 282.373 574.672C282.373 574.672 282.373 574.672 282.373 574.672C282.373 574.672 282.373 574.672 282.373 574.672C282.373 574.672 282.373 574.672 282.373 574.672C282.373 574.672 282.373 574.672 282.373 574.672C282.373 574.672 282.373 574.672 282.372 574.672C282.372 574.672 282.372 574.672 282.372 574.672C282.372 574.672 282.372 574.672 282.372 574.672C282.372 574.672 282.372 574.672 282.372 574.672C282.372 574.672 282.372 574.672 282.372 574.672C282.372 574.672 282.372 574.672 282.372 574.672C282.372 574.672 282.372 574.672 282.372 574.672C282.372 574.672 282.372 574.672 282.372 574.672C282.372 574.672 282.372 574.672 282.372 574.672C282.372 574.672 282.372 574.672 282.372 574.672C282.372 574.672 282.372 574.672 282.372 574.672C282.372 574.672 282.372 574.672 282.372 574.672C282.372 574.672 282.372 574.672 282.372 574.672C282.372 574.672 282.372 574.672 282.372 574.672C282.372 574.672 282.372 574.672 282.372 574.672C282.372 574.672 282.371 574.672 282.371 574.672C282.371 574.672 282.371 574.672 282.371 574.672C282.371 574.672 282.371 574.672 282.371 574.672C282.371 574.672 282.371 574.672 282.371 574.672C282.371 574.672 282.371 606.672 282.371 638.672C282.371 638.672 282.371 638.672 282.371 638.672C282.371 638.672 282.371 638.672 282.371 638.672C282.371 638.672 282.371 638.672 282.371 638.672C282.371 638.672 282.371 638.672 282.371 638.672C282.372 638.672 282.372 638.672 282.372 638.672C282.372 638.672 282.372 638.672 282.372 638.672C282.372 638.672 282.372 638.672 282.372 638.672C282.372 638.672 282.372 638.672 282.372 638.672C282.372 638.672 282.372 638.672 282.372 638.672C282.372 638.672 282.372 638.672 282.372 638.672C282.372 638.672 282.372 638.672 282.372 638.672C282.372 638.672 282.372 638.672 282.372 638.672C282.372 638.672 282.372 638.672 282.372 638.672C282.372 638.672 282.372 638.672 282.372 638.672C282.372 638.672 282.372 638.672 282.372 638.672C282.372 638.672 282.372 638.672 282.372 638.672C282.372 638.672 282.372 638.672 282.372 638.672C282.372 638.672 282.372 638.672 282.372 638.672C282.373 638.672 282.373 638.672 282.373 638.672C282.373 638.672 282.373 638.672 282.373 638.672C282.373 638.672 282.373 638.672 282.373 638.672C282.373 638.672 282.373 638.672 282.373 638.672C282.373 638.672 282.373 638.672 282.373 638.672C282.373 638.672 282.373 638.672 282.373 638.672C282.373 638.672 282.373 638.672 282.373 638.672C282.374 638.672 282.374 638.672 282.374 638.672C282.374 638.672 282.374 638.672 282.374 638.672C282.374 638.672 282.374 638.672 282.374 638.672C282.374 638.672 282.374 638.672 282.374 638.672C282.374 638.672 282.374 638.672 282.374 638.672C282.374 638.672 282.375 638.672 282.375 638.672C282.375 638.672 282.375 638.672 282.375 638.672C282.375 638.672 282.375 638.672 282.375 638.672C282.375 638.672 282.375 638.672 282.375 638.672C282.375 638.672 282.375 638.672 282.375 638.672C282.376 638.672 282.376 638.672 282.376 638.672C282.376 638.672 282.376 638.672 282.376 638.672C282.376 638.672 282.376 638.672 282.376 638.672C282.376 638.672 282.376 638.672 282.377 638.672C282.377 638.672 282.377 638.672 282.377 638.672C282.377 638.672 282.377 638.672 282.377 638.672C282.377 638.672 282.377 638.672 282.377 638.672C282.377 638.672 282.378 638.672 282.378 638.672C282.378 638.672 282.378 638.672 282.378 638.672C282.378 638.672 282.378 638.672 282.378 638.672C282.378 638.672 282.378 638.672 282.379 638.672C282.379 638.672 282.379 638.672 282.379 638.672C282.379 638.672 282.379 638.672 282.379 638.672C282.379 638.672 282.379 638.672 282.38 638.672C282.38 638.672 282.38 638.672 282.38 638.672C282.38 638.672 282.38 638.672 282.38 638.672C282.38 638.672 282.381 638.672 282.381 638.672C282.381 638.672 282.381 638.672 282.381 638.672C282.381 638.672 282.381 638.672 282.381 638.672C282.382 638.672 282.382 638.672 282.382 638.672C282.382 638.672 282.382 638.672 282.382 638.672C282.382 638.672 282.382 638.672 282.383 638.672C282.383 638.672 282.383 638.672 282.383 638.672C282.383 638.672 282.383 638.672 282.383 638.672C282.384 638.672 282.384 638.672 282.384 638.672C282.384 638.672 282.384 638.672 282.384 638.672C282.385 638.672 282.385 638.672 282.385 638.672C282.385 638.672 282.385 638.672 282.385 638.672C282.385 638.672 282.386 638.672 282.386 638.672C282.386 638.672 282.386 638.672 282.386 638.672C282.386 638.672 282.387 638.672 282.387 638.672C282.387 638.672 282.387 638.672 282.387 638.672C282.387 638.672 282.388 638.672 282.388 638.672C282.388 638.672 282.388 638.672 282.388 638.672C282.388 638.672 282.389 638.672 282.389 638.672C282.389 638.672 282.389 638.672 282.389 638.672C282.389 638.672 282.39 638.672 282.39 638.672C282.39 638.672 282.39 638.672 282.39 638.672C282.391 638.672 282.391 638.672 282.391 638.672C282.391 638.672 282.391 638.672 282.391 638.672C282.392 638.672 282.392 638.672 282.392 638.672C282.392 638.672 282.392 638.672 282.393 638.672C282.393 638.672 282.393 638.672 282.393 638.672C282.393 638.672 282.394 638.672 282.394 638.672C282.394 638.672 282.394 638.672 282.394 638.672C282.395 638.672 282.395 638.672 282.395 638.672C282.395 638.672 282.395 638.672 282.396 638.672C282.396 638.672 282.396 638.672 282.396 638.672C282.397 638.672 282.397 638.672 282.397 638.672C282.397 638.672 282.397 638.672 282.398 638.672C282.398 638.672 282.398 638.672 282.398 638.672C282.399 638.672 282.399 638.672 282.399 638.672C282.399 638.672 282.399 638.672 282.4 638.672C282.4 638.672 282.4 638.672 282.4 638.672C282.401 638.672 282.401 638.672 282.401 638.672C282.401 638.672 282.402 638.672 282.402 638.672C282.402 638.672 282.402 638.672 282.403 638.672C282.403 638.672 282.403 638.672 282.403 638.672C282.404 638.672 282.404 638.672 282.404 638.672C282.404 638.672 282.405 638.672 282.405 638.672C282.405 638.672 282.405 638.672 282.406 638.672C282.406 638.672 282.406 638.672 282.406 638.672C282.407 638.672 282.407 638.672 282.407 638.672C282.407 638.672 282.408 638.672 282.408 638.672C282.408 638.672 282.408 638.672 282.409 638.672C282.409 638.672 282.409 638.672 282.41 638.672C282.41 638.672 282.41 638.672 282.41 638.672C282.411 638.672 282.411 638.672 282.411 638.672C282.412 638.672 282.412 638.672 282.412 638.672C282.412 638.672 282.413 638.672 282.413 638.672C282.413 638.672 282.414 638.672 282.414 638.672C282.414 638.672 282.414 638.672 282.415 638.672C282.415 638.672 282.415 638.672 282.416 638.672V574.672ZM282.701 574.673C253.482 574.413 229.703 567.384 210.752 554.886L175.517 608.313C206.405 628.684 242.706 638.319 282.131 638.67L282.701 574.673ZM210.695 554.848C191.585 542.304 176.149 523.894 164.774 498.124L106.224 523.968C121.909 559.502 144.845 588.179 175.574 608.351L210.695 554.848ZM164.774 498.124C153.475 472.526 147.243 440.394 147.243 400.82H83.2426C83.2426 446.858 90.4633 488.261 106.224 523.968L164.774 498.124ZM147.243 400.82V310.698H83.2426V400.82H147.243ZM147.243 310.698C147.243 271.483 153.458 239.553 164.786 213.826L106.212 188.036C90.4801 223.767 83.2426 264.912 83.2426 310.698H147.243ZM164.774 213.853C176.118 188.153 191.564 169.872 210.734 157.482L175.993 103.732C145.019 123.752 121.94 152.405 106.224 188.009L164.774 213.853ZM210.734 157.482C229.937 145.07 253.376 138.223 282.416 138.223V74.2227C242.812 74.2227 206.934 83.7333 175.993 103.732L210.734 157.482ZM282.416 138.223C311.511 138.223 334.906 145.02 354.039 157.445L388.896 103.769C357.885 83.6309 321.963 74.2227 282.416 74.2227V138.223ZM354.097 157.482C373.267 169.872 388.713 188.153 400.057 213.853L458.607 188.009C442.892 152.405 419.812 123.752 388.838 103.732L354.097 157.482ZM400.057 213.853C411.368 239.477 417.589 271.466 417.589 310.698H481.589C481.589 264.929 474.356 223.69 458.607 188.009L400.057 213.853ZM417.589 310.698V400.82H481.589V310.698H417.589Z" fill="#325BFF"/>
<path d="M246.029 486.815H379.798L574.718 746.709H440.949L246.029 486.815Z" fill="#093D9D"/>
</svg>
