<svg width="282" height="66" viewBox="0 0 282 66" fill="none" xmlns="http://www.w3.org/2000/svg">
<path fill-rule="evenodd" clip-rule="evenodd" d="M233.648 17.7754H244.635V19.9625C245.562 20.1586 246.447 20.4121 247.276 20.723C249.52 21.5649 251.287 22.8279 252.568 24.5025C253.849 26.1771 254.485 28.2633 254.485 30.7425H244.714C244.639 30.0595 244.405 29.4234 243.994 28.8246C243.582 28.2259 243.002 27.7301 242.254 27.3465C241.506 26.9629 240.553 26.7665 239.402 26.7665C237.785 26.7665 236.541 27.122 235.672 27.8236C234.802 28.5253 234.372 29.4421 234.372 30.5647C234.372 31.4347 234.699 32.127 235.354 32.6603C236.008 33.1842 236.85 33.6145 237.869 33.9233C238.888 34.2413 239.973 34.4846 241.123 34.6623C242.273 34.8401 243.339 34.9991 244.321 35.1394C246.621 35.5137 248.622 36.1217 250.333 36.9544C252.044 37.787 253.372 38.919 254.326 40.3503C255.28 41.7817 255.747 43.606 255.747 45.8419C255.747 48.4426 255.093 50.6879 253.774 52.559C252.465 54.4394 250.558 55.8801 248.061 56.8811C247.015 57.3046 245.873 57.6393 244.635 57.8853V59.7865H233.648V57.9466C232.402 57.7064 231.272 57.3699 230.22 56.9372C227.855 55.9643 226.05 54.6265 224.825 52.9145C223.591 51.2025 222.983 49.2285 222.983 47.0019H233.848C233.942 47.7784 234.213 48.4707 234.652 49.0788C235.101 49.6869 235.728 50.164 236.532 50.5008C237.345 50.8376 238.318 51.006 239.468 51.006C240.758 51.006 241.796 50.8376 242.6 50.5008C243.395 50.164 243.984 49.6869 244.358 49.0975C244.732 48.4988 244.919 47.8533 244.919 47.1423C244.919 46.0664 244.47 45.2619 243.582 44.7286C242.694 44.2047 241.544 43.8024 240.141 43.5311L239.475 43.4023L239.475 43.4023C238.268 43.1687 236.998 42.9229 235.681 42.6704C233.502 42.2494 231.511 41.6226 229.706 40.8087C227.901 39.9855 226.461 38.8254 225.395 37.3286C224.329 35.8317 223.796 33.8578 223.796 31.416V31.4254C223.796 28.544 224.526 26.2239 225.994 24.4744C227.462 22.725 229.388 21.4527 231.791 20.6575C232.398 20.4566 233.017 20.2809 233.648 20.1303V17.7754Z" fill="#325BFF"/>
<path d="M207.92 48.2162V57.8521H177.091V9.84082H188.658V48.2162H207.92Z" fill="#325BFF"/>
<path d="M210.377 57.9829V20.4121H221.588V57.9735H210.377V57.9829Z" fill="#325BFF"/>
<path d="M262.574 25.2064L262.574 12.6953H273.402L273.402 25.2064H281.631V33.6168H273.402L273.402 46.3275C273.402 47.9928 273.813 49.1435 274.646 49.789C275.478 50.4345 276.75 50.7526 278.461 50.7526C279.143 50.7526 279.788 50.7339 280.415 50.6964C281.032 50.659 281.509 50.631 281.836 50.6123V58.6671C281.415 58.742 280.621 58.8355 279.461 58.9478C278.302 59.0601 277.067 59.1255 275.749 59.1255C272.561 59.1255 269.98 58.77 267.997 58.0497C266.015 57.3293 264.575 56.1786 263.678 54.5882C262.771 52.9978 262.322 50.8929 262.322 48.2921L262.322 33.6074H256.59V25.197H262.565L262.574 25.2064Z" fill="#325BFF"/>
<path d="M17.1064 39.1025H30.6834L50.4691 65.4938H36.8922L17.1064 39.1025Z" fill="#325BFF"/>
<path d="M45.5838 12.7232L45.2191 11.956L45.1537 11.8157C44.1906 9.8324 43.0685 8.20458 41.7314 6.82C40.5158 5.56639 39.0478 4.44376 37.1029 3.2837C33.4655 1.10392 29.1362 0 24.2272 0C19.3182 0 14.9889 1.10392 11.3609 3.2837C7.69548 5.48219 4.83422 8.65363 2.87061 12.7138C0.963104 16.6524 0 21.3394 0 26.6532V34.3245C0 39.6383 0.963104 44.3253 2.87061 48.2639C4.83422 52.3241 7.68613 55.4955 11.3609 57.694C14.9889 59.8738 19.3182 60.9777 24.2272 60.9777C29.1362 60.9777 33.4655 59.8738 37.0935 57.694C40.7589 55.4955 43.6202 52.3241 45.5745 48.2639C47.482 44.3253 48.4451 39.6383 48.4451 34.3245V26.6532C48.4451 21.3487 47.482 16.6618 45.5838 12.7232ZM18.0933 47.4313C16.4382 46.3273 15.1759 44.765 14.2502 42.6507C13.259 40.4054 12.7635 37.6176 12.7635 34.3619V26.6532C12.7635 23.4256 13.2684 20.6565 14.2596 18.4018C15.204 16.2688 16.4756 14.7065 18.1587 13.6213C19.8605 12.5267 21.8428 11.9841 24.2366 11.9841C26.6303 11.9841 28.622 12.5174 30.3144 13.6213C31.9975 14.7065 33.2692 16.2688 34.2136 18.4018C35.2047 20.6471 35.7003 23.4163 35.7003 26.6532V34.3619C35.7003 37.6176 35.1954 40.4054 34.2136 42.6507C33.2692 44.7931 31.9975 46.3648 30.3238 47.4687C28.6594 48.5632 26.6209 49.1246 24.2459 49.1526C21.8615 49.1246 19.8138 48.5632 18.1681 47.478L18.1213 47.4406L18.0933 47.4313Z" fill="#325BFF"/>
<path d="M102.892 40.6019V36.8692C102.892 33.3329 103.603 30.255 105.015 27.6542C106.427 25.0534 108.446 23.0327 111.046 21.6013C113.645 20.17 116.722 19.459 120.256 19.459C123.791 19.459 126.512 20.0764 128.905 21.302C131.299 22.5369 133.141 24.2115 134.441 26.3351C135.74 28.4588 136.404 30.8818 136.423 33.5948H126.296C126.222 32.678 125.979 31.7986 125.539 30.9566C125.1 30.1146 124.482 29.4224 123.678 28.8985C122.865 28.3746 121.846 28.1033 120.602 28.1033C118.536 28.1033 116.946 28.8985 115.824 30.4982C114.702 32.0886 114.141 34.2403 114.141 36.9346V40.4896C114.141 43.3991 114.711 45.6631 115.843 47.2909C116.983 48.9187 118.564 49.7327 120.602 49.7327C121.892 49.7327 122.94 49.5175 123.753 49.0778C124.557 48.6474 125.184 48.03 125.614 47.2442C126.044 46.4583 126.315 45.5228 126.409 44.4469H136.535C136.489 47.188 135.834 49.6017 134.581 51.6973C133.328 53.7835 131.495 55.4207 129.083 56.6088C126.67 57.7969 123.716 58.3863 120.228 58.3863C116.74 58.3863 113.514 57.6753 110.934 56.2439C108.343 54.8126 106.361 52.7731 104.977 50.1256C103.593 47.478 102.901 44.2972 102.901 40.5926L102.892 40.6019Z" fill="#325BFF"/>
<path d="M89.397 57.6942V19.8096H100.608V57.6942H89.397Z" fill="#325BFF"/>
<path d="M86.1073 20.1334V57.6948H75.242V51.3987H74.6809C74.3537 52.381 73.7459 53.4007 72.8482 54.4579C71.9599 55.515 70.7631 56.4131 69.267 57.1522C67.7709 57.8913 65.9195 58.2561 63.7128 58.2561C61.2255 58.2561 59.0562 57.7884 57.1954 56.8622C55.3347 55.936 53.8854 54.5047 52.8568 52.5681C51.8282 50.6316 51.314 48.1618 51.314 45.1681V20.124H62.5252V42.2867C62.5252 44.0922 62.8151 45.4862 63.4042 46.4591C63.9933 47.4321 64.732 48.0963 65.639 48.4612C66.5366 48.826 67.4623 49.0038 68.3974 49.0038C69.5662 49.0038 70.6509 48.7325 71.6327 48.1805C72.6145 47.6285 73.4093 46.824 74.0264 45.7668C74.6342 44.7097 74.9427 43.4467 74.9427 41.9686V20.124H86.126L86.1073 20.1334Z" fill="#325BFF"/>
<path d="M170.141 57.6949L151.324 32.5951C151.114 32.3155 151.001 31.9754 151.001 31.6259V9.68359H139.434V57.6949H151.001V49.8552L156.882 57.6949H170.141Z" fill="#325BFF"/>
<path fill-rule="evenodd" clip-rule="evenodd" d="M160.348 32.2429C160.616 32.2399 160.871 32.126 161.052 31.9282L170.316 21.8079C170.67 21.4212 170.653 20.8231 170.277 20.4578L164.576 14.9205C164.181 14.5376 163.548 14.5586 163.18 14.9668L154.074 25.0674C153.913 25.2455 153.824 25.4768 153.824 25.7166V31.3361C153.824 31.8758 154.265 32.3116 154.805 32.3055L160.348 32.2429ZM155.763 31.1855C156.388 31.1855 156.894 30.6791 156.894 30.0544C156.894 29.4297 156.388 28.9234 155.763 28.9234C155.139 28.9234 154.632 29.4297 154.632 30.0544C154.632 30.6791 155.139 31.1855 155.763 31.1855Z" fill="#325BFF"/>
</svg>
