<svg width="890" height="208" viewBox="0 0 890 208" fill="none" xmlns="http://www.w3.org/2000/svg">
<path d="M648.769 149.204V179.022H553.372V30.4546H589.164V149.204H648.769Z" fill="#325BFF"/>
<path d="M268.454 62.2986V178.53H234.833V159.047H233.097C232.084 162.087 230.203 165.242 227.425 168.513C224.677 171.784 220.973 174.564 216.343 176.851C211.714 179.138 205.985 180.267 199.156 180.267C191.46 180.267 184.747 178.819 178.989 175.953C173.231 173.087 168.746 168.658 165.563 162.665C162.381 156.673 160.789 149.03 160.789 139.767V62.2697H195.482V130.85C195.482 136.438 196.379 140.751 198.202 143.762C200.024 146.772 202.31 148.828 205.117 149.957C207.895 151.086 210.759 151.636 213.653 151.636C217.269 151.636 220.626 150.796 223.664 149.088C226.702 147.38 229.161 144.891 231.071 141.619C232.952 138.348 233.907 134.44 233.907 129.866V62.2697H268.512L268.454 62.2986Z" fill="#325BFF"/>
<path d="M329.39 125.639V114.089C329.39 103.146 331.589 93.6215 335.958 85.5736C340.328 77.5258 346.577 71.2727 354.621 66.8435C362.665 62.4143 372.184 60.2141 383.122 60.2141C394.059 60.2141 402.479 62.1248 409.886 65.9171C417.293 69.7384 422.993 74.9203 427.015 81.4918C431.037 88.0633 433.092 95.5611 433.149 103.956H401.813C401.582 101.119 400.83 98.3981 399.47 95.7927C398.11 93.1873 396.2 91.045 393.712 89.4239C391.194 87.8027 388.041 86.9632 384.192 86.9632C377.798 86.9632 372.879 89.4239 369.407 94.3742C365.935 99.2956 364.199 105.954 364.199 114.291V125.292C364.199 134.295 365.964 141.301 369.465 146.338C372.995 151.375 377.885 153.894 384.192 153.894C388.185 153.894 391.426 153.228 393.943 151.867C396.432 150.536 398.37 148.625 399.701 146.193C401.032 143.762 401.871 140.867 402.161 137.537H433.497C433.352 146.02 431.327 153.488 427.449 159.973C423.572 166.429 417.901 171.495 410.436 175.171C402.971 178.848 393.827 180.672 383.035 180.672C372.242 180.672 362.26 178.472 354.274 174.042C346.259 169.613 340.125 163.302 335.843 155.11C331.56 146.917 329.419 137.074 329.419 125.61L329.39 125.639Z" fill="#325BFF"/>
<path d="M709.329 97.2402C709.329 88.3238 711.586 81.1444 716.129 75.7309C720.671 70.3174 726.632 66.3803 734.068 63.9196C741.504 61.459 749.519 60.2141 758.171 60.2141C766.822 60.2141 775.039 61.5169 781.984 64.1223C788.928 66.7277 794.397 70.6359 798.361 75.8178C802.325 80.9997 804.292 87.4553 804.292 95.1269H774.056C773.824 93.0136 773.101 91.045 771.828 89.1923C770.555 87.3396 768.761 85.8052 766.446 84.6183C764.131 83.4314 761.18 82.8235 757.621 82.8235C752.615 82.8235 748.767 83.9235 746.076 86.0947C743.385 88.2659 742.054 91.1029 742.054 94.5768C742.054 97.2691 743.067 99.4114 745.092 101.061C747.118 102.683 749.722 104.014 752.876 104.97C756.029 105.954 759.386 106.707 762.945 107.257C766.504 107.807 769.802 108.299 772.84 108.733C779.958 109.891 786.15 111.773 791.445 114.349C796.74 116.926 800.849 120.428 803.8 124.858C806.752 129.287 808.198 134.932 808.198 141.851C808.198 149.899 806.173 156.847 802.093 162.636C798.042 168.455 792.14 172.913 784.414 176.011C776.689 179.137 767.285 180.701 756.174 180.701C745.063 180.701 736.528 179.195 729.207 176.185C721.887 173.174 716.302 169.034 712.512 163.736C708.693 158.439 706.812 152.331 706.812 145.441H740.434C740.723 147.843 741.562 149.986 742.922 151.867C744.311 153.749 746.25 155.225 748.738 156.268C751.255 157.31 754.264 157.831 757.823 157.831C761.816 157.831 765.028 157.31 767.516 156.268C769.976 155.225 771.799 153.749 772.956 151.925C774.113 150.072 774.692 148.075 774.692 145.875C774.692 142.546 773.303 140.056 770.555 138.406C767.806 136.785 764.247 135.54 759.907 134.7C755.567 133.861 750.937 132.963 746.105 132.037C739.363 130.734 733.2 128.795 727.616 126.276C722.031 123.729 717.575 120.139 714.277 115.507C710.978 110.875 709.329 104.767 709.329 97.2112V97.2402Z" fill="#325BFF"/>
<path d="M829.465 64.0356V35.289H862.971V64.0356H888.434V90.0609H862.971V139.361C862.971 144.514 864.245 148.075 866.82 150.073C869.395 152.07 873.33 153.054 878.625 153.054C880.737 153.054 882.734 152.996 884.672 152.881C886.582 152.765 888.058 152.678 889.07 152.62V177.545C887.768 177.777 885.309 178.066 881.721 178.414C878.133 178.761 874.314 178.964 870.234 178.964C860.367 178.964 852.381 177.864 846.247 175.635C840.113 173.406 835.657 169.845 832.88 164.924C830.073 160.002 828.684 153.489 828.684 145.441V90.032H810.947V64.0066H829.436L829.465 64.0356Z" fill="#325BFF"/>
<path d="M141.056 39.3709L139.927 36.9971L139.725 36.5628C136.744 30.4256 133.272 25.3884 129.135 21.104C125.373 17.2248 120.83 13.7509 114.812 10.1612C103.557 3.41601 90.1599 0 74.9693 0C59.7787 0 46.382 3.41601 35.1554 10.1612C23.8131 16.9642 14.9591 26.778 8.88289 39.342C2.98025 51.5296 0 66.0331 0 82.4763V106.215C0 122.658 2.98025 137.161 8.88289 149.349C14.9591 161.913 23.7842 171.727 35.1554 178.53C46.382 185.275 59.7787 188.691 74.9693 188.691C90.1599 188.691 103.557 185.275 114.783 178.53C126.125 171.727 134.979 161.913 141.027 149.349C146.929 137.161 149.91 122.658 149.91 106.215V82.4763C149.91 66.0621 146.929 51.5585 141.056 39.3709ZM55.9883 146.772C50.8668 143.356 46.9607 138.522 44.0962 131.979C41.0291 125.032 39.4956 116.405 39.4956 106.33V82.4763C39.4956 72.4888 41.0581 63.9198 44.1251 56.9431C47.0475 50.3427 50.9826 45.5081 56.1908 42.15C61.4569 38.763 67.591 37.0839 74.9982 37.0839C82.4055 37.0839 88.5685 38.734 93.8056 42.15C99.0138 45.5081 102.949 50.3427 105.871 56.9431C108.938 63.8909 110.472 72.4598 110.472 82.4763V106.33C110.472 116.405 108.909 125.032 105.871 131.979C102.949 138.609 99.0139 143.472 93.8346 146.888C88.6842 150.275 82.3765 152.012 75.0272 152.099C67.6489 152.012 61.3122 150.275 56.2197 146.917L56.0751 146.801L55.9883 146.772Z" fill="#325BFF"/>
<path d="M282.632 178.529V62.2984H317.325V178.529H282.632Z" fill="#325BFF"/>
<path d="M55.9305 126.334H97.9434L159.169 208H117.156L55.9305 126.334Z" fill="#325BFF"/>
<path d="M537.487 178.53L478.258 99.5276V29.9626H442.466V178.53H478.258V154.271L496.458 178.53H537.487Z" fill="#325BFF"/>
<path d="M507.077 98.9482H477.622L520.532 41.7157H549.987L507.077 98.9482Z" fill="#325BFF"/>
<path d="M665.001 179.427V63.1674H699.694V179.398H665.001V179.427Z" fill="#325BFF"/>
</svg>
